<svg width="80" height="80" viewBox="0 0 80 80" fill="none" xmlns="http://www.w3.org/2000/svg">
<circle cx="40" cy="40" r="40" fill="white"/>
<path d="M40.0955 76.0257C39.2993 75.6019 38.9911 74.9855 39.081 73.9711C39.1196 73.4703 39.1196 72.9566 39.1067 72.4558C39.1067 72.2503 39.1067 72.032 39.1067 71.8266V71.1588L38.439 71.1074C30.7341 70.4782 24.1337 67.4733 18.843 62.1827C13.5395 56.8792 10.5346 50.2916 9.91825 42.5867L9.86688 41.919H9.19913C8.98083 41.919 8.10761 41.9061 7.88931 41.9061C7.6068 41.9061 7.32429 41.9061 7.05462 41.9318C6.95189 41.9318 6.84916 41.9447 6.74643 41.9447C5.91174 41.9447 5.3724 41.6236 5 40.9173V40.1212C5.3724 39.4149 5.91174 39.0939 6.74643 39.0939C6.84916 39.0939 6.95189 39.0939 7.06746 39.1067C7.33713 39.1324 7.61964 39.1324 7.88931 39.1324C8.10761 39.1324 8.95515 39.1196 9.16061 39.1196H9.85404L9.89257 38.4261C10.5603 23.5686 23.1063 11.0483 38.4261 9.91825L39.1067 9.86688V6.69506C39.1067 5.88606 39.4791 5.01284 40.4936 5C41.3668 5 41.8933 5.64207 41.8933 6.65654V9.86688L42.561 9.91825C50.2402 10.5346 56.8278 13.5267 62.1313 18.8302C67.4476 24.1337 70.4525 30.7341 71.0818 38.4518L71.1331 39.1196H74.3435C74.8956 39.1196 75.3579 39.2865 75.6404 39.5818C75.8716 39.8258 76 40.1469 76 40.5193C76 41.5337 75.1268 41.9061 74.3049 41.9061H71.1203L71.0689 42.5739C70.4525 50.2659 67.4476 56.8663 62.1442 62.1698C56.8407 67.4733 50.2402 70.4782 42.5482 71.1074L41.8804 71.1588V71.8266C41.8804 72.0449 41.8804 72.2632 41.8804 72.4815C41.8804 72.9823 41.8548 73.4831 41.9061 73.9711C41.996 74.9855 41.6878 75.6148 40.8917 76.0385H40.0955V76.0257ZM40.5064 63.4797C41.3411 63.4925 41.8804 64.1346 41.8804 65.1234V68.2952L42.6638 68.2438C57.8166 67.1908 67.7045 54.144 68.1668 42.6638L68.1924 41.9061H65.9195C65.5985 41.9061 65.2903 41.9061 64.9693 41.9061C64.507 41.9061 64.1089 41.7392 63.8264 41.4438C63.5824 41.187 63.454 40.8531 63.454 40.4936C63.4668 39.7103 64.1089 39.1324 64.9693 39.1196C65.2774 39.1196 67.4862 39.1196 67.4862 39.1196H68.2695L68.2181 38.3362C67.1394 23.1577 54.1054 13.2827 42.6381 12.8332L41.8804 12.8076V15.8895C41.8804 16.8783 41.3154 17.546 40.4936 17.546C39.6332 17.5332 39.0939 16.8911 39.0939 15.9023V12.7305L38.3105 12.7819C23.1577 13.8477 13.2698 26.8946 12.8076 38.3619L12.7819 39.1196H15.8638C16.4031 39.1196 16.8654 39.2993 17.1608 39.5947C17.4048 39.8387 17.5203 40.1597 17.5203 40.5321C17.5075 41.3668 16.8654 41.9061 15.8766 41.9061H12.7048L12.7562 42.6895C13.822 57.8423 26.856 67.7302 38.3362 68.1924L39.0939 68.2181V65.1362C39.0939 64.1474 39.6589 63.4797 40.4807 63.4797H40.5064Z" fill="#2563EB"/>
<path d="M40.4813 58.9597C35.5502 58.9597 30.9273 57.0335 27.4345 53.5406C23.9416 50.0478 22.0282 45.4249 22.0411 40.5066C22.0411 30.3363 30.3238 22.0664 40.4813 22.0664C45.4252 22.0664 50.061 23.9926 53.541 27.4855C57.021 30.9783 58.9472 35.6012 58.9344 40.5195C58.9344 50.6898 50.6517 58.9597 40.4941 58.9597H40.4813ZM40.4813 24.853C31.8519 24.853 24.8277 31.8772 24.8277 40.5066C24.8277 49.0975 31.8134 56.1217 40.4299 56.1731C49.0979 56.1731 56.1093 49.1746 56.1478 40.558C56.1735 36.3974 54.5555 32.4679 51.6148 29.4887C48.6484 26.5095 44.719 24.8658 40.5198 24.853H40.4941H40.4813Z" fill="#2563EB"/>
<path d="M38.7985 45.6689C38.4261 45.6689 38.0537 45.4891 37.6813 45.1167C36.5384 43.9995 35.4083 42.8695 34.2911 41.7266C33.6876 41.1102 33.6619 40.2627 34.2141 39.6977C34.4838 39.4152 34.8176 39.2739 35.1644 39.2739C35.5496 39.2739 35.9477 39.4537 36.2687 39.7747C36.7053 40.1985 37.1162 40.6351 37.5528 41.0974L38.7086 42.3045L40.6605 40.1985C41.9831 38.7731 43.2673 37.3862 44.5771 36.025C44.8339 35.7554 45.2063 35.5242 45.5402 35.4215C45.6429 35.3958 45.7585 35.3701 45.8612 35.3701C46.2978 35.3701 46.7088 35.6141 46.9527 36.0379C47.2866 36.6029 47.2096 37.2321 46.7601 37.7329C45.8484 38.7474 44.9238 39.7362 43.9864 40.725L42.2143 42.6255C41.4566 43.4473 40.699 44.2564 39.9285 45.0654C39.6717 45.335 39.2608 45.6561 38.7856 45.6561L38.7985 45.6689Z" fill="#2563EB"/>
</svg>
