<svg width="53" height="53" viewBox="0 0 53 53" fill="none" xmlns="http://www.w3.org/2000/svg">
<path d="M19.7625 22.4035H26.35C27.0489 22.4035 27.7191 22.126 28.2132 21.6319C28.7074 21.1378 28.985 20.4677 28.985 19.769C28.985 19.0703 28.7074 18.4002 28.2132 17.9062C27.7191 17.4121 27.0489 17.1346 26.35 17.1346H23.715V15.8173C23.715 15.1186 23.4374 14.4485 22.9432 13.9545C22.4491 13.4604 21.7789 13.1829 21.08 13.1829C20.3812 13.1829 19.7109 13.4604 19.2168 13.9545C18.7226 14.4485 18.445 15.1186 18.445 15.8173V17.2663C16.8441 17.5913 15.421 18.4995 14.4521 19.8145C13.4832 21.1296 13.0376 22.7576 13.2017 24.3827C13.3659 26.0077 14.1282 27.5138 15.3405 28.6085C16.5529 29.7033 18.1289 30.3086 19.7625 30.307H22.3975C22.7469 30.307 23.082 30.4457 23.3291 30.6928C23.5762 30.9398 23.715 31.2748 23.715 31.6242C23.715 31.9735 23.5762 32.3086 23.3291 32.5556C23.082 32.8026 22.7469 32.9414 22.3975 32.9414H15.81C15.1112 32.9414 14.4409 33.219 13.9468 33.713C13.4526 34.2071 13.175 34.8772 13.175 35.5759C13.175 36.2746 13.4526 36.9447 13.9468 37.4388C14.4409 37.9328 15.1112 38.2104 15.81 38.2104H18.445V39.5276C18.445 40.2263 18.7226 40.8964 19.2168 41.3905C19.7109 41.8845 20.3812 42.1621 21.08 42.1621C21.7789 42.1621 22.4491 41.8845 22.9432 41.3905C23.4374 40.8964 23.715 40.2263 23.715 39.5276V38.0787C25.316 37.7536 26.739 36.8455 27.7079 35.5304C28.6768 34.2154 29.1225 32.5873 28.9583 30.9623C28.7941 29.3372 28.0318 27.8312 26.8195 26.7364C25.6071 25.6417 24.0311 25.0364 22.3975 25.038H19.7625C19.4131 25.038 19.078 24.8992 18.8309 24.6522C18.5838 24.4052 18.445 24.0701 18.445 23.7208C18.445 23.3714 18.5838 23.0364 18.8309 22.7893C19.078 22.5423 19.4131 22.4035 19.7625 22.4035ZM50.065 26.3552H42.16V2.64495C42.1619 2.18073 42.041 1.72426 41.8096 1.32177C41.5782 0.919282 41.2446 0.585062 40.8425 0.352953C40.4419 0.121729 39.9875 0 39.525 0C39.0625 0 38.6081 0.121729 38.2075 0.352953L30.3025 4.88425L22.3975 0.352953C21.9969 0.121729 21.5426 0 21.08 0C20.6175 0 20.1631 0.121729 19.7625 0.352953L11.8575 4.88425L3.95252 0.352953C3.55195 0.121729 3.09756 0 2.63502 0C2.17248 0 1.71809 0.121729 1.31752 0.352953C0.915408 0.585062 0.58178 0.919282 0.350418 1.32177C0.119057 1.72426 -0.00182259 2.18073 2.07714e-05 2.64495V44.7966C2.07714e-05 46.8927 0.832867 48.903 2.31534 50.3851C3.79782 51.8673 5.80848 52.7 7.90502 52.7H44.795C46.8915 52.7 48.9022 51.8673 50.3847 50.3851C51.8672 48.903 52.7 46.8927 52.7 44.7966V28.9897C52.7 28.291 52.4224 27.6209 51.9282 27.1269C51.4341 26.6328 50.7638 26.3552 50.065 26.3552ZM7.90502 47.431C7.20617 47.431 6.53595 47.1535 6.04179 46.6594C5.54763 46.1654 5.27002 45.4953 5.27002 44.7966V7.20259L10.54 10.2059C10.9467 10.4183 11.3987 10.5292 11.8575 10.5292C12.3163 10.5292 12.7683 10.4183 13.175 10.2059L21.08 5.67459L28.985 10.2059C29.3917 10.4183 29.8437 10.5292 30.3025 10.5292C30.7613 10.5292 31.2133 10.4183 31.62 10.2059L36.89 7.20259V44.7966C36.8971 45.6953 37.0575 46.5862 37.3643 47.431H7.90502ZM47.43 44.7966C47.43 45.4953 47.1524 46.1654 46.6582 46.6594C46.1641 47.1535 45.4939 47.431 44.795 47.431C44.0962 47.431 43.4259 47.1535 42.9318 46.6594C42.4376 46.1654 42.16 45.4953 42.16 44.7966V31.6242H47.43V44.7966Z" fill="#2563EB"/>
</svg>
