<svg width="512" height="457" viewBox="0 0 512 457" fill="none" xmlns="http://www.w3.org/2000/svg">
<circle opacity="0.2" cx="251.979" cy="225.016" r="115.182" fill="white"/>
<circle opacity="0.5" cx="251.98" cy="225.016" r="99.3441" fill="white"/>
<g filter="url(#filter0_d_257_2031)">
<circle cx="251.979" cy="225.016" r="86.3861" fill="white"/>
<circle cx="251.979" cy="225.016" r="85.8861" stroke="#C4B5FD"/>
</g>
<path d="M206.934 237.998C210.335 237.998 212.643 236.591 214.11 234.466L214.671 237.591H216.949V225.215H207.215V228.903H213.423C212.799 231.716 210.74 233.935 206.934 233.935C202.411 233.935 200.071 230.309 200.071 226.652C200.071 223.027 202.411 219.37 206.934 219.37C209.212 219.37 210.927 220.308 212.082 221.714L215.576 219.37C213.61 216.87 210.553 215.338 206.934 215.338C200.445 215.338 195.828 220.245 195.828 226.652C195.828 233.06 200.445 237.998 206.934 237.998ZM223.458 237.591V231.059C223.458 228.121 224.051 225.121 228.731 225.684V221.37C226.828 221.37 224.644 222.371 223.458 224.34V221.746H219.496V237.591H223.458ZM237.58 237.998C242.353 237.998 245.941 234.31 245.941 229.684C245.941 225.027 242.353 221.37 237.58 221.37C232.838 221.37 229.251 225.027 229.251 229.684C229.251 234.31 232.838 237.998 237.58 237.998ZM237.58 234.185C234.96 234.185 233.306 232.153 233.306 229.684C233.306 227.215 234.96 225.184 237.58 225.184C240.232 225.184 241.885 227.215 241.885 229.684C241.885 232.153 240.232 234.185 237.58 234.185ZM254.51 237.591L257.661 228.246L260.843 237.591H264.368L269.672 221.746H265.398L262.34 231.809L258.971 221.746H256.382L252.981 231.809L249.955 221.746H245.681L250.985 237.591H254.51ZM276.369 237.591V225.371H279.769V221.746H276.369C276.369 219.808 277.055 218.714 279.083 218.714C279.332 218.714 279.551 218.745 279.769 218.745V215.432C279.239 215.338 278.895 215.307 278.116 215.307C273.842 215.307 272.406 218.495 272.406 221.746H270.192V225.371H272.406V237.591H276.369ZM283.502 219.433C284.688 219.433 285.624 218.495 285.624 217.307C285.624 216.151 284.688 215.213 283.502 215.213C282.348 215.213 281.412 216.151 281.412 217.307C281.412 218.495 282.348 219.433 283.502 219.433ZM285.499 237.591V221.746H281.537V237.591H285.499ZM292.133 237.591V228.778C292.133 226.965 293.163 225.215 295.503 225.215C297.749 225.215 298.591 226.746 298.591 228.778V237.591H302.553V227.965C302.553 224.621 300.744 221.37 296.751 221.37C294.442 221.37 293.007 222.402 292.133 223.683V221.746H288.203V237.591H292.133Z" fill="#1A18AD"/>
<g clip-path="url(#clip0_257_2031)">
<path fill-rule="evenodd" clip-rule="evenodd" d="M266.045 208.196C271.639 194.786 282.448 186.844 298.985 183.262C295.423 188.72 295.429 193.666 297.145 196.686C298.86 199.707 306.73 204.334 309.816 216.089C301.478 209.502 293.454 205.884 285.744 205.234C278.034 204.584 271.639 205.202 266.045 208.196Z" fill="#00D4C7"/>
<path fill-rule="evenodd" clip-rule="evenodd" d="M285.915 200.324C286.55 198.99 287.068 198.027 287.469 197.435C288.48 195.944 289.728 194.664 291.213 193.597C292.433 192.72 293.813 191.987 295.352 191.396C295.585 191.307 295.822 191.221 296.062 191.138C296.004 192.058 295.869 193.851 296.826 196.058C297.007 196.475 297.299 197.018 297.745 197.539C299.026 199.034 300.872 200.762 301.766 201.774C302.275 202.35 302.731 202.828 302.682 202.791C299.596 200.469 296.62 199.187 293.755 198.946C290.726 198.691 288.113 199.15 285.915 200.324Z" fill="black" fill-opacity="0.2"/>
</g>
<path d="M285.814 146.548L288.701 141.548H282.927L285.814 146.548ZM258.219 39.7852C258.495 39.7852 258.719 39.5613 258.719 39.2852C258.719 39.009 258.495 38.7852 258.219 38.7852V39.7852ZM261.103 38.7852C260.827 38.7852 260.603 39.009 260.603 39.2852C260.603 39.5613 260.827 39.7852 261.103 39.7852V38.7852ZM262.065 39.7852C262.341 39.7852 262.565 39.5613 262.565 39.2852C262.565 39.009 262.341 38.7852 262.065 38.7852V39.7852ZM264.949 38.7852C264.673 38.7852 264.449 39.009 264.449 39.2852C264.449 39.5613 264.673 39.7852 264.949 39.7852V38.7852ZM265.911 39.7852C266.187 39.7852 266.411 39.5613 266.411 39.2852C266.411 39.009 266.187 38.7852 265.911 38.7852V39.7852ZM268.795 38.7852C268.519 38.7852 268.295 39.009 268.295 39.2852C268.295 39.5613 268.519 39.7852 268.795 39.7852V38.7852ZM269.757 39.7852C270.033 39.7852 270.257 39.5613 270.257 39.2852C270.257 39.009 270.033 38.7852 269.757 38.7852V39.7852ZM272.641 38.7852C272.365 38.7852 272.141 39.009 272.141 39.2852C272.141 39.5613 272.365 39.7852 272.641 39.7852V38.7852ZM273.603 39.7852C273.879 39.7852 274.103 39.5613 274.103 39.2852C274.103 39.009 273.879 38.7852 273.603 38.7852V39.7852ZM276.487 38.7852C276.211 38.7852 275.987 39.009 275.987 39.2852C275.987 39.5613 276.211 39.7852 276.487 39.7852V38.7852ZM277.449 39.7852C277.725 39.7852 277.949 39.5613 277.949 39.2852C277.949 39.009 277.725 38.7852 277.449 38.7852V39.7852ZM280.333 38.7852C280.057 38.7852 279.833 39.009 279.833 39.2852C279.833 39.5613 280.057 39.7852 280.333 39.7852V38.7852ZM281.256 39.8065C281.53 39.8333 281.775 39.6322 281.802 39.3573C281.828 39.0825 281.627 38.838 281.352 38.8112L281.256 39.8065ZM284.303 40.0336C284.09 39.8583 283.775 39.8892 283.599 40.1025C283.424 40.3159 283.455 40.631 283.668 40.8063L284.303 40.0336ZM284.293 41.4306C284.468 41.6439 284.783 41.6748 284.996 41.4995C285.21 41.3242 285.241 41.0091 285.065 40.7957L284.293 41.4306ZM286.288 43.7464C286.261 43.4716 286.016 43.2705 285.742 43.2972C285.467 43.324 285.266 43.5685 285.292 43.8433L286.288 43.7464ZM285.314 44.7768C285.314 45.0529 285.538 45.2768 285.814 45.2768C286.09 45.2768 286.314 45.0529 286.314 44.7768H285.314ZM286.314 47.7267C286.314 47.4505 286.09 47.2267 285.814 47.2267C285.538 47.2267 285.314 47.4505 285.314 47.7267H286.314ZM285.314 48.71C285.314 48.9861 285.538 49.21 285.814 49.21C286.09 49.21 286.314 48.9861 286.314 48.71H285.314ZM286.314 51.6599C286.314 51.3837 286.09 51.1599 285.814 51.1599C285.538 51.1599 285.314 51.3837 285.314 51.6599H286.314ZM285.314 52.6432C285.314 52.9193 285.538 53.1432 285.814 53.1432C286.09 53.1432 286.314 52.9193 286.314 52.6432H285.314ZM286.314 55.5931C286.314 55.3169 286.09 55.0931 285.814 55.0931C285.538 55.0931 285.314 55.3169 285.314 55.5931H286.314ZM285.314 56.5764C285.314 56.8525 285.538 57.0764 285.814 57.0764C286.09 57.0764 286.314 56.8525 286.314 56.5764H285.314ZM286.314 59.5262C286.314 59.2501 286.09 59.0262 285.814 59.0262C285.538 59.0262 285.314 59.2501 285.314 59.5262H286.314ZM285.314 60.5095C285.314 60.7857 285.538 61.0095 285.814 61.0095C286.09 61.0095 286.314 60.7857 286.314 60.5095H285.314ZM286.314 63.4594C286.314 63.1833 286.09 62.9594 285.814 62.9594C285.538 62.9594 285.314 63.1833 285.314 63.4594H286.314ZM285.314 64.4427C285.314 64.7189 285.538 64.9427 285.814 64.9427C286.09 64.9427 286.314 64.7189 286.314 64.4427H285.314ZM286.314 67.3926C286.314 67.1165 286.09 66.8926 285.814 66.8926C285.538 66.8926 285.314 67.1165 285.314 67.3926H286.314ZM285.314 68.3759C285.314 68.6521 285.538 68.8759 285.814 68.8759C286.09 68.8759 286.314 68.6521 286.314 68.3759H285.314ZM286.314 71.3258C286.314 71.0497 286.09 70.8258 285.814 70.8258C285.538 70.8258 285.314 71.0497 285.314 71.3258H286.314ZM285.314 72.3091C285.314 72.5852 285.538 72.8091 285.814 72.8091C286.09 72.8091 286.314 72.5852 286.314 72.3091H285.314ZM286.314 75.259C286.314 74.9828 286.09 74.759 285.814 74.759C285.538 74.759 285.314 74.9828 285.314 75.259H286.314ZM285.314 76.2423C285.314 76.5184 285.538 76.7423 285.814 76.7423C286.09 76.7423 286.314 76.5184 286.314 76.2423H285.314ZM286.314 79.1922C286.314 78.916 286.09 78.6922 285.814 78.6922C285.538 78.6922 285.314 78.916 285.314 79.1922H286.314ZM285.314 80.1755C285.314 80.4516 285.538 80.6755 285.814 80.6755C286.09 80.6755 286.314 80.4516 286.314 80.1755H285.314ZM286.314 83.1254C286.314 82.8492 286.09 82.6254 285.814 82.6254C285.538 82.6254 285.314 82.8492 285.314 83.1254H286.314ZM285.314 84.1086C285.314 84.3848 285.538 84.6086 285.814 84.6086C286.09 84.6086 286.314 84.3848 286.314 84.1086H285.314ZM286.314 87.0585C286.314 86.7824 286.09 86.5585 285.814 86.5585C285.538 86.5585 285.314 86.7824 285.314 87.0585H286.314ZM285.314 88.0418C285.314 88.318 285.538 88.5418 285.814 88.5418C286.09 88.5418 286.314 88.318 286.314 88.0418H285.314ZM286.314 90.9917C286.314 90.7156 286.09 90.4917 285.814 90.4917C285.538 90.4917 285.314 90.7156 285.314 90.9917H286.314ZM285.314 91.975C285.314 92.2512 285.538 92.475 285.814 92.475C286.09 92.475 286.314 92.2512 286.314 91.975H285.314ZM286.314 94.9249C286.314 94.6488 286.09 94.4249 285.814 94.4249C285.538 94.4249 285.314 94.6488 285.314 94.9249H286.314ZM285.314 95.9082C285.314 96.1843 285.538 96.4082 285.814 96.4082C286.09 96.4082 286.314 96.1843 286.314 95.9082H285.314ZM286.314 98.8581C286.314 98.5819 286.09 98.3581 285.814 98.3581C285.538 98.3581 285.314 98.5819 285.314 98.8581H286.314ZM285.314 99.8414C285.314 100.118 285.538 100.341 285.814 100.341C286.09 100.341 286.314 100.118 286.314 99.8414H285.314ZM286.314 102.791C286.314 102.515 286.09 102.291 285.814 102.291C285.538 102.291 285.314 102.515 285.314 102.791H286.314ZM285.314 103.775C285.314 104.051 285.538 104.275 285.814 104.275C286.09 104.275 286.314 104.051 286.314 103.775H285.314ZM286.314 106.724C286.314 106.448 286.09 106.224 285.814 106.224C285.538 106.224 285.314 106.448 285.314 106.724H286.314ZM285.314 107.708C285.314 107.984 285.538 108.208 285.814 108.208C286.09 108.208 286.314 107.984 286.314 107.708H285.314ZM286.314 110.658C286.314 110.381 286.09 110.158 285.814 110.158C285.538 110.158 285.314 110.381 285.314 110.658H286.314ZM285.314 111.641C285.314 111.917 285.538 112.141 285.814 112.141C286.09 112.141 286.314 111.917 286.314 111.641H285.314ZM286.314 114.591C286.314 114.315 286.09 114.091 285.814 114.091C285.538 114.091 285.314 114.315 285.314 114.591H286.314ZM285.314 115.574C285.314 115.85 285.538 116.074 285.814 116.074C286.09 116.074 286.314 115.85 286.314 115.574H285.314ZM286.314 118.524C286.314 118.248 286.09 118.024 285.814 118.024C285.538 118.024 285.314 118.248 285.314 118.524H286.314ZM285.314 119.507C285.314 119.783 285.538 120.007 285.814 120.007C286.09 120.007 286.314 119.783 286.314 119.507H285.314ZM286.314 122.457C286.314 122.181 286.09 121.957 285.814 121.957C285.538 121.957 285.314 122.181 285.314 122.457H286.314ZM285.314 123.44C285.314 123.717 285.538 123.94 285.814 123.94C286.09 123.94 286.314 123.717 286.314 123.44H285.314ZM286.314 126.39C286.314 126.114 286.09 125.89 285.814 125.89C285.538 125.89 285.314 126.114 285.314 126.39H286.314ZM285.314 127.374C285.314 127.65 285.538 127.874 285.814 127.874C286.09 127.874 286.314 127.65 286.314 127.374H285.314ZM286.314 130.324C286.314 130.047 286.09 129.824 285.814 129.824C285.538 129.824 285.314 130.047 285.314 130.324H286.314ZM285.314 131.307C285.314 131.583 285.538 131.807 285.814 131.807C286.09 131.807 286.314 131.583 286.314 131.307H285.314ZM286.314 134.257C286.314 133.981 286.09 133.757 285.814 133.757C285.538 133.757 285.314 133.981 285.314 134.257H286.314ZM285.314 135.24C285.314 135.516 285.538 135.74 285.814 135.74C286.09 135.74 286.314 135.516 286.314 135.24H285.314ZM286.314 138.19C286.314 137.914 286.09 137.69 285.814 137.69C285.538 137.69 285.314 137.914 285.314 138.19H286.314ZM285.314 139.173C285.314 139.449 285.538 139.673 285.814 139.673C286.09 139.673 286.314 139.449 286.314 139.173H285.314ZM286.314 142.123C286.314 141.847 286.09 141.623 285.814 141.623C285.538 141.623 285.314 141.847 285.314 142.123H286.314ZM285.314 143.106C285.314 143.383 285.538 143.606 285.814 143.606C286.09 143.606 286.314 143.383 286.314 143.106H285.314ZM286.314 146.056C286.314 145.78 286.09 145.556 285.814 145.556C285.538 145.556 285.314 145.78 285.314 146.056H286.314ZM257.738 39.7852H258.219V38.7852H257.738V39.7852ZM261.103 39.7852H262.065V38.7852H261.103V39.7852ZM264.949 39.7852H265.911V38.7852H264.949V39.7852ZM268.795 39.7852H269.757V38.7852H268.795V39.7852ZM272.641 39.7852H273.603V38.7852H272.641V39.7852ZM276.487 39.7852H277.449V38.7852H276.487V39.7852ZM280.333 39.7852H280.814V38.7852H280.333V39.7852ZM280.814 39.7852C280.963 39.7852 281.11 39.7924 281.256 39.8065L281.352 38.8112C281.175 38.794 280.995 38.7852 280.814 38.7852V39.7852ZM283.668 40.8063C283.896 40.9935 284.105 41.2027 284.293 41.4306L285.065 40.7957C284.837 40.5175 284.581 40.2622 284.303 40.0336L283.668 40.8063ZM285.292 43.8433C285.307 43.9885 285.314 44.1359 285.314 44.2852H286.314C286.314 44.1035 286.305 43.9238 286.288 43.7464L285.292 43.8433ZM285.314 44.2852V44.7768H286.314V44.2852H285.314ZM285.314 47.7267V48.71H286.314V47.7267H285.314ZM285.314 51.6599V52.6432H286.314V51.6599H285.314ZM285.314 55.5931V56.5764H286.314V55.5931H285.314ZM285.314 59.5262V60.5095H286.314V59.5262H285.314ZM285.314 63.4594V64.4427H286.314V63.4594H285.314ZM285.314 67.3926V68.3759H286.314V67.3926H285.314ZM285.314 71.3258V72.3091H286.314V71.3258H285.314ZM285.314 75.259V76.2423H286.314V75.259H285.314ZM285.314 79.1922V80.1755H286.314V79.1922H285.314ZM285.314 83.1254V84.1086H286.314V83.1254H285.314ZM285.314 87.0585V88.0418H286.314V87.0585H285.314ZM285.314 90.9917V91.975H286.314V90.9917H285.314ZM285.314 94.9249V95.9082H286.314V94.9249H285.314ZM285.314 98.8581V99.8414H286.314V98.8581H285.314ZM285.314 102.791V103.775H286.314V102.791H285.314ZM285.314 106.724V107.708H286.314V106.724H285.314ZM285.314 110.658V111.641H286.314V110.658H285.314ZM285.314 114.591V115.574H286.314V114.591H285.314ZM285.314 118.524V119.507H286.314V118.524H285.314ZM285.314 122.457V123.44H286.314V122.457H285.314ZM285.314 126.39V127.374H286.314V126.39H285.314ZM285.314 130.324V131.307H286.314V130.324H285.314ZM285.314 134.257V135.24H286.314V134.257H285.314ZM285.314 138.19V139.173H286.314V138.19H285.314ZM285.314 142.123V143.106H286.314V142.123H285.314Z" fill="#7C3AED"/>
<path d="M171.352 196.22L166.352 193.333V199.106L171.352 196.22ZM72.5371 121.132C72.8132 121.132 73.0371 120.908 73.0371 120.632C73.0371 120.356 72.8132 120.132 72.5371 120.132V121.132ZM75.7128 120.132C75.4366 120.132 75.2128 120.356 75.2128 120.632C75.2128 120.908 75.4366 121.132 75.7128 121.132V120.132ZM76.7713 121.132C77.0475 121.132 77.2713 120.908 77.2713 120.632C77.2713 120.356 77.0475 120.132 76.7713 120.132V121.132ZM79.947 120.132C79.6708 120.132 79.447 120.356 79.447 120.632C79.447 120.908 79.6708 121.132 79.947 121.132V120.132ZM81.0055 121.132C81.2817 121.132 81.5055 120.908 81.5055 120.632C81.5055 120.356 81.2817 120.132 81.0055 120.132V121.132ZM84.1812 120.132C83.9051 120.132 83.6812 120.356 83.6812 120.632C83.6812 120.908 83.9051 121.132 84.1812 121.132V120.132ZM85.2398 121.132C85.5159 121.132 85.7398 120.908 85.7398 120.632C85.7398 120.356 85.5159 120.132 85.2398 120.132V121.132ZM88.4154 120.132C88.1393 120.132 87.9154 120.356 87.9154 120.632C87.9154 120.908 88.1393 121.132 88.4154 121.132V120.132ZM89.474 121.132C89.7501 121.132 89.974 120.908 89.974 120.632C89.974 120.356 89.7501 120.132 89.474 120.132V121.132ZM92.6496 120.132C92.3735 120.132 92.1496 120.356 92.1496 120.632C92.1496 120.908 92.3735 121.132 92.6496 121.132V120.132ZM93.7082 121.132C93.9843 121.132 94.2082 120.908 94.2082 120.632C94.2082 120.356 93.9843 120.132 93.7082 120.132V121.132ZM96.8839 120.132C96.6077 120.132 96.3839 120.356 96.3839 120.632C96.3839 120.908 96.6077 121.132 96.8839 121.132V120.132ZM97.9424 121.132C98.2186 121.132 98.4424 120.908 98.4424 120.632C98.4424 120.356 98.2186 120.132 97.9424 120.132V121.132ZM101.118 120.132C100.842 120.132 100.618 120.356 100.618 120.632C100.618 120.908 100.842 121.132 101.118 121.132V120.132ZM102.177 121.132C102.453 121.132 102.677 120.908 102.677 120.632C102.677 120.356 102.453 120.132 102.177 120.132V121.132ZM105.352 120.132C105.076 120.132 104.852 120.356 104.852 120.632C104.852 120.908 105.076 121.132 105.352 121.132V120.132ZM106.323 121.153C106.598 121.18 106.843 120.979 106.869 120.704C106.896 120.429 106.695 120.185 106.42 120.158L106.323 121.153ZM109.371 121.38C109.158 121.205 108.843 121.236 108.667 121.449C108.492 121.663 108.523 121.978 108.736 122.153L109.371 121.38ZM109.36 122.777C109.536 122.991 109.851 123.021 110.064 122.846C110.278 122.671 110.308 122.356 110.133 122.142L109.36 122.777ZM111.355 125.093C111.329 124.818 111.084 124.617 110.809 124.644C110.535 124.671 110.333 124.915 110.36 125.19L111.355 125.093ZM110.382 126.144C110.382 126.42 110.605 126.644 110.882 126.644C111.158 126.644 111.382 126.42 111.382 126.144H110.382ZM111.382 129.219C111.382 128.943 111.158 128.719 110.882 128.719C110.605 128.719 110.382 128.943 110.382 129.219H111.382ZM110.382 130.243C110.382 130.52 110.605 130.743 110.882 130.743C111.158 130.743 111.382 130.52 111.382 130.243H110.382ZM111.382 133.318C111.382 133.042 111.158 132.818 110.882 132.818C110.605 132.818 110.382 133.042 110.382 133.318H111.382ZM110.382 134.343C110.382 134.619 110.605 134.843 110.882 134.843C111.158 134.843 111.382 134.619 111.382 134.343H110.382ZM111.382 137.417C111.382 137.141 111.158 136.917 110.882 136.917C110.605 136.917 110.382 137.141 110.382 137.417H111.382ZM110.382 138.442C110.382 138.718 110.605 138.942 110.882 138.942C111.158 138.942 111.382 138.718 111.382 138.442H110.382ZM111.382 141.516C111.382 141.24 111.158 141.016 110.882 141.016C110.605 141.016 110.382 141.24 110.382 141.516H111.382ZM110.382 142.541C110.382 142.817 110.605 143.041 110.882 143.041C111.158 143.041 111.382 142.817 111.382 142.541H110.382ZM111.382 145.616C111.382 145.339 111.158 145.116 110.882 145.116C110.605 145.116 110.382 145.339 110.382 145.616H111.382ZM110.382 146.64C110.382 146.917 110.605 147.14 110.882 147.14C111.158 147.14 111.382 146.917 111.382 146.64H110.382ZM111.382 149.715C111.382 149.439 111.158 149.215 110.882 149.215C110.605 149.215 110.382 149.439 110.382 149.715H111.382ZM110.382 150.74C110.382 151.016 110.605 151.24 110.882 151.24C111.158 151.24 111.382 151.016 111.382 150.74H110.382ZM111.382 153.814C111.382 153.538 111.158 153.314 110.882 153.314C110.605 153.314 110.382 153.538 110.382 153.814H111.382ZM110.382 154.839C110.382 155.115 110.605 155.339 110.882 155.339C111.158 155.339 111.382 155.115 111.382 154.839H110.382ZM111.382 157.913C111.382 157.637 111.158 157.413 110.882 157.413C110.605 157.413 110.382 157.637 110.382 157.913H111.382ZM110.382 158.938C110.382 159.214 110.605 159.438 110.882 159.438C111.158 159.438 111.382 159.214 111.382 158.938H110.382ZM111.382 162.013C111.382 161.736 111.158 161.513 110.882 161.513C110.605 161.513 110.382 161.736 110.382 162.013H111.382ZM110.382 163.037C110.382 163.314 110.605 163.537 110.882 163.537C111.158 163.537 111.382 163.314 111.382 163.037H110.382ZM111.382 166.112C111.382 165.836 111.158 165.612 110.882 165.612C110.605 165.612 110.382 165.836 110.382 166.112H111.382ZM110.382 167.137C110.382 167.413 110.605 167.637 110.882 167.637C111.158 167.637 111.382 167.413 111.382 167.137H110.382ZM111.382 170.211C111.382 169.935 111.158 169.711 110.882 169.711C110.605 169.711 110.382 169.935 110.382 170.211H111.382ZM110.382 171.236C110.382 171.512 110.605 171.736 110.882 171.736C111.158 171.736 111.382 171.512 111.382 171.236H110.382ZM111.382 174.31C111.382 174.034 111.158 173.81 110.882 173.81C110.605 173.81 110.382 174.034 110.382 174.31H111.382ZM110.382 175.335C110.382 175.611 110.605 175.835 110.882 175.835C111.158 175.835 111.382 175.611 111.382 175.335H110.382ZM111.382 178.41C111.382 178.133 111.158 177.91 110.882 177.91C110.605 177.91 110.382 178.133 110.382 178.41H111.382ZM110.382 179.434C110.382 179.711 110.605 179.934 110.882 179.934C111.158 179.934 111.382 179.711 111.382 179.434H110.382ZM111.382 182.509C111.382 182.233 111.158 182.009 110.882 182.009C110.605 182.009 110.382 182.233 110.382 182.509H111.382ZM110.382 183.534C110.382 183.81 110.605 184.034 110.882 184.034C111.158 184.034 111.382 183.81 111.382 183.534H110.382ZM111.382 186.608C111.382 186.332 111.158 186.108 110.882 186.108C110.605 186.108 110.382 186.332 110.382 186.608H111.382ZM110.382 187.633C110.382 187.909 110.605 188.133 110.882 188.133C111.158 188.133 111.382 187.909 111.382 187.633H110.382ZM111.382 190.707C111.382 190.431 111.158 190.207 110.882 190.207C110.605 190.207 110.382 190.431 110.382 190.707H111.382ZM110.408 191.758C110.434 192.033 110.679 192.234 110.954 192.208C111.229 192.181 111.43 191.936 111.403 191.662L110.408 191.758ZM112.403 194.074C112.227 193.861 111.912 193.83 111.699 194.005C111.486 194.181 111.455 194.496 111.63 194.709L112.403 194.074ZM112.392 195.471C112.606 195.647 112.921 195.616 113.096 195.402C113.271 195.189 113.24 194.874 113.027 194.699L112.392 195.471ZM115.44 195.698C115.165 195.672 114.92 195.873 114.894 196.148C114.867 196.422 115.068 196.667 115.343 196.694L115.44 195.698ZM116.377 196.72C116.653 196.72 116.877 196.496 116.877 196.22C116.877 195.944 116.653 195.72 116.377 195.72V196.72ZM119.348 195.72C119.072 195.72 118.848 195.944 118.848 196.22C118.848 196.496 119.072 196.72 119.348 196.72V195.72ZM120.339 196.72C120.615 196.72 120.839 196.496 120.839 196.22C120.839 195.944 120.615 195.72 120.339 195.72V196.72ZM123.311 195.72C123.034 195.72 122.811 195.944 122.811 196.22C122.811 196.496 123.034 196.72 123.311 196.72V195.72ZM124.301 196.72C124.577 196.72 124.801 196.496 124.801 196.22C124.801 195.944 124.577 195.72 124.301 195.72V196.72ZM127.273 195.72C126.997 195.72 126.773 195.944 126.773 196.22C126.773 196.496 126.997 196.72 127.273 196.72V195.72ZM128.263 196.72C128.539 196.72 128.763 196.496 128.763 196.22C128.763 195.944 128.539 195.72 128.263 195.72V196.72ZM131.235 195.72C130.959 195.72 130.735 195.944 130.735 196.22C130.735 196.496 130.959 196.72 131.235 196.72V195.72ZM132.225 196.72C132.502 196.72 132.725 196.496 132.725 196.22C132.725 195.944 132.502 195.72 132.225 195.72V196.72ZM135.197 195.72C134.921 195.72 134.697 195.944 134.697 196.22C134.697 196.496 134.921 196.72 135.197 196.72V195.72ZM136.188 196.72C136.464 196.72 136.688 196.496 136.688 196.22C136.688 195.944 136.464 195.72 136.188 195.72V196.72ZM139.159 195.72C138.883 195.72 138.659 195.944 138.659 196.22C138.659 196.496 138.883 196.72 139.159 196.72V195.72ZM140.15 196.72C140.426 196.72 140.65 196.496 140.65 196.22C140.65 195.944 140.426 195.72 140.15 195.72V196.72ZM143.121 195.72C142.845 195.72 142.621 195.944 142.621 196.22C142.621 196.496 142.845 196.72 143.121 196.72V195.72ZM144.112 196.72C144.388 196.72 144.612 196.496 144.612 196.22C144.612 195.944 144.388 195.72 144.112 195.72V196.72ZM147.084 195.72C146.807 195.72 146.584 195.944 146.584 196.22C146.584 196.496 146.807 196.72 147.084 196.72V195.72ZM148.074 196.72C148.35 196.72 148.574 196.496 148.574 196.22C148.574 195.944 148.35 195.72 148.074 195.72V196.72ZM151.046 195.72C150.77 195.72 150.546 195.944 150.546 196.22C150.546 196.496 150.77 196.72 151.046 196.72V195.72ZM152.036 196.72C152.312 196.72 152.536 196.496 152.536 196.22C152.536 195.944 152.312 195.72 152.036 195.72V196.72ZM155.008 195.72C154.732 195.72 154.508 195.944 154.508 196.22C154.508 196.496 154.732 196.72 155.008 196.72V195.72ZM155.998 196.72C156.275 196.72 156.498 196.496 156.498 196.22C156.498 195.944 156.275 195.72 155.998 195.72V196.72ZM158.97 195.72C158.694 195.72 158.47 195.944 158.47 196.22C158.47 196.496 158.694 196.72 158.97 196.72V195.72ZM159.961 196.72C160.237 196.72 160.461 196.496 160.461 196.22C160.461 195.944 160.237 195.72 159.961 195.72V196.72ZM162.932 195.72C162.656 195.72 162.432 195.944 162.432 196.22C162.432 196.496 162.656 196.72 162.932 196.72V195.72ZM163.923 196.72C164.199 196.72 164.423 196.496 164.423 196.22C164.423 195.944 164.199 195.72 163.923 195.72V196.72ZM166.894 195.72C166.618 195.72 166.394 195.944 166.394 196.22C166.394 196.496 166.618 196.72 166.894 196.72V195.72ZM167.885 196.72C168.161 196.72 168.385 196.496 168.385 196.22C168.385 195.944 168.161 195.72 167.885 195.72V196.72ZM170.857 195.72C170.58 195.72 170.357 195.944 170.357 196.22C170.357 196.496 170.58 196.72 170.857 196.72V195.72ZM72.0078 121.132H72.5371V120.132H72.0078V121.132ZM75.7128 121.132H76.7713V120.132H75.7128V121.132ZM79.947 121.132H81.0055V120.132H79.947V121.132ZM84.1812 121.132H85.2398V120.132H84.1812V121.132ZM88.4154 121.132H89.474V120.132H88.4154V121.132ZM92.6496 121.132H93.7082V120.132H92.6496V121.132ZM96.8839 121.132H97.9424V120.132H96.8839V121.132ZM101.118 121.132H102.177V120.132H101.118V121.132ZM105.352 121.132H105.882V120.132H105.352V121.132ZM105.882 121.132C106.031 121.132 106.178 121.139 106.323 121.153L106.42 120.158C106.243 120.141 106.063 120.132 105.882 120.132V121.132ZM108.736 122.153C108.964 122.34 109.173 122.549 109.36 122.777L110.133 122.142C109.905 121.864 109.649 121.609 109.371 121.38L108.736 122.153ZM110.36 125.19C110.374 125.335 110.382 125.483 110.382 125.632H111.382C111.382 125.45 111.373 125.271 111.355 125.093L110.36 125.19ZM110.382 125.632V126.144H111.382V125.632H110.382ZM110.382 129.219V130.243H111.382V129.219H110.382ZM110.382 133.318V134.343H111.382V133.318H110.382ZM110.382 137.417V138.442H111.382V137.417H110.382ZM110.382 141.516V142.541H111.382V141.516H110.382ZM110.382 145.616V146.64H111.382V145.616H110.382ZM110.382 149.715V150.74H111.382V149.715H110.382ZM110.382 153.814V154.839H111.382V153.814H110.382ZM110.382 157.913V158.938H111.382V157.913H110.382ZM110.382 162.013V163.037H111.382V162.013H110.382ZM110.382 166.112V167.137H111.382V166.112H110.382ZM110.382 170.211V171.236H111.382V170.211H110.382ZM110.382 174.31V175.335H111.382V174.31H110.382ZM110.382 178.41V179.434H111.382V178.41H110.382ZM110.382 182.509V183.534H111.382V182.509H110.382ZM110.382 186.608V187.633H111.382V186.608H110.382ZM110.382 190.707V191.22H111.382V190.707H110.382ZM110.382 191.22C110.382 191.401 110.39 191.581 110.408 191.758L111.403 191.662C111.389 191.516 111.382 191.369 111.382 191.22H110.382ZM111.63 194.709C111.859 194.987 112.114 195.243 112.392 195.471L113.027 194.699C112.799 194.511 112.59 194.302 112.403 194.074L111.63 194.709ZM115.343 196.694C115.52 196.711 115.7 196.72 115.882 196.72V195.72C115.732 195.72 115.585 195.712 115.44 195.698L115.343 196.694ZM115.882 196.72H116.377V195.72H115.882V196.72ZM119.348 196.72H120.339V195.72H119.348V196.72ZM123.311 196.72H124.301V195.72H123.311V196.72ZM127.273 196.72H128.263V195.72H127.273V196.72ZM131.235 196.72H132.225V195.72H131.235V196.72ZM135.197 196.72H136.188V195.72H135.197V196.72ZM139.159 196.72H140.15V195.72H139.159V196.72ZM143.121 196.72H144.112V195.72H143.121V196.72ZM147.084 196.72H148.074V195.72H147.084V196.72ZM151.046 196.72H152.036V195.72H151.046V196.72ZM155.008 196.72H155.998V195.72H155.008V196.72ZM158.97 196.72H159.961V195.72H158.97V196.72ZM162.932 196.72H163.923V195.72H162.932V196.72ZM166.894 196.72H167.885V195.72H166.894V196.72Z" fill="#7C3AED"/>
<path d="M179.271 268.209L174.271 265.323V271.096L179.271 268.209ZM49.4717 308.742C49.4717 308.466 49.2478 308.242 48.9717 308.242C48.6955 308.242 48.4717 308.466 48.4717 308.742H49.4717ZM48.4717 305.74C48.4717 306.016 48.6955 306.24 48.9717 306.24C49.2478 306.24 49.4717 306.016 49.4717 305.74H48.4717ZM49.4717 304.739C49.4717 304.463 49.2478 304.239 48.9717 304.239C48.6955 304.239 48.4717 304.463 48.4717 304.739H49.4717ZM48.4717 301.736C48.4717 302.012 48.6955 302.236 48.9717 302.236C49.2478 302.236 49.4717 302.012 49.4717 301.736H48.4717ZM49.4717 300.735C49.4717 300.459 49.2478 300.235 48.9717 300.235C48.6955 300.235 48.4717 300.459 48.4717 300.735H49.4717ZM48.4717 297.732C48.4717 298.008 48.6955 298.232 48.9717 298.232C49.2478 298.232 49.4717 298.008 49.4717 297.732H48.4717ZM49.4717 296.731C49.4717 296.455 49.2478 296.231 48.9717 296.231C48.6955 296.231 48.4717 296.455 48.4717 296.731H49.4717ZM48.4717 293.728C48.4717 294.005 48.6955 294.228 48.9717 294.228C49.2478 294.228 49.4717 294.005 49.4717 293.728H48.4717ZM49.4717 292.728C49.4717 292.451 49.2478 292.228 48.9717 292.228C48.6955 292.228 48.4717 292.451 48.4717 292.728H49.4717ZM48.4717 289.725C48.4717 290.001 48.6955 290.225 48.9717 290.225C49.2478 290.225 49.4717 290.001 49.4717 289.725H48.4717ZM49.4717 288.724C49.4717 288.448 49.2478 288.224 48.9717 288.224C48.6955 288.224 48.4717 288.448 48.4717 288.724H49.4717ZM48.4717 285.721C48.4717 285.997 48.6955 286.221 48.9717 286.221C49.2478 286.221 49.4717 285.997 49.4717 285.721H48.4717ZM49.4717 284.72C49.4717 284.444 49.2478 284.22 48.9717 284.22C48.6955 284.22 48.4717 284.444 48.4717 284.72H49.4717ZM48.4717 281.717C48.4717 281.994 48.6955 282.217 48.9717 282.217C49.2478 282.217 49.4717 281.994 49.4717 281.717H48.4717ZM49.4717 280.716C49.4717 280.44 49.2478 280.216 48.9717 280.216C48.6955 280.216 48.4717 280.44 48.4717 280.716H49.4717ZM48.4717 277.714C48.4717 277.99 48.6955 278.214 48.9717 278.214C49.2478 278.214 49.4717 277.99 49.4717 277.714H48.4717ZM49.4717 276.713C49.4717 276.437 49.2478 276.213 48.9717 276.213C48.6955 276.213 48.4717 276.437 48.4717 276.713H49.4717ZM48.4717 273.71C48.4717 273.986 48.6955 274.21 48.9717 274.21C49.2478 274.21 49.4717 273.986 49.4717 273.71H48.4717ZM49.4931 272.768C49.5198 272.493 49.3187 272.248 49.0438 272.222C48.769 272.195 48.5245 272.396 48.4978 272.671L49.4931 272.768ZM49.7202 269.72C49.5449 269.933 49.5757 270.248 49.7891 270.424C50.0024 270.599 50.3175 270.568 50.4928 270.355L49.7202 269.72ZM51.1171 269.731C51.3304 269.555 51.3613 269.24 51.186 269.027C51.0107 268.813 50.6956 268.783 50.4823 268.958L51.1171 269.731ZM53.433 267.736C53.1581 267.762 52.957 268.007 52.9838 268.282C53.0105 268.556 53.255 268.758 53.5298 268.731L53.433 267.736ZM54.4769 268.709C54.7531 268.709 54.9769 268.486 54.9769 268.209C54.9769 267.933 54.7531 267.709 54.4769 267.709V268.709ZM57.5083 267.709C57.2322 267.709 57.0083 267.933 57.0083 268.209C57.0083 268.486 57.2322 268.709 57.5083 268.709V267.709ZM58.5188 268.709C58.795 268.709 59.0188 268.486 59.0188 268.209C59.0188 267.933 58.795 267.709 58.5188 267.709V268.709ZM61.5503 267.709C61.2741 267.709 61.0503 267.933 61.0503 268.209C61.0503 268.486 61.2741 268.709 61.5503 268.709V267.709ZM62.5607 268.709C62.8369 268.709 63.0607 268.486 63.0607 268.209C63.0607 267.933 62.8369 267.709 62.5607 267.709V268.709ZM65.5922 267.709C65.316 267.709 65.0922 267.933 65.0922 268.209C65.0922 268.486 65.316 268.709 65.5922 268.709V267.709ZM66.6026 268.709C66.8788 268.709 67.1026 268.486 67.1026 268.209C67.1026 267.933 66.8788 267.709 66.6026 267.709V268.709ZM69.6341 267.709C69.3579 267.709 69.1341 267.933 69.1341 268.209C69.1341 268.486 69.3579 268.709 69.6341 268.709V267.709ZM70.6445 268.709C70.9207 268.709 71.1445 268.486 71.1445 268.209C71.1445 267.933 70.9207 267.709 70.6445 267.709V268.709ZM73.676 267.709C73.3998 267.709 73.176 267.933 73.176 268.209C73.176 268.486 73.3998 268.709 73.676 268.709V267.709ZM74.6864 268.709C74.9626 268.709 75.1864 268.486 75.1864 268.209C75.1864 267.933 74.9626 267.709 74.6864 267.709V268.709ZM77.7179 267.709C77.4417 267.709 77.2179 267.933 77.2179 268.209C77.2179 268.486 77.4417 268.709 77.7179 268.709V267.709ZM78.7284 268.709C79.0045 268.709 79.2284 268.486 79.2284 268.209C79.2284 267.933 79.0045 267.709 78.7284 267.709V268.709ZM81.7598 267.709C81.4836 267.709 81.2598 267.933 81.2598 268.209C81.2598 268.486 81.4836 268.709 81.7598 268.709V267.709ZM82.7703 268.709C83.0464 268.709 83.2703 268.486 83.2703 268.209C83.2703 267.933 83.0464 267.709 82.7703 267.709V268.709ZM85.8017 267.709C85.5255 267.709 85.3017 267.933 85.3017 268.209C85.3017 268.486 85.5255 268.709 85.8017 268.709V267.709ZM86.8122 268.709C87.0883 268.709 87.3122 268.486 87.3122 268.209C87.3122 267.933 87.0883 267.709 86.8122 267.709V268.709ZM89.8436 267.709C89.5675 267.709 89.3436 267.933 89.3436 268.209C89.3436 268.486 89.5675 268.709 89.8436 268.709V267.709ZM90.8541 268.709C91.1302 268.709 91.3541 268.486 91.3541 268.209C91.3541 267.933 91.1302 267.709 90.8541 267.709V268.709ZM93.8855 267.709C93.6094 267.709 93.3855 267.933 93.3855 268.209C93.3855 268.486 93.6094 268.709 93.8855 268.709V267.709ZM94.896 268.709C95.1721 268.709 95.396 268.486 95.396 268.209C95.396 267.933 95.1721 267.709 94.896 267.709V268.709ZM97.9274 267.709C97.6513 267.709 97.4274 267.933 97.4274 268.209C97.4274 268.486 97.6513 268.709 97.9274 268.709V267.709ZM98.9379 268.709C99.214 268.709 99.4379 268.486 99.4379 268.209C99.4379 267.933 99.214 267.709 98.9379 267.709V268.709ZM101.969 267.709C101.693 267.709 101.469 267.933 101.469 268.209C101.469 268.486 101.693 268.709 101.969 268.709V267.709ZM102.98 268.709C103.256 268.709 103.48 268.486 103.48 268.209C103.48 267.933 103.256 267.709 102.98 267.709V268.709ZM106.011 267.709C105.735 267.709 105.511 267.933 105.511 268.209C105.511 268.486 105.735 268.709 106.011 268.709V267.709ZM107.022 268.709C107.298 268.709 107.522 268.486 107.522 268.209C107.522 267.933 107.298 267.709 107.022 267.709V268.709ZM110.053 267.709C109.777 267.709 109.553 267.933 109.553 268.209C109.553 268.486 109.777 268.709 110.053 268.709V267.709ZM111.064 268.709C111.34 268.709 111.564 268.486 111.564 268.209C111.564 267.933 111.34 267.709 111.064 267.709V268.709ZM114.095 267.709C113.819 267.709 113.595 267.933 113.595 268.209C113.595 268.486 113.819 268.709 114.095 268.709V267.709ZM115.105 268.709C115.382 268.709 115.605 268.486 115.605 268.209C115.605 267.933 115.382 267.709 115.105 267.709V268.709ZM118.137 267.709C117.861 267.709 117.637 267.933 117.637 268.209C117.637 268.486 117.861 268.709 118.137 268.709V267.709ZM119.147 268.709C119.424 268.709 119.647 268.486 119.647 268.209C119.647 267.933 119.424 267.709 119.147 267.709V268.709ZM122.179 267.709C121.903 267.709 121.679 267.933 121.679 268.209C121.679 268.486 121.903 268.709 122.179 268.709V267.709ZM123.189 268.709C123.465 268.709 123.689 268.486 123.689 268.209C123.689 267.933 123.465 267.709 123.189 267.709V268.709ZM126.221 267.709C125.945 267.709 125.721 267.933 125.721 268.209C125.721 268.486 125.945 268.709 126.221 268.709V267.709ZM127.231 268.709C127.507 268.709 127.731 268.486 127.731 268.209C127.731 267.933 127.507 267.709 127.231 267.709V268.709ZM130.263 267.709C129.987 267.709 129.763 267.933 129.763 268.209C129.763 268.486 129.987 268.709 130.263 268.709V267.709ZM131.273 268.709C131.549 268.709 131.773 268.486 131.773 268.209C131.773 267.933 131.549 267.709 131.273 267.709V268.709ZM134.305 267.709C134.028 267.709 133.805 267.933 133.805 268.209C133.805 268.486 134.028 268.709 134.305 268.709V267.709ZM135.315 268.709C135.591 268.709 135.815 268.486 135.815 268.209C135.815 267.933 135.591 267.709 135.315 267.709V268.709ZM138.346 267.709C138.07 267.709 137.846 267.933 137.846 268.209C137.846 268.486 138.07 268.709 138.346 268.709V267.709ZM139.357 268.709C139.633 268.709 139.857 268.486 139.857 268.209C139.857 267.933 139.633 267.709 139.357 267.709V268.709ZM142.388 267.709C142.112 267.709 141.888 267.933 141.888 268.209C141.888 268.486 142.112 268.709 142.388 268.709V267.709ZM143.399 268.709C143.675 268.709 143.899 268.486 143.899 268.209C143.899 267.933 143.675 267.709 143.399 267.709V268.709ZM146.43 267.709C146.154 267.709 145.93 267.933 145.93 268.209C145.93 268.486 146.154 268.709 146.43 268.709V267.709ZM147.441 268.709C147.717 268.709 147.941 268.486 147.941 268.209C147.941 267.933 147.717 267.709 147.441 267.709V268.709ZM150.472 267.709C150.196 267.709 149.972 267.933 149.972 268.209C149.972 268.486 150.196 268.709 150.472 268.709V267.709ZM151.483 268.709C151.759 268.709 151.983 268.486 151.983 268.209C151.983 267.933 151.759 267.709 151.483 267.709V268.709ZM154.514 267.709C154.238 267.709 154.014 267.933 154.014 268.209C154.014 268.486 154.238 268.709 154.514 268.709V267.709ZM155.525 268.709C155.801 268.709 156.025 268.486 156.025 268.209C156.025 267.933 155.801 267.709 155.525 267.709V268.709ZM158.556 267.709C158.28 267.709 158.056 267.933 158.056 268.209C158.056 268.486 158.28 268.709 158.556 268.709V267.709ZM159.566 268.709C159.843 268.709 160.066 268.486 160.066 268.209C160.066 267.933 159.843 267.709 159.566 267.709V268.709ZM162.598 267.709C162.322 267.709 162.098 267.933 162.098 268.209C162.098 268.486 162.322 268.709 162.598 268.709V267.709ZM163.608 268.709C163.885 268.709 164.108 268.486 164.108 268.209C164.108 267.933 163.885 267.709 163.608 267.709V268.709ZM166.64 267.709C166.364 267.709 166.14 267.933 166.14 268.209C166.14 268.486 166.364 268.709 166.64 268.709V267.709ZM167.65 268.709C167.926 268.709 168.15 268.486 168.15 268.209C168.15 267.933 167.926 267.709 167.65 267.709V268.709ZM170.682 267.709C170.406 267.709 170.182 267.933 170.182 268.209C170.182 268.486 170.406 268.709 170.682 268.709V267.709ZM171.692 268.709C171.968 268.709 172.192 268.486 172.192 268.209C172.192 267.933 171.968 267.709 171.692 267.709V268.709ZM174.724 267.709C174.447 267.709 174.224 267.933 174.224 268.209C174.224 268.486 174.447 268.709 174.724 268.709V267.709ZM175.734 268.709C176.01 268.709 176.234 268.486 176.234 268.209C176.234 267.933 176.01 267.709 175.734 267.709V268.709ZM178.766 267.709C178.489 267.709 178.266 267.933 178.266 268.209C178.266 268.486 178.489 268.709 178.766 268.709V267.709ZM49.4717 309.243V308.742H48.4717V309.243H49.4717ZM49.4717 305.74V304.739H48.4717V305.74H49.4717ZM49.4717 301.736V300.735H48.4717V301.736H49.4717ZM49.4717 297.732V296.731H48.4717V297.732H49.4717ZM49.4717 293.728V292.728H48.4717V293.728H49.4717ZM49.4717 289.725V288.724H48.4717V289.725H49.4717ZM49.4717 285.721V284.72H48.4717V285.721H49.4717ZM49.4717 281.717V280.716H48.4717V281.717H49.4717ZM49.4717 277.714V276.713H48.4717V277.714H49.4717ZM49.4717 273.71V273.209H48.4717V273.71H49.4717ZM49.4717 273.209C49.4717 273.06 49.4789 272.913 49.4931 272.768L48.4978 272.671C48.4805 272.848 48.4717 273.028 48.4717 273.209H49.4717ZM50.4928 270.355C50.68 270.127 50.8892 269.918 51.1171 269.731L50.4823 268.958C50.2041 269.187 49.9487 269.442 49.7202 269.72L50.4928 270.355ZM53.5298 268.731C53.6751 268.717 53.8225 268.709 53.9717 268.709V267.709C53.7901 267.709 53.6103 267.718 53.433 267.736L53.5298 268.731ZM53.9717 268.709H54.4769V267.709H53.9717V268.709ZM57.5083 268.709H58.5188V267.709H57.5083V268.709ZM61.5503 268.709H62.5607V267.709H61.5503V268.709ZM65.5922 268.709H66.6026V267.709H65.5922V268.709ZM69.6341 268.709H70.6445V267.709H69.6341V268.709ZM73.676 268.709H74.6864V267.709H73.676V268.709ZM77.7179 268.709H78.7284V267.709H77.7179V268.709ZM81.7598 268.709H82.7703V267.709H81.7598V268.709ZM85.8017 268.709H86.8122V267.709H85.8017V268.709ZM89.8436 268.709H90.8541V267.709H89.8436V268.709ZM93.8855 268.709H94.896V267.709H93.8855V268.709ZM97.9274 268.709H98.9379V267.709H97.9274V268.709ZM101.969 268.709H102.98V267.709H101.969V268.709ZM106.011 268.709H107.022V267.709H106.011V268.709ZM110.053 268.709H111.064V267.709H110.053V268.709ZM114.095 268.709H115.105V267.709H114.095V268.709ZM118.137 268.709H119.147V267.709H118.137V268.709ZM122.179 268.709H123.189V267.709H122.179V268.709ZM126.221 268.709H127.231V267.709H126.221V268.709ZM130.263 268.709H131.273V267.709H130.263V268.709ZM134.305 268.709H135.315V267.709H134.305V268.709ZM138.346 268.709H139.357V267.709H138.346V268.709ZM142.388 268.709H143.399V267.709H142.388V268.709ZM146.43 268.709H147.441V267.709H146.43V268.709ZM150.472 268.709H151.483V267.709H150.472V268.709ZM154.514 268.709H155.525V267.709H154.514V268.709ZM158.556 268.709H159.566V267.709H158.556V268.709ZM162.598 268.709H163.608V267.709H162.598V268.709ZM166.64 268.709H167.65V267.709H166.64V268.709ZM170.682 268.709H171.692V267.709H170.682V268.709ZM174.724 268.709H175.734V267.709H174.724V268.709Z" fill="#7C3AED"/>
<path d="M285.094 305.644L282.207 310.644H287.981L285.094 305.644ZM257.499 413.406C257.775 413.406 257.999 413.182 257.999 412.906C257.999 412.63 257.775 412.406 257.499 412.406V413.406ZM260.384 412.406C260.108 412.406 259.884 412.63 259.884 412.906C259.884 413.182 260.108 413.406 260.384 413.406V412.406ZM261.345 413.406C261.621 413.406 261.845 413.182 261.845 412.906C261.845 412.63 261.621 412.406 261.345 412.406V413.406ZM264.23 412.406C263.954 412.406 263.73 412.63 263.73 412.906C263.73 413.182 263.954 413.406 264.23 413.406V412.406ZM265.191 413.406C265.467 413.406 265.691 413.182 265.691 412.906C265.691 412.63 265.467 412.406 265.191 412.406V413.406ZM268.076 412.406C267.799 412.406 267.576 412.63 267.576 412.906C267.576 413.182 267.799 413.406 268.076 413.406V412.406ZM269.037 413.406C269.313 413.406 269.537 413.182 269.537 412.906C269.537 412.63 269.313 412.406 269.037 412.406V413.406ZM271.921 412.406C271.645 412.406 271.421 412.63 271.421 412.906C271.421 413.182 271.645 413.406 271.921 413.406V412.406ZM272.883 413.406C273.159 413.406 273.383 413.182 273.383 412.906C273.383 412.63 273.159 412.406 272.883 412.406V413.406ZM275.767 412.406C275.491 412.406 275.267 412.63 275.267 412.906C275.267 413.182 275.491 413.406 275.767 413.406V412.406ZM276.729 413.406C277.005 413.406 277.229 413.182 277.229 412.906C277.229 412.63 277.005 412.406 276.729 412.406V413.406ZM279.613 412.406C279.337 412.406 279.113 412.63 279.113 412.906C279.113 413.182 279.337 413.406 279.613 413.406V412.406ZM280.633 413.38C280.908 413.354 281.109 413.109 281.082 412.834C281.055 412.559 280.811 412.358 280.536 412.385L280.633 413.38ZM282.949 411.385C282.735 411.561 282.704 411.876 282.88 412.089C283.055 412.302 283.37 412.333 283.583 412.158L282.949 411.385ZM284.346 411.396C284.521 411.182 284.49 410.867 284.277 410.692C284.063 410.517 283.748 410.548 283.573 410.761L284.346 411.396ZM284.573 408.348C284.546 408.623 284.747 408.868 285.022 408.894C285.297 408.921 285.541 408.72 285.568 408.445L284.573 408.348ZM285.594 407.415C285.594 407.139 285.37 406.915 285.094 406.915C284.818 406.915 284.594 407.139 284.594 407.415H285.594ZM284.594 404.465C284.594 404.741 284.818 404.965 285.094 404.965C285.37 404.965 285.594 404.741 285.594 404.465H284.594ZM285.594 403.482C285.594 403.205 285.37 402.982 285.094 402.982C284.818 402.982 284.594 403.205 284.594 403.482H285.594ZM284.594 400.532C284.594 400.808 284.818 401.032 285.094 401.032C285.37 401.032 285.594 400.808 285.594 400.532H284.594ZM285.594 399.548C285.594 399.272 285.37 399.048 285.094 399.048C284.818 399.048 284.594 399.272 284.594 399.548H285.594ZM284.594 396.598C284.594 396.875 284.818 397.098 285.094 397.098C285.37 397.098 285.594 396.875 285.594 396.598H284.594ZM285.594 395.615C285.594 395.339 285.37 395.115 285.094 395.115C284.818 395.115 284.594 395.339 284.594 395.615H285.594ZM284.594 392.665C284.594 392.941 284.818 393.165 285.094 393.165C285.37 393.165 285.594 392.941 285.594 392.665H284.594ZM285.594 391.682C285.594 391.406 285.37 391.182 285.094 391.182C284.818 391.182 284.594 391.406 284.594 391.682H285.594ZM284.594 388.732C284.594 389.008 284.818 389.232 285.094 389.232C285.37 389.232 285.594 389.008 285.594 388.732H284.594ZM285.594 387.749C285.594 387.473 285.37 387.249 285.094 387.249C284.818 387.249 284.594 387.473 284.594 387.749H285.594ZM284.594 384.799C284.594 385.075 284.818 385.299 285.094 385.299C285.37 385.299 285.594 385.075 285.594 384.799H284.594ZM285.594 383.816C285.594 383.539 285.37 383.316 285.094 383.316C284.818 383.316 284.594 383.539 284.594 383.816H285.594ZM284.594 380.866C284.594 381.142 284.818 381.366 285.094 381.366C285.37 381.366 285.594 381.142 285.594 380.866H284.594ZM285.594 379.882C285.594 379.606 285.37 379.382 285.094 379.382C284.818 379.382 284.594 379.606 284.594 379.882H285.594ZM284.594 376.933C284.594 377.209 284.818 377.433 285.094 377.433C285.37 377.433 285.594 377.209 285.594 376.933H284.594ZM285.594 375.949C285.594 375.673 285.37 375.449 285.094 375.449C284.818 375.449 284.594 375.673 284.594 375.949H285.594ZM284.594 372.999C284.594 373.275 284.818 373.499 285.094 373.499C285.37 373.499 285.594 373.275 285.594 372.999H284.594ZM285.594 372.016C285.594 371.74 285.37 371.516 285.094 371.516C284.818 371.516 284.594 371.74 284.594 372.016H285.594ZM284.594 369.066C284.594 369.342 284.818 369.566 285.094 369.566C285.37 369.566 285.594 369.342 285.594 369.066H284.594ZM285.594 368.083C285.594 367.807 285.37 367.583 285.094 367.583C284.818 367.583 284.594 367.807 284.594 368.083H285.594ZM284.594 365.133C284.594 365.409 284.818 365.633 285.094 365.633C285.37 365.633 285.594 365.409 285.594 365.133H284.594ZM285.594 364.15C285.594 363.874 285.37 363.65 285.094 363.65C284.818 363.65 284.594 363.874 284.594 364.15H285.594ZM284.594 361.2C284.594 361.476 284.818 361.7 285.094 361.7C285.37 361.7 285.594 361.476 285.594 361.2H284.594ZM285.594 360.216C285.594 359.94 285.37 359.716 285.094 359.716C284.818 359.716 284.594 359.94 284.594 360.216H285.594ZM284.594 357.267C284.594 357.543 284.818 357.767 285.094 357.767C285.37 357.767 285.594 357.543 285.594 357.267H284.594ZM285.594 356.283C285.594 356.007 285.37 355.783 285.094 355.783C284.818 355.783 284.594 356.007 284.594 356.283H285.594ZM284.594 353.333C284.594 353.61 284.818 353.833 285.094 353.833C285.37 353.833 285.594 353.61 285.594 353.333H284.594ZM285.594 352.35C285.594 352.074 285.37 351.85 285.094 351.85C284.818 351.85 284.594 352.074 284.594 352.35H285.594ZM284.594 349.4C284.594 349.676 284.818 349.9 285.094 349.9C285.37 349.9 285.594 349.676 285.594 349.4H284.594ZM285.594 348.417C285.594 348.141 285.37 347.917 285.094 347.917C284.818 347.917 284.594 348.141 284.594 348.417H285.594ZM284.594 345.467C284.594 345.743 284.818 345.967 285.094 345.967C285.37 345.967 285.594 345.743 285.594 345.467H284.594ZM285.594 344.484C285.594 344.208 285.37 343.984 285.094 343.984C284.818 343.984 284.594 344.208 284.594 344.484H285.594ZM284.594 341.534C284.594 341.81 284.818 342.034 285.094 342.034C285.37 342.034 285.594 341.81 285.594 341.534H284.594ZM285.594 340.551C285.594 340.274 285.37 340.051 285.094 340.051C284.818 340.051 284.594 340.274 284.594 340.551H285.594ZM284.594 337.601C284.594 337.877 284.818 338.101 285.094 338.101C285.37 338.101 285.594 337.877 285.594 337.601H284.594ZM285.594 336.617C285.594 336.341 285.37 336.117 285.094 336.117C284.818 336.117 284.594 336.341 284.594 336.617H285.594ZM284.594 333.668C284.594 333.944 284.818 334.168 285.094 334.168C285.37 334.168 285.594 333.944 285.594 333.668H284.594ZM285.594 332.684C285.594 332.408 285.37 332.184 285.094 332.184C284.818 332.184 284.594 332.408 284.594 332.684H285.594ZM284.594 329.734C284.594 330.01 284.818 330.234 285.094 330.234C285.37 330.234 285.594 330.01 285.594 329.734H284.594ZM285.594 328.751C285.594 328.475 285.37 328.251 285.094 328.251C284.818 328.251 284.594 328.475 284.594 328.751H285.594ZM284.594 325.801C284.594 326.077 284.818 326.301 285.094 326.301C285.37 326.301 285.594 326.077 285.594 325.801H284.594ZM285.594 324.818C285.594 324.542 285.37 324.318 285.094 324.318C284.818 324.318 284.594 324.542 284.594 324.818H285.594ZM284.594 321.868C284.594 322.144 284.818 322.368 285.094 322.368C285.37 322.368 285.594 322.144 285.594 321.868H284.594ZM285.594 320.885C285.594 320.608 285.37 320.385 285.094 320.385C284.818 320.385 284.594 320.608 284.594 320.885H285.594ZM284.594 317.935C284.594 318.211 284.818 318.435 285.094 318.435C285.37 318.435 285.594 318.211 285.594 317.935H284.594ZM285.594 316.951C285.594 316.675 285.37 316.451 285.094 316.451C284.818 316.451 284.594 316.675 284.594 316.951H285.594ZM284.594 314.002C284.594 314.278 284.818 314.502 285.094 314.502C285.37 314.502 285.594 314.278 285.594 314.002H284.594ZM285.594 313.018C285.594 312.742 285.37 312.518 285.094 312.518C284.818 312.518 284.594 312.742 284.594 313.018H285.594ZM284.594 310.068C284.594 310.345 284.818 310.568 285.094 310.568C285.37 310.568 285.594 310.345 285.594 310.068H284.594ZM285.594 309.085C285.594 308.809 285.37 308.585 285.094 308.585C284.818 308.585 284.594 308.809 284.594 309.085H285.594ZM284.594 306.135C284.594 306.411 284.818 306.635 285.094 306.635C285.37 306.635 285.594 306.411 285.594 306.135H284.594ZM257.019 413.406H257.499V412.406H257.019V413.406ZM260.384 413.406H261.345V412.406H260.384V413.406ZM264.23 413.406H265.191V412.406H264.23V413.406ZM268.076 413.406H269.037V412.406H268.076V413.406ZM271.921 413.406H272.883V412.406H271.921V413.406ZM275.767 413.406H276.729V412.406H275.767V413.406ZM279.613 413.406H280.094V412.406H279.613V413.406ZM280.094 413.406C280.276 413.406 280.455 413.398 280.633 413.38L280.536 412.385C280.391 412.399 280.243 412.406 280.094 412.406V413.406ZM283.583 412.158C283.862 411.929 284.117 411.674 284.346 411.396L283.573 410.761C283.386 410.989 283.177 411.198 282.949 411.385L283.583 412.158ZM285.568 408.445C285.585 408.268 285.594 408.088 285.594 407.906H284.594C284.594 408.056 284.587 408.203 284.573 408.348L285.568 408.445ZM285.594 407.906V407.415H284.594V407.906H285.594ZM285.594 404.465V403.482H284.594V404.465H285.594ZM285.594 400.532V399.548H284.594V400.532H285.594ZM285.594 396.598V395.615H284.594V396.598H285.594ZM285.594 392.665V391.682H284.594V392.665H285.594ZM285.594 388.732V387.749H284.594V388.732H285.594ZM285.594 384.799V383.816H284.594V384.799H285.594ZM285.594 380.866V379.882H284.594V380.866H285.594ZM285.594 376.933V375.949H284.594V376.933H285.594ZM285.594 372.999V372.016H284.594V372.999H285.594ZM285.594 369.066V368.083H284.594V369.066H285.594ZM285.594 365.133V364.15H284.594V365.133H285.594ZM285.594 361.2V360.216H284.594V361.2H285.594ZM285.594 357.267V356.283H284.594V357.267H285.594ZM285.594 353.333V352.35H284.594V353.333H285.594ZM285.594 349.4V348.417H284.594V349.4H285.594ZM285.594 345.467V344.484H284.594V345.467H285.594ZM285.594 341.534V340.551H284.594V341.534H285.594ZM285.594 337.601V336.617H284.594V337.601H285.594ZM285.594 333.668V332.684H284.594V333.668H285.594ZM285.594 329.734V328.751H284.594V329.734H285.594ZM285.594 325.801V324.818H284.594V325.801H285.594ZM285.594 321.868V320.885H284.594V321.868H285.594ZM285.594 317.935V316.951H284.594V317.935H285.594ZM285.594 314.002V313.018H284.594V314.002H285.594ZM285.594 310.068V309.085H284.594V310.068H285.594Z" fill="#7C3AED"/>
<path d="M337.646 230.056L342.646 232.942V227.169L337.646 230.056ZM338.141 230.556C338.417 230.556 338.641 230.332 338.641 230.056C338.641 229.78 338.417 229.556 338.141 229.556V230.556ZM341.111 229.556C340.835 229.556 340.611 229.78 340.611 230.056C340.611 230.332 340.835 230.556 341.111 230.556V229.556ZM342.101 230.556C342.378 230.556 342.601 230.332 342.601 230.056C342.601 229.78 342.378 229.556 342.101 229.556V230.556ZM345.072 229.556C344.796 229.556 344.572 229.78 344.572 230.056C344.572 230.332 344.796 230.556 345.072 230.556V229.556ZM346.062 230.556C346.338 230.556 346.562 230.332 346.562 230.056C346.562 229.78 346.338 229.556 346.062 229.556V230.556ZM349.033 229.556C348.757 229.556 348.533 229.78 348.533 230.056C348.533 230.332 348.757 230.556 349.033 230.556V229.556ZM350.023 230.556C350.299 230.556 350.523 230.332 350.523 230.056C350.523 229.78 350.299 229.556 350.023 229.556V230.556ZM352.993 229.556C352.717 229.556 352.493 229.78 352.493 230.056C352.493 230.332 352.717 230.556 352.993 230.556V229.556ZM353.984 230.556C354.26 230.556 354.484 230.332 354.484 230.056C354.484 229.78 354.26 229.556 353.984 229.556V230.556ZM356.954 229.556C356.678 229.556 356.454 229.78 356.454 230.056C356.454 230.332 356.678 230.556 356.954 230.556V229.556ZM357.944 230.556C358.221 230.556 358.444 230.332 358.444 230.056C358.444 229.78 358.221 229.556 357.944 229.556V230.556ZM360.915 229.556C360.639 229.556 360.415 229.78 360.415 230.056C360.415 230.332 360.639 230.556 360.915 230.556V229.556ZM361.905 230.556C362.181 230.556 362.405 230.332 362.405 230.056C362.405 229.78 362.181 229.556 361.905 229.556V230.556ZM364.876 229.556C364.6 229.556 364.376 229.78 364.376 230.056C364.376 230.332 364.6 230.556 364.876 230.556V229.556ZM365.866 230.556C366.142 230.556 366.366 230.332 366.366 230.056C366.366 229.78 366.142 229.556 365.866 229.556V230.556ZM368.837 229.556C368.56 229.556 368.337 229.78 368.337 230.056C368.337 230.332 368.56 230.556 368.837 230.556V229.556ZM369.827 230.556C370.103 230.556 370.327 230.332 370.327 230.056C370.327 229.78 370.103 229.556 369.827 229.556V230.556ZM372.797 229.556C372.521 229.556 372.297 229.78 372.297 230.056C372.297 230.332 372.521 230.556 372.797 230.556V229.556ZM373.787 230.556C374.064 230.556 374.287 230.332 374.287 230.056C374.287 229.78 374.064 229.556 373.787 229.556V230.556ZM376.758 229.556C376.482 229.556 376.258 229.78 376.258 230.056C376.258 230.332 376.482 230.556 376.758 230.556V229.556ZM377.748 230.556C378.024 230.556 378.248 230.332 378.248 230.056C378.248 229.78 378.024 229.556 377.748 229.556V230.556ZM380.719 229.556C380.443 229.556 380.219 229.78 380.219 230.056C380.219 230.332 380.443 230.556 380.719 230.556V229.556ZM381.709 230.556C381.985 230.556 382.209 230.332 382.209 230.056C382.209 229.78 381.985 229.556 381.709 229.556V230.556ZM384.68 229.556C384.403 229.556 384.18 229.78 384.18 230.056C384.18 230.332 384.403 230.556 384.68 230.556V229.556ZM385.67 230.556C385.946 230.556 386.17 230.332 386.17 230.056C386.17 229.78 385.946 229.556 385.67 229.556V230.556ZM388.64 229.556C388.364 229.556 388.14 229.78 388.14 230.056C388.14 230.332 388.364 230.556 388.64 230.556V229.556ZM389.631 230.556C389.907 230.556 390.131 230.332 390.131 230.056C390.131 229.78 389.907 229.556 389.631 229.556V230.556ZM392.601 229.556C392.325 229.556 392.101 229.78 392.101 230.056C392.101 230.332 392.325 230.556 392.601 230.556V229.556ZM393.591 230.556C393.867 230.556 394.091 230.332 394.091 230.056C394.091 229.78 393.867 229.556 393.591 229.556V230.556ZM396.562 229.556C396.286 229.556 396.062 229.78 396.062 230.056C396.062 230.332 396.286 230.556 396.562 230.556V229.556ZM397.552 230.556C397.828 230.556 398.052 230.332 398.052 230.056C398.052 229.78 397.828 229.556 397.552 229.556V230.556ZM400.523 229.556C400.247 229.556 400.023 229.78 400.023 230.056C400.023 230.332 400.247 230.556 400.523 230.556V229.556ZM401.513 230.556C401.789 230.556 402.013 230.332 402.013 230.056C402.013 229.78 401.789 229.556 401.513 229.556V230.556ZM404.483 229.556C404.207 229.556 403.983 229.78 403.983 230.056C403.983 230.332 404.207 230.556 404.483 230.556V229.556ZM405.474 230.556C405.75 230.556 405.974 230.332 405.974 230.056C405.974 229.78 405.75 229.556 405.474 229.556V230.556ZM408.444 229.556C408.168 229.556 407.944 229.78 407.944 230.056C407.944 230.332 408.168 230.556 408.444 230.556V229.556ZM409.434 230.556C409.711 230.556 409.934 230.332 409.934 230.056C409.934 229.78 409.711 229.556 409.434 229.556V230.556ZM412.405 229.556C412.129 229.556 411.905 229.78 411.905 230.056C411.905 230.332 412.129 230.556 412.405 230.556V229.556ZM413.395 230.556C413.671 230.556 413.895 230.332 413.895 230.056C413.895 229.78 413.671 229.556 413.395 229.556V230.556ZM416.366 229.556C416.09 229.556 415.866 229.78 415.866 230.056C415.866 230.332 416.09 230.556 416.366 230.556V229.556ZM417.356 230.556C417.632 230.556 417.856 230.332 417.856 230.056C417.856 229.78 417.632 229.556 417.356 229.556V230.556ZM420.326 229.556C420.05 229.556 419.826 229.78 419.826 230.056C419.826 230.332 420.05 230.556 420.326 230.556V229.556ZM421.317 230.556C421.593 230.556 421.817 230.332 421.817 230.056C421.817 229.78 421.593 229.556 421.317 229.556V230.556ZM424.287 229.556C424.011 229.556 423.787 229.78 423.787 230.056C423.787 230.332 424.011 230.556 424.287 230.556V229.556ZM425.277 230.556C425.554 230.556 425.777 230.332 425.777 230.056C425.777 229.78 425.554 229.556 425.277 229.556V230.556ZM428.248 229.556C427.972 229.556 427.748 229.78 427.748 230.056C427.748 230.332 427.972 230.556 428.248 230.556V229.556ZM429.238 230.556C429.514 230.556 429.738 230.332 429.738 230.056C429.738 229.78 429.514 229.556 429.238 229.556V230.556ZM432.209 229.556C431.933 229.556 431.709 229.78 431.709 230.056C431.709 230.332 431.933 230.556 432.209 230.556V229.556ZM433.199 230.556C433.475 230.556 433.699 230.332 433.699 230.056C433.699 229.78 433.475 229.556 433.199 229.556V230.556ZM436.17 229.556C435.893 229.556 435.67 229.78 435.67 230.056C435.67 230.332 435.893 230.556 436.17 230.556V229.556ZM437.16 230.556C437.436 230.556 437.66 230.332 437.66 230.056C437.66 229.78 437.436 229.556 437.16 229.556V230.556ZM440.13 229.556C439.854 229.556 439.63 229.78 439.63 230.056C439.63 230.332 439.854 230.556 440.13 230.556V229.556ZM441.12 230.556C441.397 230.556 441.62 230.332 441.62 230.056C441.62 229.78 441.397 229.556 441.12 229.556V230.556ZM444.091 229.556C443.815 229.556 443.591 229.78 443.591 230.056C443.591 230.332 443.815 230.556 444.091 230.556V229.556ZM445.081 230.556C445.357 230.556 445.581 230.332 445.581 230.056C445.581 229.78 445.357 229.556 445.081 229.556V230.556ZM448.052 229.556C447.776 229.556 447.552 229.78 447.552 230.056C447.552 230.332 447.776 230.556 448.052 230.556V229.556ZM448.989 230.577C449.264 230.604 449.508 230.403 449.535 230.128C449.562 229.853 449.36 229.608 449.086 229.582L448.989 230.577ZM452.036 230.804C451.823 230.629 451.508 230.66 451.333 230.873C451.157 231.086 451.188 231.401 451.402 231.577L452.036 230.804ZM452.026 232.201C452.201 232.414 452.516 232.445 452.73 232.27C452.943 232.095 452.974 231.78 452.798 231.566L452.026 232.201ZM454.021 234.517C453.994 234.242 453.75 234.041 453.475 234.068C453.2 234.094 452.999 234.339 453.026 234.614L454.021 234.517ZM453.047 235.538C453.047 235.814 453.271 236.038 453.547 236.038C453.823 236.038 454.047 235.814 454.047 235.538H453.047ZM454.047 238.433C454.047 238.156 453.823 237.933 453.547 237.933C453.271 237.933 453.047 238.156 453.047 238.433H454.047ZM453.047 239.397C453.047 239.674 453.271 239.897 453.547 239.897C453.823 239.897 454.047 239.674 454.047 239.397H453.047ZM454.047 242.292C454.047 242.016 453.823 241.792 453.547 241.792C453.271 241.792 453.047 242.016 453.047 242.292H454.047ZM453.047 243.257C453.047 243.533 453.271 243.757 453.547 243.757C453.823 243.757 454.047 243.533 454.047 243.257H453.047ZM454.047 246.151C454.047 245.875 453.823 245.651 453.547 245.651C453.271 245.651 453.047 245.875 453.047 246.151H454.047ZM453.047 247.116C453.047 247.392 453.271 247.616 453.547 247.616C453.823 247.616 454.047 247.392 454.047 247.116H453.047ZM454.047 250.011C454.047 249.734 453.823 249.511 453.547 249.511C453.271 249.511 453.047 249.734 453.047 250.011H454.047ZM453.047 250.975C453.047 251.252 453.271 251.475 453.547 251.475C453.823 251.475 454.047 251.252 454.047 250.975H453.047ZM454.047 253.87C454.047 253.594 453.823 253.37 453.547 253.37C453.271 253.37 453.047 253.594 453.047 253.87H454.047ZM453.047 254.835C453.047 255.111 453.271 255.335 453.547 255.335C453.823 255.335 454.047 255.111 454.047 254.835H453.047ZM454.047 257.729C454.047 257.453 453.823 257.229 453.547 257.229C453.271 257.229 453.047 257.453 453.047 257.729H454.047ZM453.047 258.694C453.047 258.97 453.271 259.194 453.547 259.194C453.823 259.194 454.047 258.97 454.047 258.694H453.047ZM454.047 261.589C454.047 261.312 453.823 261.089 453.547 261.089C453.271 261.089 453.047 261.312 453.047 261.589H454.047ZM453.047 262.553C453.047 262.829 453.271 263.053 453.547 263.053C453.823 263.053 454.047 262.829 454.047 262.553H453.047ZM454.047 265.448C454.047 265.172 453.823 264.948 453.547 264.948C453.271 264.948 453.047 265.172 453.047 265.448H454.047ZM453.047 266.413C453.047 266.689 453.271 266.913 453.547 266.913C453.823 266.913 454.047 266.689 454.047 266.413H453.047ZM454.047 269.307C454.047 269.031 453.823 268.807 453.547 268.807C453.271 268.807 453.047 269.031 453.047 269.307H454.047ZM453.047 270.272C453.047 270.548 453.271 270.772 453.547 270.772C453.823 270.772 454.047 270.548 454.047 270.272H453.047ZM454.047 273.166C454.047 272.89 453.823 272.666 453.547 272.666C453.271 272.666 453.047 272.89 453.047 273.166H454.047ZM453.047 274.131C453.047 274.407 453.271 274.631 453.547 274.631C453.823 274.631 454.047 274.407 454.047 274.131H453.047ZM454.047 277.026C454.047 276.75 453.823 276.526 453.547 276.526C453.271 276.526 453.047 276.75 453.047 277.026H454.047ZM453.047 277.991C453.047 278.267 453.271 278.491 453.547 278.491C453.823 278.491 454.047 278.267 454.047 277.991H453.047ZM454.047 280.885C454.047 280.609 453.823 280.385 453.547 280.385C453.271 280.385 453.047 280.609 453.047 280.885H454.047ZM453.047 281.85C453.047 282.126 453.271 282.35 453.547 282.35C453.823 282.35 454.047 282.126 454.047 281.85H453.047ZM454.047 284.744C454.047 284.468 453.823 284.244 453.547 284.244C453.271 284.244 453.047 284.468 453.047 284.744H454.047ZM453.047 285.709C453.047 285.985 453.271 286.209 453.547 286.209C453.823 286.209 454.047 285.985 454.047 285.709H453.047ZM454.047 288.604C454.047 288.328 453.823 288.104 453.547 288.104C453.271 288.104 453.047 288.328 453.047 288.604H454.047ZM341.111 230.556H342.101V229.556H341.111V230.556ZM345.072 230.556H346.062V229.556H345.072V230.556ZM349.033 230.556H350.023V229.556H349.033V230.556ZM352.993 230.556H353.984V229.556H352.993V230.556ZM356.954 230.556H357.944V229.556H356.954V230.556ZM360.915 230.556H361.905V229.556H360.915V230.556ZM364.876 230.556H365.866V229.556H364.876V230.556ZM368.837 230.556H369.827V229.556H368.837V230.556ZM372.797 230.556H373.787V229.556H372.797V230.556ZM376.758 230.556H377.748V229.556H376.758V230.556ZM380.719 230.556H381.709V229.556H380.719V230.556ZM384.68 230.556H385.67V229.556H384.68V230.556ZM388.64 230.556H389.631V229.556H388.64V230.556ZM392.601 230.556H393.591V229.556H392.601V230.556ZM396.562 230.556H397.552V229.556H396.562V230.556ZM400.523 230.556H401.513V229.556H400.523V230.556ZM404.483 230.556H405.474V229.556H404.483V230.556ZM408.444 230.556H409.434V229.556H408.444V230.556ZM412.405 230.556H413.395V229.556H412.405V230.556ZM416.366 230.556H417.356V229.556H416.366V230.556ZM420.326 230.556H421.317V229.556H420.326V230.556ZM424.287 230.556H425.277V229.556H424.287V230.556ZM428.248 230.556H429.238V229.556H428.248V230.556ZM432.209 230.556H433.199V229.556H432.209V230.556ZM436.17 230.556H437.16V229.556H436.17V230.556ZM440.13 230.556H441.12V229.556H440.13V230.556ZM444.091 230.556H445.081V229.556H444.091V230.556ZM448.052 230.556H448.547V229.556H448.052V230.556ZM448.547 230.556C448.696 230.556 448.844 230.563 448.989 230.577L449.086 229.582C448.908 229.564 448.729 229.556 448.547 229.556V230.556ZM451.402 231.577C451.629 231.764 451.839 231.973 452.026 232.201L452.798 231.566C452.57 231.288 452.315 231.033 452.036 230.804L451.402 231.577ZM453.026 234.614C453.04 234.759 453.047 234.906 453.047 235.056H454.047C454.047 234.874 454.038 234.694 454.021 234.517L453.026 234.614ZM453.047 235.056V235.538H454.047V235.056H453.047ZM453.047 238.433V239.397H454.047V238.433H453.047ZM453.047 242.292V243.257H454.047V242.292H453.047ZM453.047 246.151V247.116H454.047V246.151H453.047ZM453.047 250.011V250.975H454.047V250.011H453.047ZM453.047 253.87V254.835H454.047V253.87H453.047ZM453.047 257.729V258.694H454.047V257.729H453.047ZM453.047 261.589V262.553H454.047V261.589H453.047ZM453.047 265.448V266.413H454.047V265.448H453.047ZM453.047 269.307V270.272H454.047V269.307H453.047ZM453.047 273.166V274.131H454.047V273.166H453.047ZM453.047 277.026V277.991H454.047V277.026H453.047ZM453.047 280.885V281.85H454.047V280.885H453.047ZM453.047 284.744V285.709H454.047V284.744H453.047ZM453.047 288.604V289.086H454.047V288.604H453.047Z" fill="#7C3AED"/>
<path d="M334.766 199.101L339.766 201.987V196.214L334.766 199.101ZM335.261 199.601C335.537 199.601 335.761 199.377 335.761 199.101C335.761 198.825 335.537 198.601 335.261 198.601V199.601ZM338.231 198.601C337.955 198.601 337.731 198.825 337.731 199.101C337.731 199.377 337.955 199.601 338.231 199.601V198.601ZM339.221 199.601C339.497 199.601 339.721 199.377 339.721 199.101C339.721 198.825 339.497 198.601 339.221 198.601V199.601ZM342.192 198.601C341.915 198.601 341.692 198.825 341.692 199.101C341.692 199.377 341.915 199.601 342.192 199.601V198.601ZM343.182 199.601C343.458 199.601 343.682 199.377 343.682 199.101C343.682 198.825 343.458 198.601 343.182 198.601V199.601ZM346.152 198.601C345.876 198.601 345.652 198.825 345.652 199.101C345.652 199.377 345.876 199.601 346.152 199.601V198.601ZM347.142 199.601C347.418 199.601 347.642 199.377 347.642 199.101C347.642 198.825 347.418 198.601 347.142 198.601V199.601ZM350.113 198.601C349.836 198.601 349.613 198.825 349.613 199.101C349.613 199.377 349.836 199.601 350.113 199.601V198.601ZM351.103 199.601C351.379 199.601 351.603 199.377 351.603 199.101C351.603 198.825 351.379 198.601 351.103 198.601V199.601ZM354.073 198.601C353.797 198.601 353.573 198.825 353.573 199.101C353.573 199.377 353.797 199.601 354.073 199.601V198.601ZM355.063 199.601C355.339 199.601 355.563 199.377 355.563 199.101C355.563 198.825 355.339 198.601 355.063 198.601V199.601ZM358.034 198.601C357.758 198.601 357.534 198.825 357.534 199.101C357.534 199.377 357.758 199.601 358.034 199.601V198.601ZM359.024 199.601C359.3 199.601 359.524 199.377 359.524 199.101C359.524 198.825 359.3 198.601 359.024 198.601V199.601ZM361.994 198.601C361.718 198.601 361.494 198.825 361.494 199.101C361.494 199.377 361.718 199.601 361.994 199.601V198.601ZM362.984 199.601C363.26 199.601 363.484 199.377 363.484 199.101C363.484 198.825 363.26 198.601 362.984 198.601V199.601ZM365.955 198.601C365.679 198.601 365.455 198.825 365.455 199.101C365.455 199.377 365.679 199.601 365.955 199.601V198.601ZM366.945 199.601C367.221 199.601 367.445 199.377 367.445 199.101C367.445 198.825 367.221 198.601 366.945 198.601V199.601ZM369.915 198.601C369.639 198.601 369.415 198.825 369.415 199.101C369.415 199.377 369.639 199.601 369.915 199.601V198.601ZM370.905 199.601C371.181 199.601 371.405 199.377 371.405 199.101C371.405 198.825 371.181 198.601 370.905 198.601V199.601ZM373.876 198.601C373.6 198.601 373.376 198.825 373.376 199.101C373.376 199.377 373.6 199.601 373.876 199.601V198.601ZM374.866 199.601C375.142 199.601 375.366 199.377 375.366 199.101C375.366 198.825 375.142 198.601 374.866 198.601V199.601ZM377.836 198.601C377.56 198.601 377.336 198.825 377.336 199.101C377.336 199.377 377.56 199.601 377.836 199.601V198.601ZM378.826 199.601C379.103 199.601 379.326 199.377 379.326 199.101C379.326 198.825 379.103 198.601 378.826 198.601V199.601ZM381.797 198.601C381.521 198.601 381.297 198.825 381.297 199.101C381.297 199.377 381.521 199.601 381.797 199.601V198.601ZM382.787 199.601C383.063 199.601 383.287 199.377 383.287 199.101C383.287 198.825 383.063 198.601 382.787 198.601V199.601ZM385.757 198.601C385.481 198.601 385.257 198.825 385.257 199.101C385.257 199.377 385.481 199.601 385.757 199.601V198.601ZM386.747 199.601C387.024 199.601 387.247 199.377 387.247 199.101C387.247 198.825 387.024 198.601 386.747 198.601V199.601ZM389.718 198.601C389.442 198.601 389.218 198.825 389.218 199.101C389.218 199.377 389.442 199.601 389.718 199.601V198.601ZM390.708 199.601C390.984 199.601 391.208 199.377 391.208 199.101C391.208 198.825 390.984 198.601 390.708 198.601V199.601ZM393.678 198.601C393.402 198.601 393.178 198.825 393.178 199.101C393.178 199.377 393.402 199.601 393.678 199.601V198.601ZM394.668 199.601C394.945 199.601 395.168 199.377 395.168 199.101C395.168 198.825 394.945 198.601 394.668 198.601V199.601ZM397.639 198.601C397.363 198.601 397.139 198.825 397.139 199.101C397.139 199.377 397.363 199.601 397.639 199.601V198.601ZM398.629 199.601C398.905 199.601 399.129 199.377 399.129 199.101C399.129 198.825 398.905 198.601 398.629 198.601V199.601ZM401.599 198.601C401.323 198.601 401.099 198.825 401.099 199.101C401.099 199.377 401.323 199.601 401.599 199.601V198.601ZM402.589 199.601C402.866 199.601 403.089 199.377 403.089 199.101C403.089 198.825 402.866 198.601 402.589 198.601V199.601ZM405.56 198.601C405.284 198.601 405.06 198.825 405.06 199.101C405.06 199.377 405.284 199.601 405.56 199.601V198.601ZM406.55 199.601C406.826 199.601 407.05 199.377 407.05 199.101C407.05 198.825 406.826 198.601 406.55 198.601V199.601ZM409.52 198.601C409.244 198.601 409.02 198.825 409.02 199.101C409.02 199.377 409.244 199.601 409.52 199.601V198.601ZM410.51 199.601C410.787 199.601 411.01 199.377 411.01 199.101C411.01 198.825 410.787 198.601 410.51 198.601V199.601ZM413.481 198.601C413.205 198.601 412.981 198.825 412.981 199.101C412.981 199.377 413.205 199.601 413.481 199.601V198.601ZM414.471 199.601C414.747 199.601 414.971 199.377 414.971 199.101C414.971 198.825 414.747 198.601 414.471 198.601V199.601ZM417.441 198.601C417.165 198.601 416.941 198.825 416.941 199.101C416.941 199.377 417.165 199.601 417.441 199.601V198.601ZM418.432 199.601C418.708 199.601 418.932 199.377 418.932 199.101C418.932 198.825 418.708 198.601 418.432 198.601V199.601ZM421.402 198.601C421.126 198.601 420.902 198.825 420.902 199.101C420.902 199.377 421.126 199.601 421.402 199.601V198.601ZM422.392 199.601C422.668 199.601 422.892 199.377 422.892 199.101C422.892 198.825 422.668 198.601 422.392 198.601V199.601ZM425.362 198.601C425.086 198.601 424.862 198.825 424.862 199.101C424.862 199.377 425.086 199.601 425.362 199.601V198.601ZM426.353 199.601C426.629 199.601 426.853 199.377 426.853 199.101C426.853 198.825 426.629 198.601 426.353 198.601V199.601ZM429.323 198.601C429.047 198.601 428.823 198.825 428.823 199.101C428.823 199.377 429.047 199.601 429.323 199.601V198.601ZM430.313 199.601C430.589 199.601 430.813 199.377 430.813 199.101C430.813 198.825 430.589 198.601 430.313 198.601V199.601ZM433.283 198.601C433.007 198.601 432.783 198.825 432.783 199.101C432.783 199.377 433.007 199.601 433.283 199.601V198.601ZM434.274 199.601C434.55 199.601 434.774 199.377 434.774 199.101C434.774 198.825 434.55 198.601 434.274 198.601V199.601ZM437.244 198.601C436.968 198.601 436.744 198.825 436.744 199.101C436.744 199.377 436.968 199.601 437.244 199.601V198.601ZM438.234 199.601C438.51 199.601 438.734 199.377 438.734 199.101C438.734 198.825 438.51 198.601 438.234 198.601V199.601ZM441.205 198.601C440.928 198.601 440.705 198.825 440.705 199.101C440.705 199.377 440.928 199.601 441.205 199.601V198.601ZM442.195 199.601C442.471 199.601 442.695 199.377 442.695 199.101C442.695 198.825 442.471 198.601 442.195 198.601V199.601ZM445.165 198.601C444.889 198.601 444.665 198.825 444.665 199.101C444.665 199.377 444.889 199.601 445.165 199.601V198.601ZM446.155 199.601C446.431 199.601 446.655 199.377 446.655 199.101C446.655 198.825 446.431 198.601 446.155 198.601V199.601ZM449.126 198.601C448.849 198.601 448.626 198.825 448.626 199.101C448.626 199.377 448.849 199.601 449.126 199.601V198.601ZM450.116 199.601C450.392 199.601 450.616 199.377 450.616 199.101C450.616 198.825 450.392 198.601 450.116 198.601V199.601ZM453.086 198.601C452.81 198.601 452.586 198.825 452.586 199.101C452.586 199.377 452.81 199.601 453.086 199.601V198.601ZM454.076 199.601C454.352 199.601 454.576 199.377 454.576 199.101C454.576 198.825 454.352 198.601 454.076 198.601V199.601ZM457.047 198.601C456.77 198.601 456.547 198.825 456.547 199.101C456.547 199.377 456.77 199.601 457.047 199.601V198.601ZM458.037 199.601C458.313 199.601 458.537 199.377 458.537 199.101C458.537 198.825 458.313 198.601 458.037 198.601V199.601ZM461.007 198.601C460.731 198.601 460.507 198.825 460.507 199.101C460.507 199.377 460.731 199.601 461.007 199.601V198.601ZM461.997 199.601C462.273 199.601 462.497 199.377 462.497 199.101C462.497 198.825 462.273 198.601 461.997 198.601V199.601ZM464.968 198.601C464.691 198.601 464.468 198.825 464.468 199.101C464.468 199.377 464.691 199.601 464.968 199.601V198.601ZM465.958 199.601C466.234 199.601 466.458 199.377 466.458 199.101C466.458 198.825 466.234 198.601 465.958 198.601V199.601ZM468.928 198.601C468.652 198.601 468.428 198.825 468.428 199.101C468.428 199.377 468.652 199.601 468.928 199.601V198.601ZM469.962 199.575C470.237 199.548 470.438 199.303 470.411 199.029C470.384 198.754 470.14 198.553 469.865 198.579L469.962 199.575ZM472.278 197.58C472.064 197.755 472.034 198.07 472.209 198.283C472.384 198.497 472.699 198.528 472.913 198.352L472.278 197.58ZM473.675 197.59C473.85 197.377 473.819 197.062 473.606 196.886C473.392 196.711 473.077 196.742 472.902 196.955L473.675 197.59ZM473.902 194.543C473.875 194.817 474.076 195.062 474.351 195.089C474.626 195.115 474.87 194.914 474.897 194.639L473.902 194.543ZM474.923 193.624C474.923 193.348 474.699 193.124 474.423 193.124C474.147 193.124 473.923 193.348 473.923 193.624H474.923ZM473.923 190.766C473.923 191.042 474.147 191.266 474.423 191.266C474.699 191.266 474.923 191.042 474.923 190.766H473.923ZM474.923 189.814C474.923 189.538 474.699 189.314 474.423 189.314C474.147 189.314 473.923 189.538 473.923 189.814H474.923ZM473.923 186.956C473.923 187.232 474.147 187.456 474.423 187.456C474.699 187.456 474.923 187.232 474.923 186.956H473.923ZM474.923 186.003C474.923 185.727 474.699 185.503 474.423 185.503C474.147 185.503 473.923 185.727 473.923 186.003H474.923ZM473.923 183.145C473.923 183.421 474.147 183.645 474.423 183.645C474.699 183.645 474.923 183.421 474.923 183.145H473.923ZM474.923 182.192C474.923 181.916 474.699 181.692 474.423 181.692C474.147 181.692 473.923 181.916 473.923 182.192H474.923ZM473.923 179.334C473.923 179.61 474.147 179.834 474.423 179.834C474.699 179.834 474.923 179.61 474.923 179.334H473.923ZM474.923 178.382C474.923 178.105 474.699 177.882 474.423 177.882C474.147 177.882 473.923 178.105 473.923 178.382H474.923ZM473.923 175.524C473.923 175.8 474.147 176.024 474.423 176.024C474.699 176.024 474.923 175.8 474.923 175.524H473.923ZM474.923 174.571C474.923 174.295 474.699 174.071 474.423 174.071C474.147 174.071 473.923 174.295 473.923 174.571H474.923ZM473.923 171.713C473.923 171.989 474.147 172.213 474.423 172.213C474.699 172.213 474.923 171.989 474.923 171.713H473.923ZM474.923 170.76C474.923 170.484 474.699 170.26 474.423 170.26C474.147 170.26 473.923 170.484 473.923 170.76H474.923ZM473.923 167.902C473.923 168.178 474.147 168.402 474.423 168.402C474.699 168.402 474.923 168.178 474.923 167.902H473.923ZM338.231 199.601H339.221V198.601H338.231V199.601ZM342.192 199.601H343.182V198.601H342.192V199.601ZM346.152 199.601H347.142V198.601H346.152V199.601ZM350.113 199.601H351.103V198.601H350.113V199.601ZM354.073 199.601H355.063V198.601H354.073V199.601ZM358.034 199.601H359.024V198.601H358.034V199.601ZM361.994 199.601H362.984V198.601H361.994V199.601ZM365.955 199.601H366.945V198.601H365.955V199.601ZM369.915 199.601H370.905V198.601H369.915V199.601ZM373.876 199.601H374.866V198.601H373.876V199.601ZM377.836 199.601H378.826V198.601H377.836V199.601ZM381.797 199.601H382.787V198.601H381.797V199.601ZM385.757 199.601H386.747V198.601H385.757V199.601ZM389.718 199.601H390.708V198.601H389.718V199.601ZM393.678 199.601H394.668V198.601H393.678V199.601ZM397.639 199.601H398.629V198.601H397.639V199.601ZM401.599 199.601H402.589V198.601H401.599V199.601ZM405.56 199.601H406.55V198.601H405.56V199.601ZM409.52 199.601H410.51V198.601H409.52V199.601ZM413.481 199.601H414.471V198.601H413.481V199.601ZM417.441 199.601H418.432V198.601H417.441V199.601ZM421.402 199.601H422.392V198.601H421.402V199.601ZM425.362 199.601H426.353V198.601H425.362V199.601ZM429.323 199.601H430.313V198.601H429.323V199.601ZM433.283 199.601H434.274V198.601H433.283V199.601ZM437.244 199.601H438.234V198.601H437.244V199.601ZM441.205 199.601H442.195V198.601H441.205V199.601ZM445.165 199.601H446.155V198.601H445.165V199.601ZM449.126 199.601H450.116V198.601H449.126V199.601ZM453.086 199.601H454.076V198.601H453.086V199.601ZM457.047 199.601H458.037V198.601H457.047V199.601ZM461.007 199.601H461.997V198.601H461.007V199.601ZM464.968 199.601H465.958V198.601H464.968V199.601ZM468.928 199.601H469.423V198.601H468.928V199.601ZM469.423 199.601C469.605 199.601 469.785 199.592 469.962 199.575L469.865 198.579C469.72 198.593 469.572 198.601 469.423 198.601V199.601ZM472.913 198.352C473.191 198.124 473.446 197.868 473.675 197.59L472.902 196.955C472.715 197.183 472.506 197.392 472.278 197.58L472.913 198.352ZM474.897 194.639C474.914 194.462 474.923 194.282 474.923 194.101H473.923C473.923 194.25 473.916 194.397 473.902 194.543L474.897 194.639ZM474.923 194.101V193.624H473.923V194.101H474.923ZM474.923 190.766V189.814H473.923V190.766H474.923ZM474.923 186.956V186.003H473.923V186.956H474.923ZM474.923 183.145V182.192H473.923V183.145H474.923ZM474.923 179.334V178.382H473.923V179.334H474.923ZM474.923 175.524V174.571H473.923V175.524H474.923ZM474.923 171.713V170.76H473.923V171.713H474.923ZM474.923 167.902V167.426H473.923V167.902H474.923Z" fill="#7C3AED"/>
<circle cx="218.144" cy="42.8848" r="42.4732" fill="#1E3A8A"/>
<path d="M218.145 13.8242L244.945 31.9064H191.345L218.145 13.8242Z" fill="#DBEAFE"/>
<path fill-rule="evenodd" clip-rule="evenodd" d="M238.153 29.5638L218.145 15.8086L198.138 29.5638H238.153ZM234.401 28.3134L218.145 17.0593L201.889 28.3134H234.401Z" fill="#4F82E3"/>
<path d="M190.052 31.9058H246.236V35.1347H190.052V31.9058Z" fill="#4F82E3"/>
<path d="M191.345 56.769H244.945V59.998H191.345V56.769Z" fill="#4F82E3"/>
<path d="M189.084 59.998H247.205V63.227H189.084V59.998Z" fill="#3766BF"/>
<path d="M194.25 35.1348H200.708V37.395H194.25V35.1348Z" fill="#3766BF"/>
<path d="M220.728 35.1348H227.508V37.395H220.728V35.1348Z" fill="#3766BF"/>
<path d="M207.812 35.1348H213.946V37.395H207.812V35.1348Z" fill="#3766BF"/>
<path d="M233.965 35.1348H240.746V37.395H233.965V35.1348Z" fill="#3766BF"/>
<path d="M195.542 37.3955H199.417V56.7692H195.542V37.3955Z" fill="#DBEAFE"/>
<path d="M208.78 37.3955H212.655V56.7692H208.78V37.3955Z" fill="#DBEAFE"/>
<path d="M222.02 37.3955H225.894V56.7692H222.02V37.3955Z" fill="#DBEAFE"/>
<path d="M235.258 37.3955H239.133V56.7692H235.258V37.3955Z" fill="#DBEAFE"/>
<path d="M218.145 26.7397C219.928 26.7397 221.374 25.2218 221.374 23.3494C221.374 21.4769 219.928 19.959 218.145 19.959C216.362 19.959 214.916 21.4769 214.916 23.3494C214.916 25.2218 216.362 26.7397 218.145 26.7397Z" fill="#3766BF"/>
<circle cx="40.3334" cy="121.352" r="33.1147" fill="#1E3A8A"/>
<path d="M40.3337 98.6943L61.2288 112.792H19.4385L40.3337 98.6943Z" fill="#DBEAFE"/>
<path fill-rule="evenodd" clip-rule="evenodd" d="M55.9335 110.966L40.3344 100.242L24.7354 110.966H55.9335ZM53.0086 109.991L40.3344 101.217L27.6602 109.991H53.0086Z" fill="#4F82E3"/>
<path d="M18.4307 112.792H62.235V115.31H18.4307V112.792Z" fill="#4F82E3"/>
<path d="M19.4385 132.177H61.2288V134.694H19.4385V132.177Z" fill="#4F82E3"/>
<path d="M17.6758 134.694H62.9906V137.211H17.6758V134.694Z" fill="#3766BF"/>
<path d="M21.7041 115.31H26.7391V117.072H21.7041V115.31Z" fill="#3766BF"/>
<path d="M42.3477 115.31H47.6344V117.072H42.3477V115.31Z" fill="#3766BF"/>
<path d="M32.2773 115.31H37.0605V117.072H32.2773V115.31Z" fill="#3766BF"/>
<path d="M52.668 115.31H57.9547V117.072H52.668V115.31Z" fill="#3766BF"/>
<path d="M22.7109 117.071H25.7319V132.176H22.7109V117.071Z" fill="#DBEAFE"/>
<path d="M33.0322 117.071H36.0532V132.176H33.0322V117.071Z" fill="#DBEAFE"/>
<path d="M43.3545 117.071H46.3755V132.176H43.3545V117.071Z" fill="#DBEAFE"/>
<path d="M53.6758 117.071H56.6968V132.176H53.6758V117.071Z" fill="#DBEAFE"/>
<path d="M40.3339 108.764C41.7243 108.764 42.8514 107.581 42.8514 106.121C42.8514 104.661 41.7243 103.478 40.3339 103.478C38.9435 103.478 37.8164 104.661 37.8164 106.121C37.8164 107.581 38.9435 108.764 40.3339 108.764Z" fill="#3766BF"/>
<circle cx="48.9717" cy="358.914" r="48.9521" fill="#1E3A8A"/>
<path d="M48.9725 325.419L79.8611 346.26H18.084L48.9725 325.419Z" fill="#DBEAFE"/>
<path fill-rule="evenodd" clip-rule="evenodd" d="M72.0321 343.561L48.9725 327.708L25.9131 343.561H72.0321ZM67.7083 342.12L48.9725 329.149L30.2367 342.12H67.7083Z" fill="#4F82E3"/>
<path d="M16.5947 346.261H81.349V349.983H16.5947V346.261Z" fill="#4F82E3"/>
<path d="M18.084 374.915H79.8611V378.637H18.084V374.915Z" fill="#4F82E3"/>
<path d="M15.4785 378.637H82.4657V382.358H15.4785V378.637Z" fill="#3766BF"/>
<path d="M21.4326 349.981H28.8756V352.586H21.4326V349.981Z" fill="#3766BF"/>
<path d="M51.9492 349.981H59.7644V352.586H51.9492V349.981Z" fill="#3766BF"/>
<path d="M37.0635 349.981H44.1342V352.586H37.0635V349.981Z" fill="#3766BF"/>
<path d="M67.2051 349.981H75.0203V352.586H67.2051V349.981Z" fill="#3766BF"/>
<path d="M22.9219 352.586H27.3877V374.915H22.9219V352.586Z" fill="#DBEAFE"/>
<path d="M38.1787 352.586H42.6445V374.915H38.1787V352.586Z" fill="#DBEAFE"/>
<path d="M53.4375 352.586H57.9033V374.915H53.4375V352.586Z" fill="#DBEAFE"/>
<path d="M68.6963 352.586H73.1621V374.915H68.6963V352.586Z" fill="#DBEAFE"/>
<path d="M48.9725 340.306C51.0279 340.306 52.6941 338.556 52.6941 336.398C52.6941 334.24 51.0279 332.491 48.9725 332.491C46.9172 332.491 45.251 334.24 45.251 336.398C45.251 338.556 46.9172 340.306 48.9725 340.306Z" fill="#3766BF"/>
<circle cx="220.304" cy="417.945" r="38.8738" fill="#1E3A8A"/>
<path d="M220.305 391.347L244.835 407.897H195.776L220.305 391.347Z" fill="#DBEAFE"/>
<path fill-rule="evenodd" clip-rule="evenodd" d="M238.618 405.753L220.306 393.164L201.994 405.753H238.618ZM235.184 404.609L220.306 394.308L205.428 404.609H235.184Z" fill="#4F82E3"/>
<path d="M194.594 407.897H246.016V410.852H194.594V407.897Z" fill="#4F82E3"/>
<path d="M195.776 430.652H244.835V433.608H195.776V430.652Z" fill="#4F82E3"/>
<path d="M193.707 433.608H246.903V436.563H193.707V433.608Z" fill="#3766BF"/>
<path d="M198.436 410.852H204.346V412.921H198.436V410.852Z" fill="#3766BF"/>
<path d="M222.669 410.852H228.875V412.921H222.669V410.852Z" fill="#3766BF"/>
<path d="M210.848 410.852H216.463V412.921H210.848V410.852Z" fill="#3766BF"/>
<path d="M234.784 410.852H240.99V412.921H234.784V410.852Z" fill="#3766BF"/>
<path d="M199.617 412.92H203.164V430.652H199.617V412.92Z" fill="#DBEAFE"/>
<path d="M211.733 412.92H215.28V430.652H211.733V412.92Z" fill="#DBEAFE"/>
<path d="M223.851 412.92H227.397V430.652H223.851V412.92Z" fill="#DBEAFE"/>
<path d="M235.968 412.92H239.514V430.652H235.968V412.92Z" fill="#DBEAFE"/>
<path d="M220.306 403.168C221.938 403.168 223.261 401.779 223.261 400.065C223.261 398.351 221.938 396.962 220.306 396.962C218.674 396.962 217.351 398.351 217.351 400.065C217.351 401.779 218.674 403.168 220.306 403.168Z" fill="#3766BF"/>
<circle cx="452.107" cy="328.679" r="38.8738" fill="#1E3A8A"/>
<path d="M452.108 302.082L476.637 318.631H427.579L452.108 302.082Z" fill="#DBEAFE"/>
<path fill-rule="evenodd" clip-rule="evenodd" d="M470.42 316.488L452.108 303.898L433.796 316.488H470.42ZM466.986 315.343L452.108 305.043L437.229 315.343H466.986Z" fill="#4F82E3"/>
<path d="M426.396 318.632H477.819V321.587H426.396V318.632Z" fill="#4F82E3"/>
<path d="M427.579 341.387H476.637V344.343H427.579V341.387Z" fill="#4F82E3"/>
<path d="M425.51 344.342H478.705V347.298H425.51V344.342Z" fill="#3766BF"/>
<path d="M430.238 321.586H436.149V323.655H430.238V321.586Z" fill="#3766BF"/>
<path d="M454.472 321.586H460.678V323.655H454.472V321.586Z" fill="#3766BF"/>
<path d="M442.65 321.586H448.265V323.655H442.65V321.586Z" fill="#3766BF"/>
<path d="M466.587 321.586H472.793V323.655H466.587V321.586Z" fill="#3766BF"/>
<path d="M431.42 323.655H434.966V341.387H431.42V323.655Z" fill="#DBEAFE"/>
<path d="M443.536 323.655H447.083V341.387H443.536V323.655Z" fill="#DBEAFE"/>
<path d="M455.653 323.655H459.2V341.387H455.653V323.655Z" fill="#DBEAFE"/>
<path d="M467.771 323.655H471.317V341.387H467.771V323.655Z" fill="#DBEAFE"/>
<path d="M452.109 313.903C453.741 313.903 455.064 312.514 455.064 310.8C455.064 309.086 453.741 307.697 452.109 307.697C450.476 307.697 449.153 309.086 449.153 310.8C449.153 312.514 450.476 313.903 452.109 313.903Z" fill="#3766BF"/>
<circle cx="461.465" cy="117.753" r="49.672" fill="#1E3A8A"/>
<path d="M461.465 83.7671L492.808 104.914H430.122L461.465 83.7671Z" fill="#DBEAFE"/>
<path fill-rule="evenodd" clip-rule="evenodd" d="M484.864 102.174L461.465 86.0874L438.066 102.174H484.864ZM480.476 100.712L461.465 87.5501L442.454 100.712H480.476Z" fill="#4F82E3"/>
<path d="M428.611 104.915H494.318V108.691H428.611V104.915Z" fill="#4F82E3"/>
<path d="M430.122 133.99H492.808V137.767H430.122V133.99Z" fill="#4F82E3"/>
<path d="M427.479 137.767H495.451V141.543H427.479V137.767Z" fill="#3766BF"/>
<path d="M433.521 108.69H441.073V111.334H433.521V108.69Z" fill="#3766BF"/>
<path d="M464.485 108.69H472.416V111.334H464.485V108.69Z" fill="#3766BF"/>
<path d="M449.381 108.69H456.556V111.334H449.381V108.69Z" fill="#3766BF"/>
<path d="M479.966 108.69H487.896V111.334H479.966V108.69Z" fill="#3766BF"/>
<path d="M435.031 111.333H439.563V133.99H435.031V111.333Z" fill="#DBEAFE"/>
<path d="M450.513 111.333H455.044V133.99H450.513V111.333Z" fill="#DBEAFE"/>
<path d="M465.996 111.333H470.528V133.99H465.996V111.333Z" fill="#DBEAFE"/>
<path d="M481.479 111.333H486.01V133.99H481.479V111.333Z" fill="#DBEAFE"/>
<path d="M461.466 98.8714C463.551 98.8714 465.242 97.0962 465.242 94.9064C465.242 92.7166 463.551 90.9414 461.466 90.9414C459.38 90.9414 457.689 92.7166 457.689 94.9064C457.689 97.0962 459.38 98.8714 461.466 98.8714Z" fill="#3766BF"/>
<defs>
<filter id="filter0_d_257_2031" x="157.593" y="134.629" width="188.772" height="188.772" filterUnits="userSpaceOnUse" color-interpolation-filters="sRGB">
<feFlood flood-opacity="0" result="BackgroundImageFix"/>
<feColorMatrix in="SourceAlpha" type="matrix" values="0 0 0 0 0 0 0 0 0 0 0 0 0 0 0 0 0 0 127 0" result="hardAlpha"/>
<feOffset dy="4"/>
<feGaussianBlur stdDeviation="4"/>
<feComposite in2="hardAlpha" operator="out"/>
<feColorMatrix type="matrix" values="0 0 0 0 0 0 0 0 0 0 0 0 0 0 0 0 0 0 0.1 0"/>
<feBlend mode="normal" in2="BackgroundImageFix" result="effect1_dropShadow_257_2031"/>
<feBlend mode="normal" in="SourceGraphic" in2="effect1_dropShadow_257_2031" result="shape"/>
</filter>
<clipPath id="clip0_257_2031">
<rect width="43.7714" height="32.8267" fill="white" transform="translate(266.045 183.262)"/>
</clipPath>
</defs>
</svg>
