<svg width="100" height="23" viewBox="0 0 100 23" fill="none" xmlns="http://www.w3.org/2000/svg">
<path d="M10.7526 22.0231C13.8917 22.0231 16.0229 20.712 17.3764 18.7309L17.8948 21.6443H19.9972V10.1071H11.0118V13.545H16.7428C16.1669 16.1671 14.2661 18.2356 10.7526 18.2356C6.57667 18.2356 4.41671 14.856 4.41671 11.4473C4.41671 8.06774 6.57667 4.65904 10.7526 4.65904C12.8549 4.65904 14.4389 5.53306 15.5045 6.8441L18.73 4.65904C16.9156 2.3283 14.0933 0.900716 10.7526 0.900716C4.76231 0.900716 0.5 5.4748 0.5 11.4473C0.5 17.4198 4.76231 22.0231 10.7526 22.0231ZM26.0066 21.6443V15.5552C26.0066 12.8166 26.5538 10.0197 30.8737 10.5442V6.52363C29.117 6.52363 27.101 7.45592 26.0066 9.29138V6.87324H22.3491V21.6443H26.0066ZM39.0432 22.0231C43.4495 22.0231 46.7614 18.5852 46.7614 14.2733C46.7614 9.93233 43.4495 6.52363 39.0432 6.52363C34.6657 6.52363 31.3537 9.93233 31.3537 14.2733C31.3537 18.5852 34.6657 22.0231 39.0432 22.0231ZM39.0432 18.4687C36.624 18.4687 35.0976 16.5749 35.0976 14.2733C35.0976 11.9717 36.624 10.078 39.0432 10.078C41.4911 10.078 43.0175 11.9717 43.0175 14.2733C43.0175 16.5749 41.4911 18.4687 39.0432 18.4687ZM54.6716 21.6443L57.5804 12.9332L60.5179 21.6443H63.7722L68.6681 6.87324H64.7226L61.9003 16.2545L58.7899 6.87324H56.3996L53.2605 16.2545L50.4669 6.87324H46.5214L51.4173 21.6443H54.6716ZM74.8504 21.6443V10.2528H77.9895V6.87324H74.8504C74.8504 5.06692 75.484 4.04722 77.3559 4.04722C77.5863 4.04722 77.7879 4.07635 77.9895 4.07635V0.988121C77.4999 0.900718 77.1831 0.871582 76.4632 0.871582C72.5176 0.871582 71.1929 3.84328 71.1929 6.87324H69.1481V10.2528H71.1929V21.6443H74.8504ZM81.4358 4.7173C82.5302 4.7173 83.3942 3.84328 83.3942 2.73618C83.3942 1.65821 82.5302 0.78418 81.4358 0.78418C80.3703 0.78418 79.5063 1.65821 79.5063 2.73618C79.5063 3.84328 80.3703 4.7173 81.4358 4.7173ZM83.279 21.6443V6.87324H79.6215V21.6443H83.279ZM89.4037 21.6443V13.4284C89.4037 11.7387 90.354 10.1071 92.514 10.1071C94.5876 10.1071 95.3651 11.5347 95.3651 13.4284V21.6443H99.0227V12.671C99.0227 9.55359 97.3523 6.52363 93.666 6.52363C91.5348 6.52363 90.21 7.48506 89.4037 8.67956V6.87324H85.7749V21.6443H89.4037Z" fill="white"/>
</svg>
