<svg width="30" height="30" viewBox="0 0 30 30" fill="none" xmlns="http://www.w3.org/2000/svg">
<rect x="5.25" y="5.25" width="20" height="21.25" rx="7" fill="#A5A5A5"/>
<path fill-rule="evenodd" clip-rule="evenodd" d="M15.25 4C12.1945 4 11.812 4.01275 10.612 4.0675C9.41425 4.12225 8.596 4.31275 7.8805 4.591C7.1305 4.873 6.45025 5.3155 5.88775 5.8885C5.31567 6.45035 4.87289 7.13012 4.59025 7.8805C4.3135 8.596 4.12225 9.415 4.0675 10.6128C4.0135 11.812 4 12.1938 4 15.25C4 18.3062 4.01275 18.688 4.0675 19.888C4.12225 21.0858 4.31275 21.904 4.591 22.6195C4.873 23.3695 5.3155 24.0497 5.8885 24.6122C6.45037 25.1843 7.13013 25.6271 7.8805 25.9097C8.596 26.1872 9.41425 26.3777 10.612 26.4325C11.812 26.4872 12.1945 26.5 15.25 26.5C18.3055 26.5 18.688 26.4872 19.888 26.4325C21.0858 26.3777 21.904 26.1872 22.6195 25.909C23.3695 25.627 24.0497 25.1845 24.6122 24.6115C25.1843 24.0496 25.6271 23.3699 25.9097 22.6195C26.1872 21.904 26.3777 21.0858 26.4325 19.888C26.4872 18.688 26.5 18.3055 26.5 15.25C26.5 12.1945 26.4872 11.812 26.4325 10.612C26.3777 9.41425 26.1872 8.596 25.909 7.8805C25.6266 7.1298 25.1838 6.44974 24.6115 5.88775C24.0496 5.31567 23.3699 4.87289 22.6195 4.59025C21.904 4.3135 21.085 4.12225 19.8873 4.0675C18.688 4.0135 18.3062 4 15.25 4ZM15.25 6.02725C18.2538 6.02725 18.61 6.0385 19.7965 6.0925C20.893 6.14275 21.4885 6.325 21.8853 6.48025C22.4103 6.6835 22.7853 6.928 23.179 7.321C23.5728 7.71475 23.8165 8.08975 24.0198 8.61475C24.1743 9.0115 24.3572 9.607 24.4075 10.7035C24.4615 11.89 24.4728 12.2462 24.4728 15.25C24.4728 18.2538 24.4615 18.61 24.4075 19.7965C24.3572 20.893 24.175 21.4885 24.0198 21.8853C23.8397 22.3739 23.5524 22.816 23.179 23.179C22.8161 23.5525 22.374 23.8398 21.8853 24.0198C21.4885 24.1743 20.893 24.3572 19.7965 24.4075C18.61 24.4615 18.2545 24.4728 15.25 24.4728C12.2455 24.4728 11.89 24.4615 10.7035 24.4075C9.607 24.3572 9.0115 24.175 8.61475 24.0198C8.12609 23.8397 7.684 23.5524 7.321 23.179C6.94763 22.816 6.66035 22.3739 6.48025 21.8853C6.32575 21.4885 6.14275 20.893 6.0925 19.7965C6.0385 18.61 6.02725 18.2538 6.02725 15.25C6.02725 12.2462 6.0385 11.89 6.0925 10.7035C6.14275 9.607 6.325 9.0115 6.48025 8.61475C6.6835 8.08975 6.928 7.71475 7.321 7.321C7.68396 6.94753 8.12606 6.66023 8.61475 6.48025C9.0115 6.32575 9.607 6.14275 10.7035 6.0925C11.89 6.0385 12.2462 6.02725 15.25 6.02725V6.02725Z" fill="#A5A5A5"/>
<path fill-rule="evenodd" clip-rule="evenodd" d="M15.2503 19.0037C14.7573 19.0037 14.2692 18.9066 13.8138 18.718C13.3583 18.5294 12.9445 18.2529 12.596 17.9043C12.2474 17.5557 11.9709 17.1419 11.7823 16.6865C11.5936 16.2311 11.4965 15.7429 11.4965 15.25C11.4965 14.757 11.5936 14.2689 11.7823 13.8135C11.9709 13.3581 12.2474 12.9442 12.596 12.5957C12.9445 12.2471 13.3583 11.9706 13.8138 11.782C14.2692 11.5933 14.7573 11.4962 15.2503 11.4962C16.2458 11.4962 17.2006 11.8917 17.9046 12.5957C18.6085 13.2996 19.004 14.2544 19.004 15.25C19.004 16.2455 18.6085 17.2003 17.9046 17.9043C17.2006 18.6082 16.2458 19.0037 15.2503 19.0037V19.0037ZM15.2503 9.46748C13.7167 9.46748 12.2459 10.0767 11.1614 11.1611C10.077 12.2456 9.46777 13.7164 9.46777 15.25C9.46777 16.7836 10.077 18.2544 11.1614 19.3388C12.2459 20.4233 13.7167 21.0325 15.2503 21.0325C16.7839 21.0325 18.2547 20.4233 19.3391 19.3388C20.4235 18.2544 21.0328 16.7836 21.0328 15.25C21.0328 13.7164 20.4235 12.2456 19.3391 11.1611C18.2547 10.0767 16.7839 9.46748 15.2503 9.46748V9.46748ZM22.715 9.36248C22.715 9.725 22.571 10.0727 22.3147 10.329C22.0583 10.5853 21.7107 10.7294 21.3481 10.7294C20.9856 10.7294 20.638 10.5853 20.3816 10.329C20.1253 10.0727 19.9813 9.725 19.9813 9.36248C19.9813 8.99996 20.1253 8.65229 20.3816 8.39595C20.638 8.13962 20.9856 7.99561 21.3481 7.99561C21.7107 7.99561 22.0583 8.13962 22.3147 8.39595C22.571 8.65229 22.715 8.99996 22.715 9.36248" fill="#100535"/>
</svg>
