<svg width="30" height="30" viewBox="0 0 30 30" fill="none" xmlns="http://www.w3.org/2000/svg">
<path d="M26.5 5.65441V24.8456C26.5 25.2844 26.3257 25.7052 26.0154 26.0154C25.7052 26.3257 25.2844 26.5 24.8456 26.5H5.65441C5.21563 26.5 4.79483 26.3257 4.48457 26.0154C4.1743 25.7052 4 25.2844 4 24.8456V5.65441C4 5.21563 4.1743 4.79483 4.48457 4.48457C4.79483 4.1743 5.21563 4 5.65441 4H24.8456C25.2844 4 25.7052 4.1743 26.0154 4.48457C26.3257 4.79483 26.5 5.21563 26.5 5.65441V5.65441ZM10.6176 12.6029H7.30882V23.1912H10.6176V12.6029ZM10.9154 8.96324C10.9172 8.71295 10.8696 8.46477 10.7754 8.23287C10.6813 8.00097 10.5423 7.78989 10.3666 7.61168C10.1908 7.43348 9.98171 7.29163 9.75114 7.19425C9.52057 7.09686 9.27308 7.04585 9.02279 7.04412H8.96324C8.45425 7.04412 7.96612 7.24631 7.60621 7.60621C7.24631 7.96612 7.04412 8.45425 7.04412 8.96324C7.04412 9.47222 7.24631 9.96035 7.60621 10.3203C7.96612 10.6802 8.45425 10.8824 8.96324 10.8824V10.8824C9.21354 10.8885 9.4626 10.8453 9.69619 10.7552C9.92979 10.665 10.1433 10.5297 10.3246 10.3571C10.5059 10.1844 10.6514 9.97765 10.7528 9.74871C10.8542 9.51977 10.9094 9.2731 10.9154 9.02279V8.96324ZM23.1912 16.7588C23.1912 13.5757 21.1662 12.3382 19.1544 12.3382C18.4957 12.3053 17.8399 12.4455 17.2523 12.7451C16.6648 13.0447 16.1661 13.4931 15.8059 14.0456H15.7132V12.6029H12.6029V23.1912H15.9118V17.5596C15.8639 16.9828 16.0456 16.4104 16.4173 15.9668C16.7891 15.5232 17.3208 15.2442 17.8971 15.1904H18.0228C19.075 15.1904 19.8559 15.8522 19.8559 17.5199V23.1912H23.1647L23.1912 16.7588Z" fill="#A5A5A5"/>
</svg>
