<svg width="62" height="62" viewBox="0 0 62 62" fill="none" xmlns="http://www.w3.org/2000/svg">
<path d="M28.6907 27.6523L28.6907 27.6522L25.9046 23.0872H21.0875C18.5966 23.0872 16.55 20.9785 16.55 18.4419V8.39535C16.55 5.85873 18.5966 3.75 21.0875 3.75H41.9125C44.4034 3.75 46.45 5.85873 46.45 8.39535V18.4419C46.45 20.9785 44.4034 23.0872 41.9125 23.0872H37.0953L34.3094 27.6496L28.6907 27.6523ZM28.6907 27.6523C29.9487 29.7118 33.0527 29.712 34.3093 27.6498L28.6907 27.6523ZM35.9358 18.8198H35.9357C35.5806 18.8199 35.2317 18.9126 34.9219 19.0888C34.6121 19.2649 34.3517 19.5185 34.1648 19.8251L31.4999 24.1921L28.8328 19.8251C28.8328 19.825 28.8328 19.825 28.8327 19.825C28.6458 19.5184 28.3855 19.2649 28.0757 19.0888C27.7659 18.9126 27.417 18.8199 27.0619 18.8198H27.0618H21.0875C20.9694 18.8198 20.8826 18.7784 20.8252 18.7195C20.7673 18.66 20.725 18.5679 20.725 18.4419V8.39535C20.725 8.26931 20.7673 8.17716 20.8252 8.11773C20.8826 8.05878 20.9694 8.01744 21.0875 8.01744H41.9125C42.0306 8.01744 42.1174 8.05878 42.1748 8.11773C42.2327 8.17716 42.275 8.26931 42.275 8.39535V18.4419C42.275 18.5679 42.2327 18.66 42.1748 18.7195C42.1174 18.7784 42.0306 18.8198 41.9125 18.8198H35.9358ZM18.025 25.0988C15.658 25.0988 13.6329 26.0794 12.3284 27.5839C11.0283 29.0833 10.425 31.0005 10.425 32.8837C10.425 34.7669 11.0283 36.6842 12.3284 38.1836C13.6329 39.6881 15.658 40.6686 18.025 40.6686C20.392 40.6686 22.4171 39.6881 23.7216 38.1836C25.0217 36.6842 25.625 34.7669 25.625 32.8837C25.625 31.0005 25.0217 29.0833 23.7216 27.5839C22.4171 26.0794 20.392 25.0988 18.025 25.0988ZM44.975 25.0988C42.608 25.0988 40.5829 26.0794 39.2784 27.5839C37.9783 29.0833 37.375 31.0005 37.375 32.8837C37.375 34.7669 37.9783 36.6842 39.2784 38.1836C40.5829 39.6881 42.608 40.6686 44.975 40.6686C47.342 40.6686 49.3671 39.6881 50.6716 38.1836C51.9717 36.6842 52.575 34.7669 52.575 32.8837C52.575 31.0005 51.9717 29.0833 50.6716 27.5839C49.3671 26.0794 47.342 25.0988 44.975 25.0988ZM18.025 29.3663C19.3333 29.3663 20.0644 29.7988 20.5972 30.4132C21.1343 31.0327 21.45 31.9408 21.45 32.8837C21.45 33.8266 21.1343 34.7348 20.5972 35.3542C20.0644 35.9687 19.3333 36.4012 18.025 36.4012C16.7167 36.4012 15.9856 35.9687 15.4528 35.3542C14.9157 34.7348 14.6 33.8266 14.6 32.8837C14.6 31.9408 14.9157 31.0327 15.4528 30.4132C15.9856 29.7988 16.7167 29.3663 18.025 29.3663ZM44.975 29.3663C46.2833 29.3663 47.0144 29.7988 47.5471 30.4132C48.0843 31.0327 48.4 31.9408 48.4 32.8837C48.4 33.8266 48.0843 34.7348 47.5472 35.3542C47.0144 35.9687 46.2833 36.4012 44.975 36.4012C43.6667 36.4012 42.9356 35.9687 42.4029 35.3542C41.8657 34.7348 41.55 33.8266 41.55 32.8837C41.55 31.9408 41.8657 31.0327 42.4029 30.4132C42.9356 29.7988 43.6667 29.3663 44.975 29.3663ZM11.2875 42.6802C8.79779 42.6802 6.75 44.7886 6.75 47.3256V50.4651C6.75 52.9916 8.39365 55.0232 10.4531 56.29C12.5148 57.5581 15.1516 58.25 18.025 58.25C20.8984 58.25 23.5352 57.5581 25.5969 56.29C27.6563 55.0232 29.3 52.9916 29.3 50.4651V47.3256C29.3 44.7886 27.2522 42.6802 24.7625 42.6802H11.2875ZM38.2375 42.6802C35.7478 42.6802 33.7 44.7886 33.7 47.3256V50.4651C33.7 52.9916 35.3437 55.0232 37.4031 56.29C39.4648 57.5581 42.1016 58.25 44.975 58.25C47.8484 58.25 50.4852 57.5581 52.5469 56.29C54.6064 55.0232 56.25 52.9916 56.25 50.4651V47.3256C56.25 44.7886 54.2022 42.6802 51.7125 42.6802H38.2375ZM11.2875 46.9477H24.7625C24.8819 46.9477 24.9685 46.989 25.0253 47.0472C25.0826 47.106 25.125 47.1978 25.125 47.3256V50.4651C25.125 51.054 24.7171 51.8512 23.4448 52.6338C22.1811 53.4111 20.2253 53.9826 18.025 53.9826C15.8247 53.9826 13.8689 53.4111 12.6052 52.6338C11.333 51.8512 10.925 51.054 10.925 50.4651V47.3256C10.925 47.1978 10.9674 47.106 11.0247 47.0472C11.0815 46.989 11.1681 46.9477 11.2875 46.9477ZM38.2375 46.9477H51.7125C51.8319 46.9477 51.9185 46.989 51.9753 47.0472C52.0326 47.106 52.075 47.1978 52.075 47.3256V50.4651C52.075 51.054 51.6671 51.8512 50.3948 52.6338C49.1311 53.4111 47.1753 53.9826 44.975 53.9826C42.7747 53.9826 40.8189 53.4111 39.5552 52.6338C38.283 51.8512 37.875 51.054 37.875 50.4651V47.3256C37.875 47.1978 37.9174 47.106 37.9747 47.0472C38.0315 46.989 38.1181 46.9477 38.2375 46.9477Z" fill="#2563EB" stroke="#2563EB" stroke-width="0.5"/>
</svg>
