<svg width="80" height="80" viewBox="0 0 80 80" fill="none" xmlns="http://www.w3.org/2000/svg">
<circle cx="40" cy="40" r="40" fill="white"/>
<path d="M75.7177 41.436C75.507 42.8241 75.3707 44.2123 75.098 45.5881C73.7966 52.0331 70.7104 57.5362 66.2112 62.2833C62.5301 66.1751 58.1921 69.1498 53.2591 71.2444C53.0856 71.3188 52.9245 71.3808 52.6146 71.5171C53.2715 71.8146 53.8293 72.0501 54.3746 72.3103C55.1307 72.6574 55.3662 73.2027 55.0811 73.8596C54.8084 74.5041 54.2011 74.7148 53.4698 74.405C52.0321 73.7853 50.6067 73.1531 49.1814 72.5086C48.3385 72.1244 48.1278 71.4427 48.6236 70.6495C49.4664 69.3357 50.3216 68.0219 51.1892 66.7205C51.6107 66.076 52.3047 65.9272 52.8501 66.3115C53.3954 66.6833 53.4822 67.303 53.098 67.9599C52.8873 68.3069 52.6642 68.6416 52.4535 68.9762C52.4907 69.0258 52.5278 69.0754 52.565 69.125C53.8788 68.4433 55.2298 67.8236 56.5064 67.0675C64.0794 62.5436 69.4957 56.2348 72.1605 47.7447C74.156 41.374 73.7594 35.0405 71.5904 28.7813C71.5036 28.521 71.3921 28.2608 71.3177 28.0005C71.0822 27.2568 71.3673 26.6495 72.0118 26.4388C72.6067 26.2405 73.2264 26.5503 73.4619 27.2568C73.9205 28.6326 74.4287 29.996 74.7385 31.3965C75.1228 33.1689 75.3211 34.9785 75.6061 36.7633C75.6433 36.9864 75.6929 37.2095 75.7301 37.4326V41.436H75.7177Z" fill="#2563EB"/>
<path d="M24.3432 49.3562C23.6863 47.6086 23.1162 46.0717 22.5089 44.5348C22.4469 44.386 22.1866 44.2373 22.0131 44.2249C21.443 44.1877 20.8604 44.2249 20.2903 44.2125C18.7162 44.1753 17.5883 43.0846 17.5635 41.5229C17.5387 40.2835 17.5387 39.0317 17.5635 37.7922C17.6007 36.2181 18.7286 35.1274 20.2903 35.1026C20.9596 35.1026 21.6289 35.1026 22.261 35.1026C22.7568 33.888 23.2029 32.6857 23.7359 31.5331C24.3556 30.1821 24.3928 30.1945 23.3269 29.1286C21.7528 27.5545 21.7528 26.1415 23.3517 24.555C24.1077 23.8114 24.8638 23.0677 25.6446 22.3612C26.8221 21.2953 28.3342 21.3201 29.4869 22.4356C29.9951 22.9314 30.4537 23.4767 30.8007 23.861C32.5359 23.2041 34.0728 22.6339 35.6097 22.0266C35.7708 21.9646 35.9444 21.7291 35.9568 21.5556C35.9939 20.9607 35.9568 20.3657 35.9815 19.7584C36.0187 18.0976 37.097 17.0069 38.7703 16.9821C39.9477 16.9573 41.1128 16.9697 42.2903 16.9821C43.8644 17.0069 44.9303 18.0232 45.017 19.5973C45.0542 20.3534 44.8187 21.2829 45.1782 21.8035C45.5128 22.2869 46.492 22.3117 47.1737 22.5967C48.0784 22.981 48.9584 23.4272 50.0987 23.9601C50.4582 23.5387 50.8796 22.9934 51.363 22.51C52.4289 21.4317 54.0277 21.3821 55.1308 22.4356C56.0604 23.328 56.9652 24.2452 57.8328 25.1995C58.8615 26.3522 58.7996 27.8767 57.7213 28.9922C57.3246 29.4012 56.8908 29.7855 56.5066 30.2193C56.3827 30.3556 56.2959 30.6407 56.3579 30.777C57.0024 32.3139 57.6841 33.8384 58.403 35.4745C58.9855 35.4745 59.7168 35.4621 60.448 35.4745C62.0345 35.5117 63.1376 36.5776 63.1624 38.1641C63.1872 39.4035 63.1872 40.6553 63.1624 41.8948C63.1252 43.4317 62.0221 44.5224 60.4852 44.5596C59.8035 44.5843 58.9359 44.3488 58.4649 44.6835C58.0063 45.0057 57.9691 45.9105 57.6965 46.5303C57.3494 47.3359 57.0024 48.1291 56.5686 48.8852C56.3207 49.319 56.3579 49.5669 56.7297 49.8767C57.0768 50.1742 57.3866 50.5212 57.7089 50.8435C58.7996 51.9466 58.8739 53.4959 57.808 54.6238C56.8908 55.5905 55.9365 56.5201 54.9325 57.4001C53.8666 58.3421 52.3297 58.2553 51.2886 57.2762C50.892 56.8919 50.483 56.5201 50.1235 56.0987C49.8384 55.7765 49.603 55.7517 49.1939 55.9376C47.9049 56.5201 46.5787 57.0531 45.2525 57.5488C44.8931 57.6852 44.7196 57.8091 44.7444 58.2057C44.7691 58.7139 44.7568 59.2221 44.7444 59.7303C44.7072 61.4779 43.6165 62.581 41.8813 62.5686C40.5303 62.5686 39.1669 62.5438 37.8159 62.4446C36.626 62.3579 35.7213 61.3663 35.6469 60.1517C35.6097 59.5319 35.6097 58.9122 35.6469 58.2925C35.6717 57.8959 35.523 57.7472 35.1635 57.6108C33.8249 57.0779 32.4863 56.5201 31.1725 55.9252C30.8503 55.7765 30.652 55.7517 30.4041 56.0243C30.057 56.421 29.6604 56.7804 29.2886 57.1522C28.2103 58.2057 26.6734 58.2677 25.5579 57.239C24.5787 56.3342 23.6491 55.3674 22.7691 54.3759C21.8024 53.2852 21.8891 51.7359 22.9055 50.6948C23.4137 50.1742 23.9714 49.6908 24.3556 49.3438L24.3432 49.3562ZM40.1708 60.3252C40.7038 60.3252 41.2244 60.3252 41.7573 60.3252C42.2407 60.3376 42.4638 60.1517 42.4514 59.6311C42.4266 58.7387 42.439 57.8339 42.4514 56.9415C42.4514 56.1731 42.7613 55.8012 43.5173 55.6525C45.5004 55.2559 47.3348 54.4998 49.0576 53.4339C49.7889 52.9753 50.2351 53.0373 50.8424 53.6322C51.4621 54.2396 52.0942 54.8593 52.7015 55.4914C53.0486 55.8632 53.3337 55.8632 53.6807 55.5162C54.4244 54.7725 55.1928 54.0288 55.9613 53.31C56.3455 52.9629 56.3207 52.6779 55.9613 52.3432C55.3291 51.7359 54.7218 51.1162 54.1021 50.4965C53.6311 50.0255 53.5568 49.4801 53.9162 48.9348C55.0565 47.2119 55.8621 45.3404 56.3083 43.3201C56.4694 42.6012 56.9404 42.2914 57.6593 42.3038C58.5145 42.3038 59.3573 42.2914 60.2125 42.3038C60.7207 42.3162 60.919 42.1179 60.9066 41.6097C60.8818 40.5686 60.8818 39.5398 60.9066 38.4987C60.919 37.9162 60.6587 37.7303 60.1134 37.7426C59.1962 37.7674 58.2666 37.7426 57.3494 37.7426C56.6801 37.7426 56.2463 37.408 56.1224 36.7635C55.7506 34.7184 54.9449 32.8593 53.8542 31.0993C53.4328 30.43 53.4948 29.9962 54.0401 29.426C54.6599 28.7815 55.292 28.137 55.9489 27.5297C56.3207 27.1826 56.3083 26.8976 55.9489 26.5505C55.2176 25.8193 54.4863 25.0756 53.7922 24.3196C53.3956 23.8734 53.0858 23.9353 52.7139 24.3319C52.1438 24.9393 51.5489 25.5094 50.9539 26.0919C50.3838 26.6497 49.95 26.7117 49.2931 26.2779C47.5951 25.1748 45.7607 24.4063 43.8024 23.9353C42.972 23.737 42.7117 23.39 42.7117 22.51C42.7117 21.63 42.6869 20.7624 42.7117 19.8824C42.7241 19.4114 42.5506 19.2255 42.0672 19.2379C41.026 19.2626 39.9973 19.2626 38.9562 19.2379C38.4108 19.2379 38.2249 19.4486 38.2497 19.9815C38.2869 20.8987 38.2497 21.8283 38.2497 22.7455C38.2497 23.4395 37.9027 23.8981 37.221 24.0097C35.2007 24.3691 33.3539 25.1624 31.6187 26.2407C30.8875 26.6993 30.4661 26.6373 29.8463 26.0176C29.239 25.4226 28.6317 24.8277 28.0368 24.208C27.6773 23.8362 27.3922 23.7866 26.9956 24.1708C26.252 24.9269 25.4835 25.6581 24.7151 26.377C24.3556 26.7117 24.3804 26.9719 24.7151 27.2942C25.2976 27.8519 25.8553 28.4221 26.4255 29.0046C27.1196 29.7111 27.1691 30.1325 26.6486 30.9505C25.6075 32.5742 24.8514 34.3094 24.43 36.1934C24.2193 37.0981 23.8846 37.3584 22.9303 37.3708C22.0999 37.3708 21.2694 37.3832 20.439 37.3708C19.968 37.3708 19.7697 37.5567 19.7821 38.0277C19.7945 39.0812 19.8069 40.1472 19.7821 41.2007C19.7697 41.7584 20.0176 41.9196 20.5382 41.9072C21.4182 41.8824 22.2858 41.8824 23.1658 41.9072C23.959 41.9196 24.3184 42.2046 24.4672 42.9607C24.8638 44.9686 25.6446 46.8153 26.7353 48.5505C27.1568 49.2322 27.0948 49.6908 26.5122 50.2734C25.9173 50.8807 25.3224 51.5004 24.7027 52.0705C24.2937 52.4548 24.2565 52.7522 24.6779 53.1488C25.4215 53.8677 26.1404 54.6114 26.8469 55.3798C27.1939 55.7517 27.479 55.7393 27.826 55.3798C28.3962 54.7849 28.9911 54.2024 29.586 53.6198C30.2058 53.0125 30.6644 52.9505 31.3584 53.4091C33.0317 54.4874 34.8413 55.2559 36.7872 55.7021C37.5928 55.888 37.8531 56.2474 37.8655 57.0655C37.8655 57.9207 37.8779 58.7635 37.8655 59.6187C37.8531 60.1269 38.0638 60.3252 38.5596 60.3128C39.0925 60.288 39.6131 60.3128 40.146 60.3128L40.1708 60.3252Z" fill="#2563EB"/>
<path d="M8.40365 28.5334C7.78394 28.8432 7.26337 29.1159 6.71802 29.3638C6.04872 29.6613 5.42901 29.463 5.13154 28.8804C4.83408 28.2979 5.04478 27.6782 5.72647 27.3311C7.15182 26.5875 8.58957 25.8686 10.0397 25.1621C10.7586 24.8151 11.3535 25.0258 11.7006 25.757C12.407 27.2568 13.0763 28.7689 13.7456 30.281C14.0555 30.9875 13.8448 31.5576 13.2127 31.8427C12.593 32.1277 12.0104 31.9046 11.6758 31.223C11.3535 30.5661 11.0684 29.8968 10.5851 29.2151C9.97774 31.1858 9.30844 33.1317 8.77549 35.1272C7.62281 39.3908 8.06901 43.6421 9.28365 47.7942C12.5682 59.0607 19.9304 66.4601 31.011 70.1785C34.3079 71.2816 37.7287 71.7154 41.1991 71.6782C41.5214 71.6782 41.8437 71.6534 42.1659 71.6782C42.8724 71.703 43.3062 72.1368 43.3186 72.7937C43.3186 73.4382 42.8848 73.9339 42.1907 73.9216C40.3563 73.8844 38.4972 73.9216 36.6752 73.7232C30.007 72.9548 24.0082 70.4635 18.7901 66.2247C11.8493 60.5852 7.68478 53.3469 6.20985 44.5097C5.34225 39.2917 6.25943 34.3587 8.11858 29.5125C8.20534 29.277 8.29211 29.0416 8.37887 28.7937C8.39126 28.7565 8.39126 28.7069 8.41605 28.521L8.40365 28.5334Z" fill="#2563EB"/>
<path d="M69.0996 18.3825C69.0996 17.8247 69.0872 17.4157 69.0996 17.0191C69.1244 16.3002 69.6078 15.792 70.2399 15.792C70.8472 15.792 71.3554 16.2506 71.3678 16.9447C71.405 18.5808 71.4174 20.2168 71.405 21.8405C71.405 22.5222 70.872 23.018 70.1283 23.018C68.4303 23.0427 66.7199 23.0427 65.0219 23.018C64.2286 23.018 63.77 22.5222 63.7824 21.8281C63.8072 21.1712 64.2658 20.7374 65.0219 20.725C65.9638 20.7126 66.9058 20.725 67.9965 20.725C67.7486 20.4027 67.5875 20.1672 67.4016 19.9565C61.3036 12.9165 53.6562 8.55373 44.41 7.53739C32.8585 6.26077 23.1785 10.227 15.5312 19.027C15.3452 19.2377 15.1841 19.4608 15.0106 19.6715C14.5024 20.254 13.8207 20.3532 13.3126 19.9318C12.792 19.498 12.73 18.8287 13.263 18.2213C14.4652 16.8703 15.6427 15.4698 16.9689 14.2303C22.8314 8.86359 29.7351 5.85176 37.6179 5.14528C45.4636 4.4264 52.7019 6.4095 59.4568 10.3385C62.9396 12.3712 66.0134 14.912 68.6906 17.9363C68.7897 18.0478 68.9013 18.1594 69.112 18.3825H69.0996Z" fill="#2563EB"/>
<path d="M44.1987 35.1646C44.1243 34.4829 43.8021 33.9623 43.2567 33.5781C42.699 33.2063 42.0049 33.0204 41.1621 33.0204C40.5547 33.0204 40.0342 33.1195 39.6004 33.3054C39.1666 33.4914 38.8195 33.7516 38.584 34.0739C38.3485 34.3961 38.2246 34.768 38.2246 35.1894C38.2246 35.5364 38.3113 35.8339 38.4725 36.0942C38.6336 36.3421 38.8567 36.5652 39.1294 36.7263C39.4021 36.8998 39.6871 37.0362 39.997 37.1477C40.3068 37.2592 40.6043 37.346 40.8894 37.4204L42.3271 37.7922C42.7981 37.9038 43.2815 38.0649 43.7649 38.2632C44.2482 38.4615 44.7192 38.7218 45.1282 39.0316C45.5373 39.3415 45.8843 39.7505 46.1446 40.2215C46.4049 40.6925 46.5412 41.2626 46.5412 41.9195C46.5412 42.75 46.3305 43.4936 45.8967 44.1381C45.4629 44.7826 44.8556 45.2908 44.0375 45.6626C43.2319 46.0345 42.2528 46.2204 41.1001 46.2204C39.9474 46.2204 39.055 46.0469 38.2494 45.6998C37.4437 45.3528 36.8116 44.857 36.3654 44.2125C35.9068 43.568 35.659 42.8119 35.6094 41.9195H37.828C37.8651 42.4525 38.0387 42.8863 38.3485 43.2457C38.646 43.5928 39.0426 43.8531 39.5136 44.0266C39.9846 44.2001 40.5175 44.2869 41.0753 44.2869C41.7074 44.2869 42.2651 44.1877 42.7485 43.9894C43.2319 43.7911 43.6285 43.5184 43.9012 43.159C44.1863 42.7995 44.3226 42.3905 44.3226 41.9071C44.3226 41.4733 44.1987 41.1139 43.9508 40.8412C43.7029 40.5685 43.3682 40.3331 42.9592 40.1471C42.5378 39.9612 42.0668 39.8001 41.5463 39.6638L39.8111 39.1928C38.6336 38.8705 37.704 38.3995 37.0223 37.7798C36.3406 37.1601 35.9936 36.3421 35.9936 35.3133C35.9936 34.4705 36.2291 33.7269 36.6877 33.0947C37.1463 32.4626 37.766 31.9669 38.5468 31.6198C39.3277 31.2728 40.2201 31.0869 41.1992 31.0869C42.1784 31.0869 43.0708 31.2604 43.8392 31.6074C44.6077 31.9545 45.2026 32.4378 45.6488 33.0452C46.0826 33.6525 46.3181 34.359 46.3429 35.1398H44.2111L44.1987 35.1646ZM40.5175 47.8316V29.4756H41.695V47.8316H40.5175Z" fill="#2563EB"/>
</svg>
