<svg width="63" height="61" viewBox="0 0 63 61" fill="none" xmlns="http://www.w3.org/2000/svg">
<mask id="path-1-outside-1_257_1758" maskUnits="userSpaceOnUse" x="0" y="3.91309" width="63" height="52" fill="black">
<rect fill="white" y="3.91309" width="63" height="52"/>
<path d="M31.5079 4.91309C23.0988 4.91309 15.6502 9.0932 11.1389 15.4694C10.9814 15.692 10.8694 15.9433 10.8093 16.209C10.7492 16.4748 10.7421 16.7497 10.7884 17.0182C10.8348 17.2866 10.9336 17.5434 11.0794 17.7737C11.2252 18.004 11.4149 18.2035 11.6379 18.3606C11.8609 18.5177 12.1127 18.6294 12.379 18.6894C12.6452 18.7494 12.9207 18.7564 13.1897 18.7101C13.4587 18.6639 13.7159 18.5651 13.9467 18.4196C14.1774 18.2741 14.3772 18.0847 14.5346 17.8621C18.2994 12.541 24.4759 9.06109 31.5079 9.06109C42.4571 9.06109 51.3711 17.4579 52.2044 28.1673L50.2752 26.2418C50.0813 26.0432 49.8494 25.8855 49.5933 25.7779C49.3373 25.6703 49.0622 25.615 48.7843 25.6153C48.3713 25.616 47.9679 25.7394 47.6255 25.9699C47.2831 26.2004 47.0173 26.5275 46.862 26.9094C46.7066 27.2913 46.6688 27.7108 46.7534 28.1142C46.838 28.5177 47.041 28.8869 47.3367 29.1746L52.8971 34.7242C53.2868 35.113 53.8153 35.3314 54.3663 35.3314C54.9174 35.3314 55.4458 35.113 55.8356 34.7242L61.377 29.1935C61.5764 29.0024 61.7357 28.7735 61.8453 28.5202C61.955 28.2669 62.013 27.9943 62.0158 27.7184C62.0186 27.4425 61.9662 27.1688 61.8617 26.9133C61.7572 26.6578 61.6027 26.4257 61.4072 26.2306C61.2117 26.0355 60.9791 25.8813 60.7232 25.777C60.4672 25.6727 60.193 25.6204 59.9165 25.6232C59.6401 25.626 59.3669 25.6838 59.1131 25.7933C58.8594 25.9028 58.63 26.0617 58.4385 26.2607L56.3686 28.3266C55.5975 15.2926 44.7571 4.91309 31.5079 4.91309ZM31.5079 15.9744C30.3222 15.9744 29.1898 16.1375 28.1257 16.4038C27.732 16.5026 27.3758 16.7143 27.1012 17.0128C26.8266 17.3113 26.6457 17.6836 26.5807 18.0836L26.3643 19.4041C26.3162 19.6924 26.1427 19.943 25.888 20.09C25.6339 20.2354 25.3311 20.26 25.0601 20.1576L23.7992 19.6823C23.4202 19.5389 23.0074 19.5093 22.6117 19.5972C22.2161 19.685 21.8548 19.8863 21.5723 20.1765C20.0002 21.7943 18.8241 23.7959 18.1901 26.0258C18.0797 26.4149 18.0857 26.8277 18.2073 27.2135C18.329 27.5993 18.5609 27.9411 18.8747 28.197L19.9164 29.0477C20.1444 29.2339 20.2736 29.5064 20.2736 29.8011C20.2736 30.0959 20.1444 30.3683 19.9164 30.5546L18.8747 31.4053C18.5609 31.6612 18.329 32.003 18.2073 32.3888C18.0857 32.7745 18.0797 33.1874 18.1901 33.5765C18.8237 35.8052 19.9993 37.8076 21.575 39.4258C21.8573 39.7154 22.2181 39.9165 22.6132 40.0042C23.0083 40.092 23.4205 40.0628 23.7992 39.92L25.0601 39.4447C25.332 39.342 25.6361 39.3656 25.8908 39.5122C26.1438 39.6579 26.3165 39.9097 26.3643 40.2009L26.5807 41.5187C26.6457 41.9187 26.8266 42.291 27.1012 42.5895C27.3758 42.888 27.732 43.0997 28.1257 43.1984C29.1898 43.4648 30.3222 43.6278 31.5079 43.6278C32.6936 43.6278 33.8261 43.4648 34.8902 43.1984C35.2839 43.0997 35.6401 42.888 35.9147 42.5895C36.1892 42.291 36.3702 41.9187 36.4352 41.5187L36.6516 40.2009V40.1982C36.6997 39.9099 36.8732 39.6593 37.1278 39.5122C37.382 39.3669 37.6848 39.3423 37.9558 39.4447L39.2167 39.92C39.5957 40.0633 40.0085 40.0929 40.4041 40.0051C40.7998 39.9173 41.1611 39.7159 41.4436 39.4258C43.0157 37.808 44.1918 35.8064 44.8258 33.5765C44.9362 33.1874 44.9302 32.7745 44.8085 32.3888C44.6869 32.003 44.455 31.6612 44.1412 31.4053L43.0995 30.5546C42.8715 30.3683 42.7423 30.0959 42.7423 29.8011C42.7423 29.5064 42.8715 29.2339 43.0995 29.0477L44.1412 28.197C44.455 27.9411 44.6869 27.5993 44.8085 27.2135C44.9302 26.8277 44.9362 26.4149 44.8258 26.0258C44.1907 23.792 43.0086 21.7942 41.4408 20.1792C41.1587 19.8886 40.7975 19.6867 40.4019 19.5984C40.0062 19.5101 39.5933 19.5393 39.214 19.6823L37.9585 20.1576C37.6866 20.2603 37.3798 20.2367 37.1251 20.09C36.8728 19.9447 36.7 19.6943 36.6516 19.4041V19.4014L36.4324 18.0673C36.3667 17.6687 36.1857 17.2978 35.9117 17.0004C35.6377 16.703 35.2827 16.4919 34.8902 16.393C33.8089 16.1216 32.674 15.9744 31.5079 15.9744ZM31.5079 20.1225C31.8939 20.1225 32.2519 20.2161 32.6254 20.2602C32.9197 21.6903 33.7775 22.9492 35.0498 23.6817C36.2663 24.3822 37.7082 24.4818 39.0489 24.0895C39.5278 24.7199 39.9229 25.3982 40.2368 26.1338C39.224 27.0967 38.5862 28.3966 38.5862 29.8011C38.5862 31.2044 39.223 32.503 40.2341 33.4657C39.9208 34.2026 39.5295 34.8828 39.0516 35.5127C37.7096 35.1187 36.2651 35.2192 35.0471 35.9205C33.7789 36.653 32.9239 37.9101 32.6281 39.3367C32.255 39.3832 31.8877 39.4798 31.5079 39.4798C31.1282 39.4798 30.7609 39.3832 30.3878 39.3367C30.0922 37.9091 29.2393 36.6521 27.9688 35.9205C26.7508 35.2192 25.3063 35.1187 23.9642 35.5127C23.4868 34.8837 23.0923 34.2055 22.7791 33.4685C23.7919 32.5055 24.4296 31.2057 24.4296 29.8011C24.4296 28.3978 23.7929 27.0992 22.7818 26.1365C23.0951 25.3997 23.4864 24.7194 23.9642 24.0895C25.3063 24.4836 26.7508 24.383 27.9688 23.6817C29.237 22.9493 30.092 21.6922 30.3878 20.2656C30.7609 20.219 31.1282 20.1225 31.5079 20.1225ZM8.61979 24.2705C8.07903 24.2784 7.56265 24.4963 7.18032 24.8781L1.63889 30.4088C1.43945 30.5999 1.28023 30.8288 1.17055 31.0821C1.06086 31.3354 1.00292 31.608 1.00011 31.8839C0.997297 32.1598 1.04968 32.4335 1.15418 32.689C1.25868 32.9444 1.41321 33.1765 1.6087 33.3717C1.8042 33.5668 2.03674 33.721 2.2927 33.8253C2.54867 33.9296 2.82291 33.9819 3.09937 33.9791C3.37583 33.9763 3.64895 33.9184 3.90274 33.809C4.15653 33.6995 4.38588 33.5406 4.57736 33.3415L6.64728 31.2756C7.41843 44.3096 18.2588 54.6892 31.5079 54.6892C39.9171 54.6892 47.3657 50.5091 51.877 44.1328C52.0345 43.9103 52.1465 43.659 52.2066 43.3933C52.2667 43.1275 52.2738 42.8526 52.2275 42.5841C52.1811 42.3156 52.0823 42.0589 51.9365 41.8286C51.7907 41.5982 51.6009 41.3988 51.3779 41.2417C51.155 41.0846 50.9032 40.9729 50.6369 40.9129C50.3706 40.8529 50.0952 40.8458 49.8262 40.8921C49.5572 40.9384 49.3 41.0371 49.0692 41.1826C48.8384 41.3281 48.6387 41.5176 48.4813 41.7402C44.7165 47.0613 38.54 50.5412 31.5079 50.5412C20.5588 50.5412 11.6447 42.1444 10.8115 31.435L12.7407 33.3604C12.9322 33.5595 13.1615 33.7184 13.4153 33.8279C13.6691 33.9373 13.9422 33.9952 14.2187 33.998C14.4951 34.0008 14.7694 33.9485 15.0253 33.8442C15.2813 33.7399 15.5138 33.5857 15.7093 33.3906C15.9048 33.1954 16.0594 32.9633 16.1639 32.7079C16.2684 32.4524 16.3207 32.1787 16.3179 31.9028C16.3151 31.6269 16.2572 31.3543 16.1475 31.101C16.0378 30.8477 15.8786 30.6188 15.6792 30.4277L10.1188 24.8781C9.92232 24.6819 9.68844 24.5271 9.43096 24.4227C9.17349 24.3183 8.89766 24.2666 8.61979 24.2705ZM31.5079 27.0358C30.7731 27.0358 30.0684 27.3271 29.5488 27.8457C29.0291 28.3644 28.7372 29.0677 28.7372 29.8011C28.7372 30.5346 29.0291 31.2379 29.5488 31.7565C30.0684 32.2751 30.7731 32.5665 31.5079 32.5665C32.2428 32.5665 32.9475 32.2751 33.4671 31.7565C33.9867 31.2379 34.2787 30.5346 34.2787 29.8011C34.2787 29.0677 33.9867 28.3644 33.4671 27.8457C32.9475 27.3271 32.2428 27.0358 31.5079 27.0358Z"/>
</mask>
<path d="M31.5079 4.91309C23.0988 4.91309 15.6502 9.0932 11.1389 15.4694C10.9814 15.692 10.8694 15.9433 10.8093 16.209C10.7492 16.4748 10.7421 16.7497 10.7884 17.0182C10.8348 17.2866 10.9336 17.5434 11.0794 17.7737C11.2252 18.004 11.4149 18.2035 11.6379 18.3606C11.8609 18.5177 12.1127 18.6294 12.379 18.6894C12.6452 18.7494 12.9207 18.7564 13.1897 18.7101C13.4587 18.6639 13.7159 18.5651 13.9467 18.4196C14.1774 18.2741 14.3772 18.0847 14.5346 17.8621C18.2994 12.541 24.4759 9.06109 31.5079 9.06109C42.4571 9.06109 51.3711 17.4579 52.2044 28.1673L50.2752 26.2418C50.0813 26.0432 49.8494 25.8855 49.5933 25.7779C49.3373 25.6703 49.0622 25.615 48.7843 25.6153C48.3713 25.616 47.9679 25.7394 47.6255 25.9699C47.2831 26.2004 47.0173 26.5275 46.862 26.9094C46.7066 27.2913 46.6688 27.7108 46.7534 28.1142C46.838 28.5177 47.041 28.8869 47.3367 29.1746L52.8971 34.7242C53.2868 35.113 53.8153 35.3314 54.3663 35.3314C54.9174 35.3314 55.4458 35.113 55.8356 34.7242L61.377 29.1935C61.5764 29.0024 61.7357 28.7735 61.8453 28.5202C61.955 28.2669 62.013 27.9943 62.0158 27.7184C62.0186 27.4425 61.9662 27.1688 61.8617 26.9133C61.7572 26.6578 61.6027 26.4257 61.4072 26.2306C61.2117 26.0355 60.9791 25.8813 60.7232 25.777C60.4672 25.6727 60.193 25.6204 59.9165 25.6232C59.6401 25.626 59.3669 25.6838 59.1131 25.7933C58.8594 25.9028 58.63 26.0617 58.4385 26.2607L56.3686 28.3266C55.5975 15.2926 44.7571 4.91309 31.5079 4.91309ZM31.5079 15.9744C30.3222 15.9744 29.1898 16.1375 28.1257 16.4038C27.732 16.5026 27.3758 16.7143 27.1012 17.0128C26.8266 17.3113 26.6457 17.6836 26.5807 18.0836L26.3643 19.4041C26.3162 19.6924 26.1427 19.943 25.888 20.09C25.6339 20.2354 25.3311 20.26 25.0601 20.1576L23.7992 19.6823C23.4202 19.5389 23.0074 19.5093 22.6117 19.5972C22.2161 19.685 21.8548 19.8863 21.5723 20.1765C20.0002 21.7943 18.8241 23.7959 18.1901 26.0258C18.0797 26.4149 18.0857 26.8277 18.2073 27.2135C18.329 27.5993 18.5609 27.9411 18.8747 28.197L19.9164 29.0477C20.1444 29.2339 20.2736 29.5064 20.2736 29.8011C20.2736 30.0959 20.1444 30.3683 19.9164 30.5546L18.8747 31.4053C18.5609 31.6612 18.329 32.003 18.2073 32.3888C18.0857 32.7745 18.0797 33.1874 18.1901 33.5765C18.8237 35.8052 19.9993 37.8076 21.575 39.4258C21.8573 39.7154 22.2181 39.9165 22.6132 40.0042C23.0083 40.092 23.4205 40.0628 23.7992 39.92L25.0601 39.4447C25.332 39.342 25.6361 39.3656 25.8908 39.5122C26.1438 39.6579 26.3165 39.9097 26.3643 40.2009L26.5807 41.5187C26.6457 41.9187 26.8266 42.291 27.1012 42.5895C27.3758 42.888 27.732 43.0997 28.1257 43.1984C29.1898 43.4648 30.3222 43.6278 31.5079 43.6278C32.6936 43.6278 33.8261 43.4648 34.8902 43.1984C35.2839 43.0997 35.6401 42.888 35.9147 42.5895C36.1892 42.291 36.3702 41.9187 36.4352 41.5187L36.6516 40.2009V40.1982C36.6997 39.9099 36.8732 39.6593 37.1278 39.5122C37.382 39.3669 37.6848 39.3423 37.9558 39.4447L39.2167 39.92C39.5957 40.0633 40.0085 40.0929 40.4041 40.0051C40.7998 39.9173 41.1611 39.7159 41.4436 39.4258C43.0157 37.808 44.1918 35.8064 44.8258 33.5765C44.9362 33.1874 44.9302 32.7745 44.8085 32.3888C44.6869 32.003 44.455 31.6612 44.1412 31.4053L43.0995 30.5546C42.8715 30.3683 42.7423 30.0959 42.7423 29.8011C42.7423 29.5064 42.8715 29.2339 43.0995 29.0477L44.1412 28.197C44.455 27.9411 44.6869 27.5993 44.8085 27.2135C44.9302 26.8277 44.9362 26.4149 44.8258 26.0258C44.1907 23.792 43.0086 21.7942 41.4408 20.1792C41.1587 19.8886 40.7975 19.6867 40.4019 19.5984C40.0062 19.5101 39.5933 19.5393 39.214 19.6823L37.9585 20.1576C37.6866 20.2603 37.3798 20.2367 37.1251 20.09C36.8728 19.9447 36.7 19.6943 36.6516 19.4041V19.4014L36.4324 18.0673C36.3667 17.6687 36.1857 17.2978 35.9117 17.0004C35.6377 16.703 35.2827 16.4919 34.8902 16.393C33.8089 16.1216 32.674 15.9744 31.5079 15.9744ZM31.5079 20.1225C31.8939 20.1225 32.2519 20.2161 32.6254 20.2602C32.9197 21.6903 33.7775 22.9492 35.0498 23.6817C36.2663 24.3822 37.7082 24.4818 39.0489 24.0895C39.5278 24.7199 39.9229 25.3982 40.2368 26.1338C39.224 27.0967 38.5862 28.3966 38.5862 29.8011C38.5862 31.2044 39.223 32.503 40.2341 33.4657C39.9208 34.2026 39.5295 34.8828 39.0516 35.5127C37.7096 35.1187 36.2651 35.2192 35.0471 35.9205C33.7789 36.653 32.9239 37.9101 32.6281 39.3367C32.255 39.3832 31.8877 39.4798 31.5079 39.4798C31.1282 39.4798 30.7609 39.3832 30.3878 39.3367C30.0922 37.9091 29.2393 36.6521 27.9688 35.9205C26.7508 35.2192 25.3063 35.1187 23.9642 35.5127C23.4868 34.8837 23.0923 34.2055 22.7791 33.4685C23.7919 32.5055 24.4296 31.2057 24.4296 29.8011C24.4296 28.3978 23.7929 27.0992 22.7818 26.1365C23.0951 25.3997 23.4864 24.7194 23.9642 24.0895C25.3063 24.4836 26.7508 24.383 27.9688 23.6817C29.237 22.9493 30.092 21.6922 30.3878 20.2656C30.7609 20.219 31.1282 20.1225 31.5079 20.1225ZM8.61979 24.2705C8.07903 24.2784 7.56265 24.4963 7.18032 24.8781L1.63889 30.4088C1.43945 30.5999 1.28023 30.8288 1.17055 31.0821C1.06086 31.3354 1.00292 31.608 1.00011 31.8839C0.997297 32.1598 1.04968 32.4335 1.15418 32.689C1.25868 32.9444 1.41321 33.1765 1.6087 33.3717C1.8042 33.5668 2.03674 33.721 2.2927 33.8253C2.54867 33.9296 2.82291 33.9819 3.09937 33.9791C3.37583 33.9763 3.64895 33.9184 3.90274 33.809C4.15653 33.6995 4.38588 33.5406 4.57736 33.3415L6.64728 31.2756C7.41843 44.3096 18.2588 54.6892 31.5079 54.6892C39.9171 54.6892 47.3657 50.5091 51.877 44.1328C52.0345 43.9103 52.1465 43.659 52.2066 43.3933C52.2667 43.1275 52.2738 42.8526 52.2275 42.5841C52.1811 42.3156 52.0823 42.0589 51.9365 41.8286C51.7907 41.5982 51.6009 41.3988 51.3779 41.2417C51.155 41.0846 50.9032 40.9729 50.6369 40.9129C50.3706 40.8529 50.0952 40.8458 49.8262 40.8921C49.5572 40.9384 49.3 41.0371 49.0692 41.1826C48.8384 41.3281 48.6387 41.5176 48.4813 41.7402C44.7165 47.0613 38.54 50.5412 31.5079 50.5412C20.5588 50.5412 11.6447 42.1444 10.8115 31.435L12.7407 33.3604C12.9322 33.5595 13.1615 33.7184 13.4153 33.8279C13.6691 33.9373 13.9422 33.9952 14.2187 33.998C14.4951 34.0008 14.7694 33.9485 15.0253 33.8442C15.2813 33.7399 15.5138 33.5857 15.7093 33.3906C15.9048 33.1954 16.0594 32.9633 16.1639 32.7079C16.2684 32.4524 16.3207 32.1787 16.3179 31.9028C16.3151 31.6269 16.2572 31.3543 16.1475 31.101C16.0378 30.8477 15.8786 30.6188 15.6792 30.4277L10.1188 24.8781C9.92232 24.6819 9.68844 24.5271 9.43096 24.4227C9.17349 24.3183 8.89766 24.2666 8.61979 24.2705ZM31.5079 27.0358C30.7731 27.0358 30.0684 27.3271 29.5488 27.8457C29.0291 28.3644 28.7372 29.0677 28.7372 29.8011C28.7372 30.5346 29.0291 31.2379 29.5488 31.7565C30.0684 32.2751 30.7731 32.5665 31.5079 32.5665C32.2428 32.5665 32.9475 32.2751 33.4671 31.7565C33.9867 31.2379 34.2787 30.5346 34.2787 29.8011C34.2787 29.0677 33.9867 28.3644 33.4671 27.8457C32.9475 27.3271 32.2428 27.0358 31.5079 27.0358Z" fill="#2563EB"/>
<path d="M31.5079 4.91309C23.0988 4.91309 15.6502 9.0932 11.1389 15.4694C10.9814 15.692 10.8694 15.9433 10.8093 16.209C10.7492 16.4748 10.7421 16.7497 10.7884 17.0182C10.8348 17.2866 10.9336 17.5434 11.0794 17.7737C11.2252 18.004 11.4149 18.2035 11.6379 18.3606C11.8609 18.5177 12.1127 18.6294 12.379 18.6894C12.6452 18.7494 12.9207 18.7564 13.1897 18.7101C13.4587 18.6639 13.7159 18.5651 13.9467 18.4196C14.1774 18.2741 14.3772 18.0847 14.5346 17.8621C18.2994 12.541 24.4759 9.06109 31.5079 9.06109C42.4571 9.06109 51.3711 17.4579 52.2044 28.1673L50.2752 26.2418C50.0813 26.0432 49.8494 25.8855 49.5933 25.7779C49.3373 25.6703 49.0622 25.615 48.7843 25.6153C48.3713 25.616 47.9679 25.7394 47.6255 25.9699C47.2831 26.2004 47.0173 26.5275 46.862 26.9094C46.7066 27.2913 46.6688 27.7108 46.7534 28.1142C46.838 28.5177 47.041 28.8869 47.3367 29.1746L52.8971 34.7242C53.2868 35.113 53.8153 35.3314 54.3663 35.3314C54.9174 35.3314 55.4458 35.113 55.8356 34.7242L61.377 29.1935C61.5764 29.0024 61.7357 28.7735 61.8453 28.5202C61.955 28.2669 62.013 27.9943 62.0158 27.7184C62.0186 27.4425 61.9662 27.1688 61.8617 26.9133C61.7572 26.6578 61.6027 26.4257 61.4072 26.2306C61.2117 26.0355 60.9791 25.8813 60.7232 25.777C60.4672 25.6727 60.193 25.6204 59.9165 25.6232C59.6401 25.626 59.3669 25.6838 59.1131 25.7933C58.8594 25.9028 58.63 26.0617 58.4385 26.2607L56.3686 28.3266C55.5975 15.2926 44.7571 4.91309 31.5079 4.91309ZM31.5079 15.9744C30.3222 15.9744 29.1898 16.1375 28.1257 16.4038C27.732 16.5026 27.3758 16.7143 27.1012 17.0128C26.8266 17.3113 26.6457 17.6836 26.5807 18.0836L26.3643 19.4041C26.3162 19.6924 26.1427 19.943 25.888 20.09C25.6339 20.2354 25.3311 20.26 25.0601 20.1576L23.7992 19.6823C23.4202 19.5389 23.0074 19.5093 22.6117 19.5972C22.2161 19.685 21.8548 19.8863 21.5723 20.1765C20.0002 21.7943 18.8241 23.7959 18.1901 26.0258C18.0797 26.4149 18.0857 26.8277 18.2073 27.2135C18.329 27.5993 18.5609 27.9411 18.8747 28.197L19.9164 29.0477C20.1444 29.2339 20.2736 29.5064 20.2736 29.8011C20.2736 30.0959 20.1444 30.3683 19.9164 30.5546L18.8747 31.4053C18.5609 31.6612 18.329 32.003 18.2073 32.3888C18.0857 32.7745 18.0797 33.1874 18.1901 33.5765C18.8237 35.8052 19.9993 37.8076 21.575 39.4258C21.8573 39.7154 22.2181 39.9165 22.6132 40.0042C23.0083 40.092 23.4205 40.0628 23.7992 39.92L25.0601 39.4447C25.332 39.342 25.6361 39.3656 25.8908 39.5122C26.1438 39.6579 26.3165 39.9097 26.3643 40.2009L26.5807 41.5187C26.6457 41.9187 26.8266 42.291 27.1012 42.5895C27.3758 42.888 27.732 43.0997 28.1257 43.1984C29.1898 43.4648 30.3222 43.6278 31.5079 43.6278C32.6936 43.6278 33.8261 43.4648 34.8902 43.1984C35.2839 43.0997 35.6401 42.888 35.9147 42.5895C36.1892 42.291 36.3702 41.9187 36.4352 41.5187L36.6516 40.2009V40.1982C36.6997 39.9099 36.8732 39.6593 37.1278 39.5122C37.382 39.3669 37.6848 39.3423 37.9558 39.4447L39.2167 39.92C39.5957 40.0633 40.0085 40.0929 40.4041 40.0051C40.7998 39.9173 41.1611 39.7159 41.4436 39.4258C43.0157 37.808 44.1918 35.8064 44.8258 33.5765C44.9362 33.1874 44.9302 32.7745 44.8085 32.3888C44.6869 32.003 44.455 31.6612 44.1412 31.4053L43.0995 30.5546C42.8715 30.3683 42.7423 30.0959 42.7423 29.8011C42.7423 29.5064 42.8715 29.2339 43.0995 29.0477L44.1412 28.197C44.455 27.9411 44.6869 27.5993 44.8085 27.2135C44.9302 26.8277 44.9362 26.4149 44.8258 26.0258C44.1907 23.792 43.0086 21.7942 41.4408 20.1792C41.1587 19.8886 40.7975 19.6867 40.4019 19.5984C40.0062 19.5101 39.5933 19.5393 39.214 19.6823L37.9585 20.1576C37.6866 20.2603 37.3798 20.2367 37.1251 20.09C36.8728 19.9447 36.7 19.6943 36.6516 19.4041V19.4014L36.4324 18.0673C36.3667 17.6687 36.1857 17.2978 35.9117 17.0004C35.6377 16.703 35.2827 16.4919 34.8902 16.393C33.8089 16.1216 32.674 15.9744 31.5079 15.9744ZM31.5079 20.1225C31.8939 20.1225 32.2519 20.2161 32.6254 20.2602C32.9197 21.6903 33.7775 22.9492 35.0498 23.6817C36.2663 24.3822 37.7082 24.4818 39.0489 24.0895C39.5278 24.7199 39.9229 25.3982 40.2368 26.1338C39.224 27.0967 38.5862 28.3966 38.5862 29.8011C38.5862 31.2044 39.223 32.503 40.2341 33.4657C39.9208 34.2026 39.5295 34.8828 39.0516 35.5127C37.7096 35.1187 36.2651 35.2192 35.0471 35.9205C33.7789 36.653 32.9239 37.9101 32.6281 39.3367C32.255 39.3832 31.8877 39.4798 31.5079 39.4798C31.1282 39.4798 30.7609 39.3832 30.3878 39.3367C30.0922 37.9091 29.2393 36.6521 27.9688 35.9205C26.7508 35.2192 25.3063 35.1187 23.9642 35.5127C23.4868 34.8837 23.0923 34.2055 22.7791 33.4685C23.7919 32.5055 24.4296 31.2057 24.4296 29.8011C24.4296 28.3978 23.7929 27.0992 22.7818 26.1365C23.0951 25.3997 23.4864 24.7194 23.9642 24.0895C25.3063 24.4836 26.7508 24.383 27.9688 23.6817C29.237 22.9493 30.092 21.6922 30.3878 20.2656C30.7609 20.219 31.1282 20.1225 31.5079 20.1225ZM8.61979 24.2705C8.07903 24.2784 7.56265 24.4963 7.18032 24.8781L1.63889 30.4088C1.43945 30.5999 1.28023 30.8288 1.17055 31.0821C1.06086 31.3354 1.00292 31.608 1.00011 31.8839C0.997297 32.1598 1.04968 32.4335 1.15418 32.689C1.25868 32.9444 1.41321 33.1765 1.6087 33.3717C1.8042 33.5668 2.03674 33.721 2.2927 33.8253C2.54867 33.9296 2.82291 33.9819 3.09937 33.9791C3.37583 33.9763 3.64895 33.9184 3.90274 33.809C4.15653 33.6995 4.38588 33.5406 4.57736 33.3415L6.64728 31.2756C7.41843 44.3096 18.2588 54.6892 31.5079 54.6892C39.9171 54.6892 47.3657 50.5091 51.877 44.1328C52.0345 43.9103 52.1465 43.659 52.2066 43.3933C52.2667 43.1275 52.2738 42.8526 52.2275 42.5841C52.1811 42.3156 52.0823 42.0589 51.9365 41.8286C51.7907 41.5982 51.6009 41.3988 51.3779 41.2417C51.155 41.0846 50.9032 40.9729 50.6369 40.9129C50.3706 40.8529 50.0952 40.8458 49.8262 40.8921C49.5572 40.9384 49.3 41.0371 49.0692 41.1826C48.8384 41.3281 48.6387 41.5176 48.4813 41.7402C44.7165 47.0613 38.54 50.5412 31.5079 50.5412C20.5588 50.5412 11.6447 42.1444 10.8115 31.435L12.7407 33.3604C12.9322 33.5595 13.1615 33.7184 13.4153 33.8279C13.6691 33.9373 13.9422 33.9952 14.2187 33.998C14.4951 34.0008 14.7694 33.9485 15.0253 33.8442C15.2813 33.7399 15.5138 33.5857 15.7093 33.3906C15.9048 33.1954 16.0594 32.9633 16.1639 32.7079C16.2684 32.4524 16.3207 32.1787 16.3179 31.9028C16.3151 31.6269 16.2572 31.3543 16.1475 31.101C16.0378 30.8477 15.8786 30.6188 15.6792 30.4277L10.1188 24.8781C9.92232 24.6819 9.68844 24.5271 9.43096 24.4227C9.17349 24.3183 8.89766 24.2666 8.61979 24.2705ZM31.5079 27.0358C30.7731 27.0358 30.0684 27.3271 29.5488 27.8457C29.0291 28.3644 28.7372 29.0677 28.7372 29.8011C28.7372 30.5346 29.0291 31.2379 29.5488 31.7565C30.0684 32.2751 30.7731 32.5665 31.5079 32.5665C32.2428 32.5665 32.9475 32.2751 33.4671 31.7565C33.9867 31.2379 34.2787 30.5346 34.2787 29.8011C34.2787 29.0677 33.9867 28.3644 33.4671 27.8457C32.9475 27.3271 32.2428 27.0358 31.5079 27.0358Z" stroke="#2563EB" stroke-width="0.6" mask="url(#path-1-outside-1_257_1758)"/>
</svg>
