<svg width="80" height="80" viewBox="0 0 80 80" fill="none" xmlns="http://www.w3.org/2000/svg">
<circle cx="40" cy="40" r="40" fill="white"/>
<path d="M5.85 27.0373V27.0334V27.029V27.0246H5.93815L5.85308 27.0071L5.85336 27.0057C5.94225 26.574 6.03176 26.1392 6.13416 25.7167C7.59476 19.347 14.7243 15.8081 20.6811 18.5217L20.6818 18.522C20.8618 18.6051 21.0535 18.7318 21.2133 18.8813C21.3708 19.0287 21.5103 19.2103 21.5655 19.4066M5.85 27.0373L21.1793 36.5116M5.85 27.0373V27.0378V27.0422V27.0466V27.051V27.0554V27.0598V27.0642V27.0686V27.073V27.0774V27.0818V27.0862V27.0907V27.0951V27.0995V27.1039V27.1083V27.1127V27.1171V27.1215V27.1259V27.1303V27.1347V27.1391V27.1436V27.148V27.1524V27.1568V27.1612V27.1656V27.17V27.1744V27.1788V27.1833V27.1877V27.1921V27.1965V27.2009V27.2053V27.2097V27.2141V27.2186V27.223V27.2274V27.2318V27.2362V27.2406V27.245V27.2495V27.2539V27.2583V27.2627V27.2671V27.2715V27.276V27.2804V27.2848V27.2892V27.2936V27.298V27.3025V27.3069V27.3113V27.3157V27.3201V27.3246V27.329V27.3334V27.3378V27.3422V27.3467V27.3511V27.3555V27.3599V27.3643V27.3688V27.3732V27.3776V27.382V27.3865V27.3909V27.3953V27.3997V27.4041V27.4086V27.413V27.4174V27.4218V27.4263V27.4307V27.4351V27.4395V27.444V27.4484V27.4528V27.4572V27.4617V27.4661V27.4705V27.4749V27.4794V27.4838V27.4882V27.4926V27.4971V27.5015V27.5059V27.5104V27.5148V27.5192V27.5236V27.5281V27.5325V27.5369V27.5413V27.5458V27.5502V27.5546V27.5591V27.5635V27.5679V27.5723V27.5768V27.5812V27.5856V27.5901V27.5945V27.5989V27.6034V27.6078V27.6122V27.6167V27.6211V27.6255V27.6299V27.6344V27.6388V27.6432V27.6477V27.6521V27.6565V27.661V27.6654V27.6698V27.6743V27.6787V27.6831V27.6876V27.692V27.6964V27.7009V27.7053V27.7097V27.7142V27.7186V27.723V27.7275V27.7319V27.7363V27.7408V27.7452V27.7496V27.7541V27.7585V27.7629V27.7674V27.7718V27.7763V27.7807V27.7851V27.7896V27.794V27.7984V27.8029V27.8073V27.8117V27.8162V27.8206V27.8251V27.8295V27.8339V27.8384V27.8428V27.8472V27.8517V27.8561V27.8605V27.865V27.8694V27.8739V27.8783V27.8827V27.8872V27.8916V27.896V27.9005V27.9049V27.9094V27.9138V27.9182V27.9227V27.9271V27.9315V27.936V27.9404V27.9449V27.9493V27.9537V27.9582V27.9626V27.9671V27.9715V27.9759V27.9804V27.9848V27.9892V27.9937V27.9981V28.0026V28.007V28.0114V28.0159V28.0203V28.0248V28.0292V28.0336V28.0381V28.0425V28.047V28.0514V28.0558V28.0603V28.0647V28.0691V28.0736V28.078V28.0825V28.0869V28.0913V28.0958V28.1002V28.1047V28.1091V28.1135V28.118V28.1224V28.1269V28.1313V28.1357V28.1402V28.1446V28.1491V28.1535V28.1579V28.1624V28.1668V28.1713V28.1757V28.1801V28.1846V28.189V28.1935V28.1979V28.2023V28.2068V28.2112V28.2157V28.2201V28.2245V28.229V28.2334V28.2379V28.2423V28.2467V28.2512V28.2556V28.26V28.2645V28.2689V28.2734V28.2778V28.2822V28.2867V28.2911V28.2956V28.3V28.3044V28.3089V28.3133V28.3178V28.3222V28.3266V28.3311V28.3355V28.3399V28.3444V28.3488V28.3533V28.3577V28.3621V28.3666V28.371V28.3755V28.3799V28.3843V28.3888V28.3932V28.3976V28.4021V28.4065V28.411V28.4154V28.4198V28.4243V28.4287V28.4331V28.4376V28.442V28.4465V28.4509V28.4553V28.4598V28.4642V28.4686V28.4731V28.4775V28.482V28.4864V28.4908V28.4953V28.4997V28.5041V28.5086V28.513V28.5174V28.5219V28.5263V28.5308V28.5352V28.5396V28.5441V28.5485V28.5529V28.5574V28.5618V28.5662V28.5707V28.5751V28.5795V28.584V28.5884V28.5928V28.5973V28.6017V28.6061V28.6106V28.615V28.6194V28.6239V28.6283V28.6327V28.6372V28.6416V28.646V28.6505V28.6549V28.6593V28.6638V28.6682V28.6726V28.6771V28.6815V28.6859V28.6904V28.6948V28.6992V28.7037V28.7081V28.7125V28.7169V28.7214V28.7258V28.7302V28.7347V28.7391V28.7435V28.748V28.7524V28.7568V28.7612V28.7657V28.7701V28.7745V28.779V28.7834V28.7878V28.7922V28.7967V28.8011V28.8055V28.81V28.8144V28.8188V28.8232V28.8277V28.8321V28.8365V28.8409V28.8454V28.8498V28.8542V28.8586V28.8631V28.8675V28.8719V28.8763V28.8808V28.8852V28.8896V28.894V28.8985V28.9029V28.9073V28.9117V28.9162V28.9206V28.925V28.9294V28.9339V28.9383V28.9427V28.9471V28.9515V28.956V28.9604V28.9648V28.9692V28.9736V28.9781V28.9825V28.9869V28.9913V28.9957V29.0002V29.0046V29.009V29.0134V29.0178V29.0223V29.0267V29.0311V29.0355V29.0399V29.0443V29.0488V29.0532V29.0576V29.062V29.0664V29.0708V29.0753V29.0797V29.0841V29.0885V29.0929V29.0973V29.1017V29.1062V29.1106V29.115V29.1194V29.1238V29.1282V29.1326V29.137V29.1415V29.1459V29.1503V29.1547V29.1591V29.1635V29.1679V29.1723V29.1767V29.1811V29.1856V29.19V29.1944V29.1988V29.2032V29.2076V29.212V29.2164V29.2208V29.2252V29.2296V29.234V29.2384V29.2428V29.2473V29.2517V29.2561V29.2605V29.2649V29.2693V29.2737V29.2781V29.2825V29.2869V29.2913V29.3156L5.8577 29.3387C5.86432 29.3586 5.87084 29.378 5.87722 29.3969C5.92158 29.5288 5.95908 29.6403 5.97926 29.7609M5.85 27.0373L6 29.2913C6.00642 29.3105 6.01284 29.3296 6.0192 29.3485C6.06337 29.4796 6.10508 29.6034 6.12734 29.737M21.5655 19.4066C21.6212 19.5985 21.5943 19.847 21.5297 20.0596C21.4659 20.2695 21.3509 20.4912 21.1876 20.603L21.1861 20.604L21.1861 20.604C21.0073 20.7231 20.7656 20.7953 20.5284 20.8209C20.2917 20.8465 20.0392 20.8278 19.8373 20.7458C18.4661 20.2049 17.0769 19.9309 15.616 20.0682C12.0647 20.4184 9.06427 23.1459 8.43978 26.6055L8.30213 26.5807L8.43978 26.6055C7.78901 30.2098 9.5161 33.7597 12.7273 35.3716L12.7274 35.3716C14.8664 36.4474 17.0643 36.5481 19.3188 35.7343C19.589 35.6314 19.9029 35.5339 20.1987 35.5339C20.4986 35.5339 20.7545 35.6274 20.9501 35.7986C21.1446 35.9688 21.2699 36.2071 21.3261 36.4812M21.5655 19.4066C21.5654 19.4063 21.5653 19.406 21.5652 19.4057L21.4212 19.4477L21.5657 19.4072C21.5656 19.407 21.5655 19.4068 21.5655 19.4066ZM21.3261 36.4812C21.3262 36.4813 21.3262 36.4814 21.3262 36.4815L21.1793 36.5116M21.3261 36.4812C21.3261 36.4811 21.3261 36.481 21.3261 36.4809L21.1793 36.5116M21.3261 36.4812C21.3898 36.7855 21.3524 37.0623 21.219 37.2972C21.0865 37.5305 20.8673 37.7085 20.5914 37.8327L20.591 37.8329C19.2583 38.4281 17.8491 38.6991 16.3912 38.6991H16.3908C11.1853 38.6862 6.78047 34.9016 5.97926 29.7609M21.1793 36.5116C21.2939 37.0592 21.0392 37.4667 20.5298 37.6959C19.2182 38.2817 17.8301 38.5491 16.3912 38.5491C11.2593 38.5364 6.91687 34.8052 6.12734 29.737M5.97926 29.7609C5.9793 29.7611 5.97934 29.7614 5.97938 29.7616L6.12734 29.737M5.97926 29.7609C5.97921 29.7606 5.97917 29.7603 5.97913 29.7601L6.12734 29.737M6 27.0526V27.0373V27.0526Z" fill="#2563EB" stroke="#2563EB" stroke-width="0.3"/>
<mask id="path-3-outside-1_257_1849" maskUnits="userSpaceOnUse" x="16.8535" y="33.5352" width="35" height="41" fill="black">
<rect fill="white" x="16.8535" y="33.5352" width="35" height="41"/>
<path d="M34.6264 44.0124C37.377 41.2618 40.1021 38.5367 42.8145 35.8116C43.7441 34.8692 44.852 34.3853 46.1764 34.5763C47.7172 34.8056 48.7869 35.6842 49.2836 37.1614C49.7802 38.6513 49.4236 39.9757 48.3412 41.0836C46.482 42.9682 44.6101 44.8274 42.7254 46.6994C42.5471 46.8649 42.3561 47.0177 42.1014 47.2342C43.7823 47.9728 44.661 49.1825 44.7501 50.9017C47.8828 51.2073 49.1562 53.7542 48.3922 56.2501C48.5577 56.3265 48.736 56.4029 48.9143 56.492C51.3083 57.549 52.0596 60.6052 50.2641 62.5026C47.7045 65.1895 45.1449 67.9019 42.3561 70.3342C38.0774 74.0653 33.0473 74.9695 27.7117 73.0593C22.3251 71.1237 19.0524 67.1633 18.0846 61.5221C17.2696 56.7212 18.6194 52.4425 21.994 48.8897C24.006 46.7758 26.0944 44.751 28.1574 42.7008C30.2076 40.6633 33.1492 41.1854 34.4736 43.7705C34.4991 43.8342 34.55 43.8724 34.6391 44.0124H34.6264ZM32.1814 71.8368C36.18 71.7732 39.2107 70.5507 41.7067 68.0547C43.9352 65.839 46.1382 63.6232 48.3539 61.4075C48.4431 61.3183 48.545 61.2164 48.6341 61.1146C49.2581 60.376 49.2199 59.4082 48.5577 58.7715C47.921 58.1602 46.9659 58.1475 46.2655 58.7587C46.0618 58.937 45.8835 59.128 45.6925 59.319C45.1322 59.8539 44.4955 59.8793 44.0498 59.4209C43.6168 58.9752 43.6677 58.3512 44.1771 57.8291C44.7501 57.2433 45.3487 56.6703 45.9217 56.0718C46.6476 55.3205 46.673 54.3017 46.0108 53.6268C45.3359 52.9392 44.3299 52.9519 43.5659 53.665C43.1456 54.0598 42.7509 54.48 42.3306 54.8875C41.7703 55.4351 41.1463 55.486 40.6879 55.0403C40.2167 54.5819 40.2549 53.9706 40.8153 53.3976C41.2228 52.9774 41.6685 52.6081 42.025 52.1624C42.267 51.8695 42.4834 51.4875 42.5599 51.1182C42.6999 50.4305 42.3434 49.7811 41.7321 49.4372C41.0699 49.0679 40.3568 49.1316 39.7583 49.6792C39.1598 50.2395 38.5995 50.8507 37.9882 51.3983C37.5425 51.8058 36.944 51.7676 36.5365 51.3728C36.1418 50.9908 36.1163 50.3923 36.4856 49.9211C36.6257 49.7429 36.7912 49.6028 36.944 49.4372C40.1149 46.2664 43.2984 43.0828 46.4693 39.912C47.5008 38.8805 47.6154 37.9127 46.8131 37.1359C46.0363 36.3846 45.094 36.5119 44.088 37.5307C38.9433 42.6753 33.8114 47.8072 28.6668 52.9519C28.5267 53.092 28.3866 53.2448 28.2338 53.3721C27.7244 53.8051 27.1641 53.8051 26.7311 53.3721C26.3109 52.9519 26.2982 52.3661 26.7184 51.8695C26.833 51.7294 26.9604 51.6148 27.0877 51.4875C28.7177 49.8575 30.3604 48.2275 31.9904 46.5848C32.7799 45.7952 32.8181 44.802 32.1305 44.0888C31.4428 43.3757 30.4241 43.3885 29.6473 44.1652C27.5589 46.2282 25.4195 48.2402 23.4457 50.405C19.791 54.4163 18.9123 59.1026 21.0262 64.0689C23.1528 69.0862 27.2278 71.5439 32.1687 71.8114L32.1814 71.8368Z"/>
</mask>
<path d="M34.6264 44.0124C37.377 41.2618 40.1021 38.5367 42.8145 35.8116C43.7441 34.8692 44.852 34.3853 46.1764 34.5763C47.7172 34.8056 48.7869 35.6842 49.2836 37.1614C49.7802 38.6513 49.4236 39.9757 48.3412 41.0836C46.482 42.9682 44.6101 44.8274 42.7254 46.6994C42.5471 46.8649 42.3561 47.0177 42.1014 47.2342C43.7823 47.9728 44.661 49.1825 44.7501 50.9017C47.8828 51.2073 49.1562 53.7542 48.3922 56.2501C48.5577 56.3265 48.736 56.4029 48.9143 56.492C51.3083 57.549 52.0596 60.6052 50.2641 62.5026C47.7045 65.1895 45.1449 67.9019 42.3561 70.3342C38.0774 74.0653 33.0473 74.9695 27.7117 73.0593C22.3251 71.1237 19.0524 67.1633 18.0846 61.5221C17.2696 56.7212 18.6194 52.4425 21.994 48.8897C24.006 46.7758 26.0944 44.751 28.1574 42.7008C30.2076 40.6633 33.1492 41.1854 34.4736 43.7705C34.4991 43.8342 34.55 43.8724 34.6391 44.0124H34.6264ZM32.1814 71.8368C36.18 71.7732 39.2107 70.5507 41.7067 68.0547C43.9352 65.839 46.1382 63.6232 48.3539 61.4075C48.4431 61.3183 48.545 61.2164 48.6341 61.1146C49.2581 60.376 49.2199 59.4082 48.5577 58.7715C47.921 58.1602 46.9659 58.1475 46.2655 58.7587C46.0618 58.937 45.8835 59.128 45.6925 59.319C45.1322 59.8539 44.4955 59.8793 44.0498 59.4209C43.6168 58.9752 43.6677 58.3512 44.1771 57.8291C44.7501 57.2433 45.3487 56.6703 45.9217 56.0718C46.6476 55.3205 46.673 54.3017 46.0108 53.6268C45.3359 52.9392 44.3299 52.9519 43.5659 53.665C43.1456 54.0598 42.7509 54.48 42.3306 54.8875C41.7703 55.4351 41.1463 55.486 40.6879 55.0403C40.2167 54.5819 40.2549 53.9706 40.8153 53.3976C41.2228 52.9774 41.6685 52.6081 42.025 52.1624C42.267 51.8695 42.4834 51.4875 42.5599 51.1182C42.6999 50.4305 42.3434 49.7811 41.7321 49.4372C41.0699 49.0679 40.3568 49.1316 39.7583 49.6792C39.1598 50.2395 38.5995 50.8507 37.9882 51.3983C37.5425 51.8058 36.944 51.7676 36.5365 51.3728C36.1418 50.9908 36.1163 50.3923 36.4856 49.9211C36.6257 49.7429 36.7912 49.6028 36.944 49.4372C40.1149 46.2664 43.2984 43.0828 46.4693 39.912C47.5008 38.8805 47.6154 37.9127 46.8131 37.1359C46.0363 36.3846 45.094 36.5119 44.088 37.5307C38.9433 42.6753 33.8114 47.8072 28.6668 52.9519C28.5267 53.092 28.3866 53.2448 28.2338 53.3721C27.7244 53.8051 27.1641 53.8051 26.7311 53.3721C26.3109 52.9519 26.2982 52.3661 26.7184 51.8695C26.833 51.7294 26.9604 51.6148 27.0877 51.4875C28.7177 49.8575 30.3604 48.2275 31.9904 46.5848C32.7799 45.7952 32.8181 44.802 32.1305 44.0888C31.4428 43.3757 30.4241 43.3885 29.6473 44.1652C27.5589 46.2282 25.4195 48.2402 23.4457 50.405C19.791 54.4163 18.9123 59.1026 21.0262 64.0689C23.1528 69.0862 27.2278 71.5439 32.1687 71.8114L32.1814 71.8368Z" fill="#2563EB"/>
<path d="M34.6264 44.0124L34.4143 43.8003L33.9021 44.3124H34.6264V44.0124ZM42.8145 35.8116L43.0272 36.0232L43.0281 36.0222L42.8145 35.8116ZM46.1764 34.5763L46.2205 34.2796L46.2192 34.2794L46.1764 34.5763ZM49.2836 37.1614L49.5682 37.0665L49.5679 37.0658L49.2836 37.1614ZM48.3412 41.0836L48.5548 41.2942L48.5558 41.2932L48.3412 41.0836ZM42.7254 46.6994L42.9296 46.9193L42.9368 46.9122L42.7254 46.6994ZM42.1014 47.2342L41.9071 47.0056L41.5419 47.316L41.9807 47.5089L42.1014 47.2342ZM44.7501 50.9017L44.4506 50.9172L44.4639 51.1752L44.721 51.2003L44.7501 50.9017ZM48.3922 56.2501L48.1053 56.1623L48.0286 56.4127L48.2664 56.5225L48.3922 56.2501ZM48.9143 56.492L48.7801 56.7604L48.7865 56.7636L48.7931 56.7665L48.9143 56.492ZM50.2641 62.5026L50.4813 62.7095L50.482 62.7088L50.2641 62.5026ZM42.3561 70.3342L42.5533 70.5603L42.5533 70.5603L42.3561 70.3342ZM27.7117 73.0593L27.6102 73.3416L27.6106 73.3418L27.7117 73.0593ZM18.0846 61.5221L17.7888 61.5723L17.7889 61.5728L18.0846 61.5221ZM21.994 48.8897L21.7767 48.6828L21.7765 48.6831L21.994 48.8897ZM28.1574 42.7008L27.9459 42.488L27.9459 42.488L28.1574 42.7008ZM34.4736 43.7705L34.7521 43.6591L34.7469 43.6461L34.7406 43.6337L34.4736 43.7705ZM34.6391 44.0124V44.3124H35.1856L34.8922 43.8514L34.6391 44.0124ZM32.1814 71.8368L31.9131 71.971L31.9975 72.1398L32.1862 72.1368L32.1814 71.8368ZM41.7067 68.0547L41.4951 67.842L41.4945 67.8426L41.7067 68.0547ZM48.6341 61.1146L48.8599 61.3121L48.8633 61.3082L48.6341 61.1146ZM48.5577 58.7715L48.7656 58.5552L48.7655 58.555L48.5577 58.7715ZM46.2655 58.7587L46.0683 58.5327L46.068 58.533L46.2655 58.7587ZM45.6925 59.319L45.8997 59.5361L45.9046 59.5312L45.6925 59.319ZM44.0498 59.4209L43.8346 59.6299L43.8347 59.63L44.0498 59.4209ZM44.1771 57.8291L43.9627 57.6193L43.9624 57.6196L44.1771 57.8291ZM45.9217 56.0718L45.7059 55.8633L45.705 55.8643L45.9217 56.0718ZM46.0108 53.6268L46.225 53.4167L46.2249 53.4167L46.0108 53.6268ZM43.5659 53.665L43.3612 53.4457L43.3605 53.4464L43.5659 53.665ZM42.3306 54.8875L42.1218 54.6721L42.121 54.6729L42.3306 54.8875ZM40.6879 55.0403L40.4787 55.2553L40.4788 55.2554L40.6879 55.0403ZM40.8153 53.3976L41.0298 53.6073L41.0306 53.6064L40.8153 53.3976ZM42.025 52.1624L41.7937 51.9713L41.7908 51.975L42.025 52.1624ZM42.5599 51.1182L42.8536 51.1789L42.8538 51.178L42.5599 51.1182ZM41.7321 49.4372L41.8792 49.1758L41.8782 49.1752L41.7321 49.4372ZM39.7583 49.6792L39.5558 49.4578L39.5533 49.4602L39.7583 49.6792ZM37.9882 51.3983L37.7881 51.1749L37.7858 51.1769L37.9882 51.3983ZM36.5365 51.3728L36.7453 51.1574L36.7452 51.1573L36.5365 51.3728ZM36.4856 49.9211L36.2497 49.7358L36.2495 49.7361L36.4856 49.9211ZM36.944 49.4372L36.7317 49.2249L36.7236 49.2338L36.944 49.4372ZM46.8131 37.1359L47.0218 36.9204L47.0217 36.9203L46.8131 37.1359ZM44.088 37.5307L44.3001 37.7428L44.3014 37.7415L44.088 37.5307ZM28.6668 52.9519L28.4546 52.7398L28.6668 52.9519ZM28.2338 53.3721L28.0417 53.1417L28.0395 53.1435L28.2338 53.3721ZM26.7184 51.8695L26.9475 52.0633L26.9506 52.0595L26.7184 51.8695ZM31.9904 46.5848L31.7783 46.3726L31.7774 46.3735L31.9904 46.5848ZM29.6473 44.1652L29.8581 44.3787L29.8594 44.3774L29.6473 44.1652ZM23.4457 50.405L23.224 50.2029L23.2239 50.203L23.4457 50.405ZM21.0262 64.0689L21.3024 63.9518L21.3022 63.9514L21.0262 64.0689ZM32.1687 71.8114L32.437 71.6772L32.359 71.5212L32.1849 71.5118L32.1687 71.8114ZM34.8385 44.2246C37.5891 41.474 40.3145 38.7486 43.0272 36.0232L42.6019 35.5999C39.8898 38.3248 37.1649 41.0497 34.4143 43.8003L34.8385 44.2246ZM43.0281 36.0222C43.9048 35.1336 44.9216 34.6985 46.1336 34.8733L46.2192 34.2794C44.7824 34.0722 43.5835 34.6049 42.601 35.6009L43.0281 36.0222ZM46.1322 34.8731C47.5638 35.086 48.5392 35.8888 48.9992 37.257L49.5679 37.0658C49.0346 35.4797 47.8707 34.5251 46.2205 34.2796L46.1322 34.8731ZM48.9989 37.2563C49.4576 38.6322 49.136 39.8407 48.1266 40.8739L48.5558 41.2932C49.7112 40.1106 50.1028 38.6704 49.5682 37.0665L48.9989 37.2563ZM48.1276 40.8729C46.2697 42.7563 44.3988 44.6144 42.514 46.4865L42.9368 46.9122C44.8213 45.0405 46.6943 43.1802 48.5548 41.2942L48.1276 40.8729ZM42.5213 46.4795C42.3493 46.6392 42.1708 46.7815 41.9071 47.0056L42.2957 47.4628C42.5414 47.254 42.7449 47.0906 42.9295 46.9192L42.5213 46.4795ZM41.9807 47.5089C42.7834 47.8616 43.3764 48.3185 43.7796 48.876C44.182 49.4324 44.4085 50.1069 44.4506 50.9172L45.0497 50.8861C45.0026 49.9774 44.7453 49.1874 44.2658 48.5244C43.7872 47.8627 43.1003 47.3454 42.2221 46.9596L41.9807 47.5089ZM44.721 51.2003C46.2063 51.3452 47.2186 52.015 47.7777 52.9131C48.3401 53.8163 48.4656 54.9852 48.1053 56.1623L48.679 56.3379C49.0827 55.0191 48.9536 53.6665 48.2871 52.596C47.6174 51.5202 46.4266 50.7638 44.7793 50.6031L44.721 51.2003ZM48.2664 56.5225C48.4422 56.6036 48.607 56.6738 48.7801 56.7604L49.0484 56.2237C48.8649 56.132 48.6732 56.0494 48.5179 55.9777L48.2664 56.5225ZM48.7931 56.7665C51.0161 57.7479 51.6855 60.5641 50.0462 62.2964L50.482 62.7088C52.4338 60.6463 51.6005 57.35 49.0354 56.2176L48.7931 56.7665ZM50.0469 62.2957C47.4846 64.9854 44.9352 67.6868 42.1589 70.1081L42.5533 70.5603C45.3547 68.1171 47.9244 65.3937 50.4813 62.7095L50.0469 62.2957ZM42.1589 70.1081C37.9636 73.7665 33.048 74.6511 27.8128 72.7769L27.6106 73.3418C33.0467 75.2879 38.1912 74.3641 42.5533 70.5603L42.1589 70.1081ZM27.8131 72.777C22.5299 70.8785 19.3301 67.0078 18.3803 61.4713L17.7889 61.5728C18.7747 67.3189 22.1203 71.3689 27.6102 73.3416L27.8131 72.777ZM18.3803 61.4719C17.5816 56.7667 18.9002 52.5825 22.2115 49.0963L21.7765 48.6831C18.3386 52.3025 16.9576 56.6758 17.7888 61.5723L18.3803 61.4719ZM22.2113 49.0965C24.2195 46.9866 26.3024 44.9673 28.3689 42.9136L27.9459 42.488C25.8865 44.5347 23.7925 46.5649 21.7767 48.6828L22.2113 49.0965ZM28.3689 42.9136C29.3313 41.9571 30.4837 41.6168 31.5368 41.7979C32.5913 41.9792 33.5827 42.6895 34.2066 43.9073L34.7406 43.6337C34.0401 42.2664 32.8985 41.4232 31.6385 41.2065C30.3772 40.9897 29.0337 41.407 27.9459 42.488L28.3689 42.9136ZM34.195 43.8819C34.2256 43.9584 34.2711 44.0151 34.2951 44.0462C34.3218 44.0809 34.3495 44.116 34.386 44.1735L34.8922 43.8514C34.8397 43.7688 34.7972 43.7148 34.7699 43.6794C34.7398 43.6404 34.747 43.6463 34.7521 43.6591L34.195 43.8819ZM34.6391 43.7124H34.6264V44.3124H34.6391V43.7124ZM32.1862 72.1368C36.2532 72.072 39.3614 70.8242 41.9188 68.2669L41.4945 67.8426C39.06 70.2771 36.1068 71.4743 32.1766 71.5369L32.1862 72.1368ZM41.9182 68.2675C44.147 66.0514 46.3512 63.8345 48.5661 61.6196L48.1418 61.1953C45.9252 63.4119 43.7233 65.6266 41.4951 67.842L41.9182 68.2675ZM48.5661 61.6196C48.6539 61.5317 48.763 61.4228 48.8599 61.3121L48.4083 60.917C48.3269 61.0101 48.2322 61.1049 48.1418 61.1953L48.5661 61.6196ZM48.8633 61.3082C49.5832 60.456 49.5486 59.308 48.7656 58.5552L48.3498 58.9877C48.8912 59.5083 48.9329 60.296 48.4049 60.921L48.8633 61.3082ZM48.7655 58.555C48.0105 57.8302 46.8792 57.825 46.0683 58.5327L46.4628 58.9848C47.0526 58.47 47.8315 58.4902 48.3499 58.9879L48.7655 58.555ZM46.068 58.533C45.8542 58.72 45.662 58.9253 45.4804 59.1069L45.9046 59.5312C46.105 59.3307 46.2694 59.154 46.4631 58.9845L46.068 58.533ZM45.4853 59.102C45.2431 59.3332 45.0082 59.4319 44.8114 59.4429C44.6205 59.4536 44.4325 59.3842 44.2649 59.2118L43.8347 59.63C44.1127 59.9161 44.4659 60.0632 44.8449 60.042C45.2179 60.0211 45.5815 59.8397 45.8996 59.536L45.4853 59.102ZM44.2649 59.2119C44.1052 59.0475 44.0441 58.8638 44.0591 58.6777C44.0745 58.4858 44.1741 58.2618 44.3918 58.0386L43.9624 57.6196C43.6707 57.9186 43.4902 58.2676 43.461 58.6296C43.4314 58.9975 43.5613 59.3486 43.8346 59.6299L44.2649 59.2119ZM44.3916 58.0389C44.9505 57.4675 45.5687 56.8743 46.1384 56.2793L45.705 55.8643C45.1286 56.4663 44.5498 57.0192 43.9627 57.6193L44.3916 58.0389ZM46.1375 56.2802C46.9617 55.4271 47.0152 54.2221 46.225 53.4167L45.7967 53.8369C46.3309 54.3814 46.3334 55.2138 45.7059 55.8634L46.1375 56.2802ZM46.2249 53.4167C45.422 52.5985 44.2289 52.6358 43.3612 53.4457L43.7706 53.8843C44.4309 53.268 45.2499 53.2798 45.7967 53.837L46.2249 53.4167ZM43.3605 53.4464C42.9447 53.8369 42.522 54.2841 42.1218 54.6721L42.5395 55.1029C42.9798 54.6759 43.3465 54.2827 43.7713 53.8837L43.3605 53.4464ZM42.121 54.6729C41.8753 54.913 41.6405 55.0199 41.4442 55.0376C41.2555 55.0546 41.0692 54.9926 40.897 54.8252L40.4788 55.2554C40.765 55.5337 41.1199 55.6692 41.4979 55.6352C41.8683 55.6019 42.2256 55.4096 42.5403 55.1021L42.121 54.6729ZM40.8971 54.8253C40.7158 54.6489 40.6507 54.4652 40.664 54.2839C40.6779 54.0938 40.782 53.8607 41.0298 53.6073L40.6008 53.1879C40.2882 53.5075 40.093 53.8665 40.0656 54.24C40.0375 54.6222 40.1888 54.9733 40.4787 55.2553L40.8971 54.8253ZM41.0306 53.6064C41.2302 53.4006 41.4344 53.2121 41.648 53.005C41.8574 52.802 42.0689 52.5878 42.2593 52.3498L41.7908 51.975C41.6246 52.1827 41.435 52.3759 41.2304 52.5741C41.0303 52.7681 40.8078 52.9743 40.5999 53.1888L41.0306 53.6064ZM42.2563 52.3534C42.5188 52.0357 42.7644 51.6101 42.8536 51.1789L42.2661 51.0574C42.2025 51.3648 42.0152 51.7033 41.7937 51.9713L42.2563 52.3534ZM42.8538 51.178C43.0239 50.3432 42.5856 49.5731 41.8792 49.1758L41.585 49.6987C42.1011 49.989 42.376 50.5178 42.2659 51.0583L42.8538 51.178ZM41.8782 49.1752C41.4998 48.9642 41.0936 48.8701 40.6874 48.9163C40.2809 48.9625 39.8957 49.1469 39.5558 49.4578L39.9608 49.9005C40.2195 49.6639 40.49 49.5426 40.7552 49.5125C41.0208 49.4823 41.3022 49.541 41.586 49.6992L41.8782 49.1752ZM39.5533 49.4602C39.2495 49.7446 38.9554 50.0419 38.6659 50.3314C38.3748 50.6226 38.087 50.9071 37.7881 51.1749L38.1884 51.6218C38.5008 51.342 38.7988 51.0471 39.0902 50.7557C39.3833 50.4625 39.6686 50.1741 39.9633 49.8982L39.5533 49.4602ZM37.7858 51.1769C37.4639 51.4713 37.0455 51.4482 36.7453 51.1574L36.3278 51.5883C36.8426 52.0871 37.6212 52.1404 38.1907 51.6197L37.7858 51.1769ZM36.7452 51.1573C36.4727 50.8936 36.4366 50.47 36.7217 50.1062L36.2495 49.7361C35.796 50.3147 35.8109 51.0881 36.3279 51.5884L36.7452 51.1573ZM36.7215 50.1065C36.7802 50.0318 36.8463 49.9624 36.9222 49.8865C36.9945 49.8142 37.0826 49.7294 37.1645 49.6407L36.7236 49.2338C36.6526 49.3107 36.5816 49.3786 36.4979 49.4623C36.4178 49.5424 36.3311 49.6322 36.2497 49.7358L36.7215 50.1065ZM37.1562 49.6494C38.7416 48.064 40.3302 46.4754 41.9188 44.8867C43.5074 43.2981 45.096 41.7095 46.6814 40.1241L46.2571 39.6999C44.6717 41.2853 43.0831 42.8739 41.4945 44.4625C39.9059 46.0511 38.3173 47.6397 36.7319 49.2251L37.1562 49.6494ZM46.6814 40.1241C47.2213 39.5842 47.5579 39.0259 47.6266 38.4649C47.6974 37.8871 47.4775 37.3617 47.0218 36.9204L46.6044 37.3515C46.9509 37.687 47.0749 38.0338 47.0311 38.392C46.9851 38.767 46.7487 39.2083 46.2571 39.6999L46.6814 40.1241ZM47.0217 36.9203C46.5787 36.4918 46.0597 36.292 45.4942 36.3725C44.9451 36.4507 44.4012 36.7865 43.8745 37.3199L44.3014 37.7415C44.7808 37.2561 45.211 37.0189 45.5788 36.9665C45.9302 36.9165 46.2707 37.0287 46.6045 37.3516L47.0217 36.9203ZM43.8758 37.3186C41.3035 39.8909 38.7344 42.46 36.1652 45.0292C33.5961 47.5983 31.0269 50.1674 28.4546 52.7398L28.8789 53.164C31.4512 50.5917 34.0204 48.0226 36.5895 45.4534C39.1586 42.8843 41.7278 40.3151 44.3001 37.7428L43.8758 37.3186ZM28.4546 52.7398C28.3017 52.8927 28.1806 53.0259 28.0417 53.1417L28.4258 53.6026C28.5926 53.4636 28.7516 53.2913 28.8789 53.164L28.4546 52.7398ZM28.0395 53.1435C27.8255 53.3255 27.6245 53.3969 27.4538 53.3969C27.2867 53.3969 27.112 53.3287 26.9433 53.16L26.519 53.5843C26.7833 53.8486 27.1052 53.9969 27.4538 53.9969C27.7989 53.9969 28.1328 53.8517 28.4281 53.6007L28.0395 53.1435ZM26.9433 53.16C26.7833 53 26.7117 52.8215 26.7096 52.6458C26.7074 52.4683 26.7761 52.2658 26.9474 52.0633L26.4894 51.6757C26.2405 51.9698 26.1054 52.3085 26.1096 52.6531C26.1139 52.9995 26.2587 53.324 26.519 53.5843L26.9433 53.16ZM26.9506 52.0595C27.0526 51.9348 27.1584 51.841 27.2998 51.6996L26.8756 51.2753C26.7623 51.3886 26.6135 51.524 26.4862 51.6795L26.9506 52.0595ZM27.2998 51.6996C28.9287 50.0708 30.5729 48.4393 32.2034 46.7961L31.7774 46.3735C30.1479 48.0157 28.5067 49.6442 26.8756 51.2753L27.2998 51.6996ZM32.2025 46.7969C32.64 46.3595 32.8873 45.8466 32.914 45.3235C32.9409 44.7976 32.7429 44.2918 32.3464 43.8806L31.9145 44.2971C32.2057 44.599 32.3325 44.9464 32.3148 45.2928C32.2969 45.642 32.1304 46.0205 31.7783 46.3726L32.2025 46.7969ZM32.3464 43.8806C31.9483 43.4677 31.4422 43.255 30.9147 43.2684C30.3891 43.2818 29.8697 43.5186 29.4352 43.9531L29.8594 44.3774C30.2017 44.0351 30.5801 43.8771 30.93 43.8682C31.2779 43.8594 31.625 43.9968 31.9145 44.2971L32.3464 43.8806ZM29.4365 43.9518C27.3551 46.0078 25.2049 48.0304 23.224 50.2029L23.6674 50.6072C25.6342 48.4501 27.7627 46.4485 29.8581 44.3787L29.4365 43.9518ZM23.2239 50.203C21.3649 52.2434 20.2013 54.4677 19.7774 56.8258C19.3535 59.1844 19.6734 61.6567 20.7502 64.1864L21.3022 63.9514C20.2651 61.5147 19.9674 59.1608 20.368 56.9319C20.7687 54.7024 21.8717 52.578 23.6675 50.6071L23.2239 50.203ZM20.75 64.186C22.9252 69.3179 27.1075 71.8379 32.1525 72.1109L32.1849 71.5118C27.3481 71.25 23.3804 68.8545 21.3024 63.9518L20.75 64.186ZM31.9004 71.9455L31.9131 71.971L32.4497 71.7027L32.437 71.6772L31.9004 71.9455Z" fill="#2563EB" mask="url(#path-3-outside-1_257_1849)"/>
<path d="M54.3385 5.85014L54.3385 5.84951L54.3248 5.85082C54.1851 5.86413 54.0075 5.87673 53.803 5.89124C53.2441 5.9309 52.4838 5.98484 51.7428 6.10675C40.0142 7.96768 32.5843 19.8499 36.0621 31.1816L36.0621 31.1816C36.4371 32.4032 37.009 33.572 37.5704 34.7194C37.6826 34.9487 37.7943 35.1771 37.904 35.405L37.904 35.405L37.905 35.407C38.2295 36.0559 38.9915 36.1925 39.5493 35.8922C39.8435 35.7343 40.0432 35.4896 40.1284 35.1972C40.2131 34.9063 40.1811 34.5799 40.0354 34.26C39.9684 34.1072 39.8862 33.9582 39.8091 33.8185C39.78 33.7659 39.7516 33.7145 39.7251 33.6648L39.7251 33.6647C38.0576 30.5445 37.364 27.2382 37.7426 23.7168L37.7427 23.7166C38.7905 13.8187 47.956 6.86299 57.7394 8.52932L57.7395 8.52933C64.7962 9.7286 70.5152 15.3728 71.7519 22.3517C73.0399 29.6125 69.7191 36.7825 63.3824 40.4053L63.3822 40.4054C59.4188 42.6774 55.1915 43.1959 50.7426 42.2101C50.3449 42.121 49.9777 42.1626 49.6875 42.3261C49.3957 42.4905 49.1958 42.7705 49.124 43.1281C49.0515 43.463 49.1248 43.7787 49.3226 44.0338C49.5185 44.2865 49.8284 44.47 50.2156 44.5651C52.7306 45.1938 55.285 45.3094 57.8266 44.8986C68.2065 43.2307 75.3417 34.0167 74.3794 23.5851L74.3793 23.5849C73.4423 13.5853 64.8814 5.81166 54.3385 5.85014Z" fill="#2563EB" stroke="#2563EB" stroke-width="0.3"/>
<path d="M46.3618 31.0447L46.3618 31.0447L46.3603 31.0419C46.2596 30.8505 46.1467 30.6622 46.0359 30.4775C46.004 30.4243 45.9723 30.3715 45.9411 30.3189C45.8002 30.0813 45.6676 29.8466 45.5635 29.6017C45.3382 29.0666 45.1484 28.5192 44.9501 27.9472C44.9039 27.814 44.8572 27.6794 44.8095 27.5434H64.8064C64.8038 27.5595 64.8013 27.5752 64.7989 27.5904C64.7967 27.6042 64.7946 27.6176 64.7925 27.6307C64.7799 27.7094 64.7683 27.7752 64.7517 27.8364C63.6955 31.4184 61.4008 33.8251 57.8575 35.0062L57.8566 35.0066C56.1685 35.5818 54.4257 35.5837 52.6598 35.2684C52.2859 35.1992 51.9495 35.256 51.6873 35.4252C51.4243 35.5949 51.2508 35.8683 51.1867 36.2028L51.1866 36.2033C51.1231 36.5418 51.1779 36.8522 51.3565 37.1041C51.5329 37.3528 51.8176 37.5272 52.1828 37.6228C52.2612 37.6488 52.3565 37.6761 52.4549 37.6905C59.3754 39.0543 66.2279 34.2742 67.3491 27.3026L67.3491 27.3024C67.4494 26.6735 67.335 26.1278 67.0156 25.7286C66.6961 25.3291 66.1898 25.0995 65.5534 25.066L65.5534 25.0658H65.5455H65.545H65.5445H65.5439H65.5434H65.5429H65.5424H65.5418H65.5413H65.5408H65.5403H65.5398H65.5392H65.5387H65.5382H65.5377H65.5371H65.5366H65.5361H65.5356H65.5351H65.5345H65.534H65.5335H65.533H65.5324H65.5319H65.5314H65.5309H65.5303H65.5298H65.5293H65.5288H65.5283H65.5277H65.5272H65.5267H65.5262H65.5257H65.5251H65.5246H65.5241H65.5236H65.523H65.5225H65.522H65.5215H65.5209H65.5204H65.5199H65.5194H65.5189H65.5183H65.5178H65.5173H65.5168H65.5162H65.5157H65.5152H65.5147H65.5142H65.5136H65.5131H65.5126H65.5121H65.5115H65.511H65.5105H65.51H65.5095H65.5089H65.5084H65.5079H65.5074H65.5068H65.5063H65.5058H65.5053H65.5048H65.5042H65.5037H65.5032H65.5027H65.5021H65.5016H65.5011H65.5006H65.5001H65.4995H65.499H65.4985H65.498H65.4974H65.4969H65.4964H65.4959H65.4954H65.4948H65.4943H65.4938H65.4933H65.4927H65.4922H65.4917H65.4912H65.4907H65.4901H65.4896H65.4891H65.4886H65.488H65.4875H65.487H65.4865H65.486H65.4854H65.4849H65.4844H65.4839H65.4833H65.4828H65.4823H65.4818H65.4813H65.4807H65.4802H65.4797H65.4792H65.4786H65.4781H65.4776H65.4771H65.4766H65.476H65.4755H65.475H65.4745H65.4739H65.4734H65.4729H65.4724H65.4719H65.4713H65.4708H65.4703H65.4698H65.4692H65.4687H65.4682H65.4677H65.4672H65.4666H65.4661H65.4656H65.4651H65.4645H65.464H65.4635H65.463H65.4625H65.4619H65.4614H65.4609H65.4604H65.4598H65.4593H65.4588H65.4583H65.4578H65.4572H65.4567H65.4562H65.4557H65.4551H65.4546H65.4541H65.4536H65.4531H65.4525H65.452H65.4515H65.451H65.4504H65.4499H65.4494H65.4489H65.4483H65.4478H65.4473H65.4468H65.4463H65.4457H65.4452H65.4447H65.4442H65.4436H65.4431H65.4426H65.4421H65.4416H65.441H65.4405H65.44H65.4395H65.4389H65.4384H65.4379H65.4374H65.4369H65.4363H65.4358H65.4353H65.4348H65.4342H65.4337H65.4332H65.4327H65.4322H65.4316H65.4311H65.4306H65.4301H65.4295H65.429H65.4285H65.428H65.4275H65.4269H65.4264H65.4259H65.4254H65.4248H65.4243H65.4238H65.4233H65.4228H65.4222H65.4217H65.4212H65.4207H65.4201H65.4196H65.4191H65.4186H65.4181H65.4175H65.417H65.4165H65.416H65.4154H65.4149H65.4144H65.4139H65.4134H65.4128H65.4123H65.4118H65.4113H65.4107H65.4102H65.4097H65.4092H65.4087H65.4081H65.4076H65.4071H65.4066H65.406H65.4055H65.405H65.4045H65.404H65.4034H65.4029H65.4024H65.4019H65.4013H65.4008H65.4003H65.3998H65.3993H65.3987H65.3982H65.3977H65.3972H65.3966H65.3961H65.3956H65.3951H65.3946H65.394H65.3935H65.393H65.3925H65.3919H65.3914H65.3909H65.3904H65.3899H65.3893H65.3888H65.3883H65.3878H65.3872H65.3867H65.3862H65.3857H65.3852H65.3846H65.3841H65.3836H65.3831H65.3825H65.382H65.3815H65.381H65.3804H65.3799H65.3794H65.3789H65.3784H65.3778H65.3773H65.3768H65.3763H65.3757H65.3752H65.3747H65.3742H65.3737H65.3731H65.3726H65.3721H65.3716H65.371H65.3705H65.37H65.3695H65.369H65.3684H65.3679H65.3674H65.3669H65.3663H65.3658H65.3653H65.3648H65.3643H65.3637H65.3632H65.3627H65.3622H65.3616H65.3611H65.3606H65.3601H65.3596H65.359H65.3585H65.358H65.3575H65.3569H65.3564H65.3559H65.3554H65.3549H65.3543H65.3538H65.3533H65.3528H65.3522H65.3517H65.3512H65.3507H65.3502H65.3496H65.3491H65.3486H65.3481H65.3475H65.347H65.3465H65.346H65.3455H65.3449H65.3444H65.3439H65.3434H65.3428H65.3423H65.3418H65.3413H65.3408H65.3402H65.3397H65.3392H65.3387H65.3381H65.3376H65.3371H65.3366H65.3361H65.3355H65.335H65.3345H65.334H65.3334H65.3329H65.3324H65.3319H65.3314H65.3308H65.3303H65.3298H65.3293H65.3287H65.3282H65.3277H65.3272H65.3267H65.3261H65.3256H65.3251H65.3246H65.324H65.3235H65.323H65.3225H65.322H65.3214H65.3209H65.3204H65.3199H65.3193H65.3188H65.3183H65.3178H65.3173H65.3167H65.3162H65.3157H65.3152H65.3146H65.3141H65.3136H65.3131H65.3126H65.312H65.3115H65.311H65.3105H65.3099H65.3094H65.3089H65.3084H65.3078H65.3073H65.3068H65.3063H65.3058H65.3052H65.3047H65.3042H65.3037H65.3032H65.3026H65.3021H65.3016H65.3011H65.3005H65.3H65.2995H65.299H65.2984H65.2979H65.2974H65.2969H65.2964H65.2958H65.2953H65.2948H65.2943H65.2937H65.2932H65.2927H65.2922H65.2917H65.2911H65.2906H65.2901H65.2896H65.289H65.2885H65.288H65.2875H65.287H65.2864H65.2859H65.2854H65.2849H65.2843H65.2838H65.2833H65.2828H65.2823H65.2817H65.2812H65.2807H65.2802H65.2796H65.2791H65.2786H65.2781H65.2372H65.1963H65.1554H65.1145H65.0736H65.0327H64.9919H64.951H64.9101H64.8692H64.8283H64.7874H64.7465H64.7056H64.6647H64.6239H64.583H64.5421H64.5012H64.4603H64.4194H64.3785H64.3376H64.2967H64.2559H64.215H64.1741H64.1332H64.0923H64.0514H64.0105H63.9696H63.9287H63.8879H63.847H63.8061H63.7652H63.7243H63.6834H63.6425H63.6016H63.5607H63.5199H63.479H63.4381H63.3972H63.3563H63.3154H63.2745H63.2336H63.1927H63.1519H63.111H63.0701H63.0292H62.9883H62.9474H62.9065H62.8656H62.8247H62.7839H62.743H62.7021H62.6612H62.6203H62.5794H62.5385H62.4976H62.4567H62.4159H62.375H62.3341H62.2932H62.2523H62.2114H62.1705H62.1296H62.0887H62.0479H62.007H61.9661H61.9252H61.8843H61.8434H61.8025H61.7616H61.7207H61.6798H61.639H61.5981H61.5572H61.5163H61.4754H61.4345H61.3936H61.3527H61.3118H61.271H61.2301H61.1892H61.1483H61.1074H61.0665H61.0256H60.9847H60.9438H60.903H60.8621H60.8212H60.7803H60.7394H60.6985H60.6576H60.6167H60.5758H60.535H60.4941H60.4532H60.4123H60.3714H60.3305H60.2896H60.2487H60.2078H60.167H60.1261H60.0852H60.0443H60.0034H59.9625H59.9216H59.8807H59.8398H59.799H59.7581H59.7172H59.6763H59.6354H59.5945H59.5536H59.5127H59.4718H59.431H59.3901H59.3492H59.3083H59.2674H59.2265H59.1856H59.1447H59.1038H59.063H59.0221H58.9812H58.9403H58.8994H58.8585H58.8176H58.7767H58.7358H58.695H58.6541H58.6132H58.5723H58.5314H58.4905H58.4496H58.4087H58.3678H58.327H58.2861H58.2452H58.2043H58.1634H58.1225H58.0816H58.0407H57.9998H57.959H57.9181H57.8772H57.8363H57.7954H57.7545H57.7136H57.6727H57.6318H57.591H57.5501H57.5092H57.4683H57.4274H57.3865H57.3456H57.3047H57.2638H57.223H57.1821H57.1412H57.1003H57.0594H57.0185H56.9776H56.9367H56.8958H56.855H56.8141H56.7732H56.7323H56.6914H56.6505H56.6096H56.5687H56.5278H56.487H56.4461H56.4052H56.3643H56.3234H56.2825H56.2416H56.2007H56.1598H56.119H56.0781H56.0372H55.9963H55.9554H55.9145H55.8736H55.8327H55.7918H55.751H55.7101H55.6692H55.6283H55.5874H55.5465H55.5056H55.4647H55.4238H55.383H55.3421H55.3012H55.2603H55.2194H55.1785H55.1376H55.0967H55.0558H55.0149H54.9741H54.9332H54.8923H54.8514H54.8105H54.7696H54.7287H54.6878H54.6469H54.6061H54.5652H54.5243H54.4834H54.4425H54.4016H54.3607H54.3198H54.2789H54.2381H54.1972H54.1563H54.1154H54.0745H54.0336H53.9927H53.9518H53.9109H53.8701H53.8292H53.7883H53.7474H53.7065H53.6656H53.6247H53.5838H53.5429H53.5021H53.4612H53.4203H53.3794H53.3385H53.2976H53.2567H53.2158H53.1749H53.1341H53.0932H53.0523H53.0114H52.9705H52.9296H52.8887H52.8478H52.8069H52.7661H52.7252H52.6843H52.6434H52.6025H52.5616H52.5207H52.4798H52.4389H52.3981H52.3572H52.3163H52.2754H52.2345H52.1936H52.1527H52.1118H52.0709H52.0301H51.9892H51.9483H51.9074H51.8665H51.8256H51.7847H51.7438H51.7029H51.6621H51.6212H51.5803H51.5394H51.4985H51.4576H51.4167H51.3758H51.3349H51.2941H51.2532H51.2123H51.1714H51.1305H51.0896H51.0487H51.0078H50.9669H50.9261H50.8852H50.8443H50.8034H50.7625H50.7216H50.6807H50.6398H50.5989H50.5581H50.5172H50.4763H50.4354H50.3945H50.3536H50.3127H50.2718H50.2309H50.1901H50.1492H50.1083H50.0674H50.0265H49.9856H49.9447H49.9038H49.8629H49.8221H49.7812H49.7403H49.6994H49.6585H49.6176H49.5767H49.5358H49.4949H49.4541H49.4132H49.3723H49.3314H49.2905H49.2496H49.2087H49.1678H49.1269H49.0861H49.0452H49.0043H48.9634H48.9225H48.8816H48.8407H48.7998H48.7589H48.7181H48.6772H48.6363H48.5954H48.5545H48.5136H48.4727H48.4318H48.3909H48.35H48.3092H48.2683H48.2274H48.1865H48.1456H48.1047H48.0638H48.0229H47.982H47.9412H47.9003H47.8594H47.8185H47.7776H47.7367H47.6958H47.6549H47.614H47.5732H47.5323H47.4914H47.4505H47.4096H47.3687H47.3278H47.2869H47.246H47.2052H47.1643H47.1234H47.0825H47.0416H47.0007H46.9598H46.9189H46.878H46.8372H46.7963H46.7554H46.7145H46.6736H46.6327H46.5918H46.5509H46.51H46.4692H46.4283H46.3874H46.3465H46.3056H46.2647H46.2238H46.1829H46.142H46.1012H46.0603H46.0194H45.9785H45.9376H45.8967H45.8558H45.8149H45.774H45.7332H45.6923H45.6514H45.6105H45.5696H45.5287H45.4878H45.4469H45.406H45.3652H45.3243H45.2834H45.2425H45.2016H45.1607H45.1198H45.0789H45.038H44.9972H44.9563H44.9154H44.8745H44.8336H44.7927H44.7518H44.7109H44.67H44.6292H44.5883H44.5474H44.5065H44.4656H44.4247H44.3838H44.3429C44.1154 25.0658 43.8772 25.0925 43.6547 25.1318L43.6547 25.1317L43.6518 25.1323C42.8141 25.2971 42.1858 25.9797 42.2707 26.8597C42.4517 28.8882 43.1884 30.7083 44.3476 32.3569L44.3475 32.3569L44.3491 32.359C44.5416 32.6228 44.7914 32.781 45.072 32.8262C45.3502 32.871 45.6425 32.8022 45.9198 32.6429C46.4936 32.3189 46.6606 31.6424 46.3618 31.0447Z" fill="#2563EB" stroke="#2563EB" stroke-width="0.3"/>
<path d="M30.6283 38.6985H30.9905L30.972 38.68C32.3411 38.6246 33.8773 38.1887 35.3223 37.407L35.3223 37.4069C35.6562 37.2261 35.8824 36.9659 35.9821 36.6667C36.082 36.367 36.0505 36.0415 35.8931 35.741C35.7355 35.4401 35.4905 35.2359 35.19 35.1506C34.8916 35.0658 34.5529 35.1022 34.2099 35.2531L34.2083 35.2538C34.1357 35.2868 34.0635 35.3229 33.9943 35.3575L33.9931 35.3581C33.9231 35.3931 33.8559 35.4267 33.7892 35.457C30.7028 36.7991 27.7843 36.5463 25.1841 34.4213C22.58 32.2803 21.6316 29.461 22.4205 26.1548C23.4946 21.6712 28.0796 19.1034 32.6513 20.3684C33.0827 20.4879 33.4682 20.4973 33.7795 20.3783C34.0976 20.2567 34.3189 20.0081 34.4265 19.6565L34.4267 19.656C34.539 19.2838 34.5044 18.9441 34.3037 18.6601C34.108 18.3831 33.7697 18.1815 33.3213 18.0431L33.3212 18.043C31.8091 17.5778 30.2583 17.4745 28.7087 17.7069L28.7081 17.707C23.2443 18.5466 19.3173 23.5061 19.7566 28.9715C20.196 34.4645 24.7845 38.6985 30.6283 38.6985Z" fill="#2563EB" stroke="#2563EB" stroke-width="0.3"/>
<path d="M44.2826 18.8358L44.2826 18.8367C44.2959 20.9836 46.0453 22.6915 48.1892 22.6915L48.1901 22.6915C50.3488 22.6782 52.0576 20.9425 52.0576 18.7976L52.0576 18.7967C52.0444 16.6637 50.2705 14.9159 48.1501 14.9292C46.0035 14.9424 44.2826 16.7042 44.2826 18.8358ZM49.6183 18.7891C49.6399 19.5445 49.0753 20.1691 48.3392 20.2445V20.2372L48.1871 20.2394C47.3655 20.251 46.722 19.6169 46.722 18.8103C46.722 18.0179 47.3897 17.3691 48.1881 17.3685C48.9613 17.3807 49.6068 18.0169 49.6183 18.7871L49.6183 18.7871L49.6183 18.7891Z" fill="#2563EB" stroke="#2563EB" stroke-width="0.3"/>
<path d="M61.5087 22.1569H61.6587V22.1421C63.607 22.0759 65.1352 20.4853 65.1352 18.5304L65.1352 18.5294C65.1219 16.5498 63.4629 14.9028 61.4812 14.9294C59.5035 14.956 57.8953 16.5619 57.895 18.5299C57.882 20.5364 59.5034 22.1569 61.5087 22.1569ZM61.496 17.3815L61.4985 17.3815C62.1646 17.3702 62.7183 17.9368 62.6959 18.5888C62.6734 19.2303 62.1574 19.7175 61.496 19.7175C60.8412 19.7175 60.3344 19.1998 60.3344 18.5559C60.3344 17.9237 60.8676 17.3815 61.496 17.3815Z" fill="#2563EB" stroke="#2563EB" stroke-width="0.3"/>
<path d="M29.7241 32.3067H29.8741V32.2941C30.1326 32.2944 30.3925 32.2956 30.653 32.2968C31.2775 32.2996 31.9054 32.3024 32.5266 32.2939C32.9329 32.2938 33.2727 32.1886 33.5167 31.9834C33.7632 31.7761 33.8965 31.4797 33.9107 31.1313L33.9107 31.1313L33.9108 31.1283C33.918 30.7747 33.7836 30.4588 33.5355 30.2328C33.2887 30.0078 32.9389 29.8803 32.5266 29.8801C30.6795 29.8673 28.8323 29.8673 26.9851 29.8801L26.9837 29.8801C26.567 29.8869 26.2141 30.0137 25.9667 30.2391C25.7174 30.4662 25.5867 30.7836 25.6011 31.1439L25.6011 31.1442C25.6154 31.488 25.753 31.7835 25.9998 31.9913C26.2446 32.1975 26.5841 32.3067 26.9862 32.3067H26.9916H26.9969H27.0023H27.0077H27.013H27.0184H27.0238H27.0292H27.0345H27.0399H27.0453H27.0506H27.056H27.0614H27.0667H27.0721H27.0775H27.0828H27.0882H27.0936H27.0989H27.1043H27.1097H27.115H27.1204H27.1258H27.1311H27.1365H27.1419H27.1472H27.1526H27.158H27.1633H27.1687H27.174H27.1794H27.1848H27.1901H27.1955H27.2009H27.2062H27.2116H27.2169H27.2223H27.2277H27.233H27.2384H27.2437H27.2491H27.2545H27.2598H27.2652H27.2705H27.2759H27.2812H27.2866H27.292H27.2973H27.3027H27.308H27.3134H27.3187H27.3241H27.3295H27.3348H27.3402H27.3455H27.3509H27.3562H27.3616H27.3669H27.3723H27.3777H27.383H27.3884H27.3937H27.3991H27.4044H27.4098H27.4151H27.4205H27.4258H27.4312H27.4365H27.4419H27.4472H27.4526H27.4579H27.4633H27.4686H27.474H27.4793H27.4847H27.49H27.4954H27.5007H27.5061H27.5114H27.5168H27.5221H27.5275H27.5328H27.5382H27.5435H27.5489H27.5542H27.5596H27.5649H27.5703H27.5756H27.581H27.5863H27.5917H27.597H27.6024H27.6077H27.613H27.6184H27.6237H27.6291H27.6344H27.6398H27.6451H27.6505H27.6558H27.6612H27.6665H27.6718H27.6772H27.6825H27.6879H27.6932H27.6986H27.7039H27.7092H27.7146H27.7199H27.7253H27.7306H27.736H27.7413H27.7466H27.752H27.7573H27.7627H27.768H27.7734H27.7787H27.784H27.7894H27.7947H27.8001H27.8054H27.8107H27.8161H27.8214H27.8268H27.8321H27.8375H27.8428H27.8481H27.8535H27.8588H27.8642H27.8695H27.8748H27.8802H27.8855H27.8908H27.8962H27.9015H27.9069H27.9122H27.9175H27.9229H27.9282H27.9336H27.9389H27.9442H27.9496H27.9549H27.9603H27.9656H27.9709H27.9763H27.9816H27.9869H27.9923H27.9976H28.003H28.0083H28.0136H28.019H28.0243H28.0296H28.035H28.0403H28.0457H28.051H28.0563H28.0617H28.067H28.0723H28.0777H28.083H28.0883H28.0937H28.099H28.1044H28.1097H28.115H28.1204H28.1257H28.131H28.1364H28.1417H28.147H28.1524H28.1577H28.163H28.1684H28.1737H28.1791H28.1844H28.1897H28.1951H28.2004H28.2057H28.2111H28.2164H28.2217H28.2271H28.2324H28.2377H28.2431H28.2484H28.2538H28.2591H28.2644H28.2698H28.2751H28.2804H28.2858H28.2911H28.2964H28.3018H28.3071H28.3124H28.3178H28.3231H28.3284H28.3338H28.3391H28.3444H28.3498H28.3551H28.3605H28.3658H28.3711H28.3765H28.3818H28.3871H28.3925H28.3978H28.4031H28.4085H28.4138H28.4191H28.4245H28.4298H28.4351H28.4405H28.4458H28.4511H28.4565H28.4618H28.4672H28.4725H28.4778H28.4832H28.4885H28.4938H28.4992H28.5045H28.5098H28.5152H28.5205H28.5258H28.5312H28.5365H28.5418H28.5472H28.5525H28.5579H28.5632H28.5685H28.5739H28.5792H28.5845H28.5899H28.5952H28.6005H28.6059H28.6112H28.6166H28.6219H28.6272H28.6326H28.6379H28.6432H28.6486H28.6539H28.6592H28.6646H28.6699H28.6753H28.6806H28.6859H28.6913H28.6966H28.7019H28.7073H28.7126H28.718H28.7233H28.7286H28.734H28.7393H28.7446H28.75H28.7553H28.7607H28.766H28.7713H28.7767H28.782H28.7873H28.7927H28.798H28.8034H28.8087H28.814H28.8194H28.8247H28.8301H28.8354H28.8407H28.8461H28.8514H28.8568H28.8621H28.8674H28.8728H28.8781H28.8835H28.8888H28.8941H28.8995H28.9048H28.9102H28.9155H28.9208H28.9262H28.9315H28.9369H28.9422H28.9476H28.9529H28.9582H28.9636H28.9689H28.9743H28.9796H28.985H28.9903H28.9956H29.001H29.0063H29.0117H29.017H29.0224H29.0277H29.033H29.0384H29.0437H29.0491H29.0544H29.0598H29.0651H29.0705H29.0758H29.0811H29.0865H29.0918H29.0972H29.1025H29.1079H29.1132H29.1186H29.1239H29.1293H29.1346H29.14H29.1453H29.1507H29.156H29.1613H29.1667H29.172H29.1774H29.1827H29.1881H29.1934H29.1988H29.2041H29.2095H29.2148H29.2202H29.2255H29.2309H29.2362H29.2416H29.2469H29.2523H29.2576H29.263H29.2683H29.2737H29.279H29.2844H29.2898H29.2951H29.3005H29.3058H29.3112H29.3165H29.3219H29.3272H29.3326H29.3379H29.3433H29.3486H29.354H29.3594H29.3647H29.3701H29.3754H29.3808H29.3861H29.3915H29.3968H29.4022H29.4076H29.4129H29.4183H29.4236H29.429H29.4343H29.4397H29.4451H29.4504H29.4558H29.4611H29.4665H29.4719H29.4772H29.4826H29.4879H29.4933H29.4987H29.504H29.5094H29.5147H29.5201H29.5255H29.5308H29.5362H29.5416H29.5469H29.5523H29.5576H29.563H29.5684H29.5737H29.5791H29.5845H29.5898H29.5952H29.6006H29.6059H29.6113H29.6167H29.622H29.6274H29.6328H29.6381H29.6435H29.6489H29.6542H29.6596H29.665H29.6703H29.6757H29.6811H29.6865H29.6918H29.6972H29.7026H29.7079H29.7133H29.7187H29.7241ZM25.751 31.1379C25.7255 30.5012 26.2094 30.0428 26.9862 30.0301L29.7241 32.1567H29.5741H26.9862C26.2349 32.1567 25.7764 31.7492 25.751 31.1379Z" fill="#2563EB" stroke="#2563EB" stroke-width="0.3"/>
<path d="M18.4384 30.2214L18.4385 30.2205C18.4669 29.8865 18.3782 29.58 18.1878 29.3433C17.9976 29.1069 17.7136 28.9501 17.3687 28.9006C17.0265 28.848 16.6865 28.848 16.4832 28.848H16.4807H16.468V28.848L16.466 28.8481C14.5491 28.874 12.8045 29.5474 11.6272 30.6724L11.6272 30.6724L11.6263 30.6733C11.1236 31.162 11.023 31.8316 11.4198 32.3608C11.8088 32.8794 12.5823 33.0341 13.1149 32.5754L13.1151 32.5752C14.3038 31.5475 15.6378 31.1754 17.1935 31.3123L17.1939 31.3123C17.8879 31.3714 18.3813 30.8499 18.4384 30.2214Z" fill="#2563EB" stroke="#2563EB" stroke-width="0.3"/>
<path d="M13.4116 27.4786L13.4254 27.4924H13.4875C14.4633 27.4924 15.2293 26.7106 15.2293 25.7379L15.2293 25.7357C15.2154 24.8033 14.4516 24.0234 13.5163 24.0089C12.5544 23.9816 11.7336 24.7739 11.733 25.7368C11.7199 26.6793 12.4559 27.4461 13.4116 27.4786ZM13.8214 25.7888C13.8214 25.7954 13.8189 25.8134 13.7972 25.8491C13.7755 25.8848 13.7414 25.9273 13.6928 25.9814C13.665 26.0123 13.6321 26.0471 13.5961 26.0853C13.5506 26.1336 13.4999 26.1872 13.4477 26.2455C13.3972 26.1752 13.3473 26.1097 13.3029 26.0515C13.2708 26.0095 13.2416 25.9713 13.2172 25.9378C13.1735 25.8777 13.1456 25.8337 13.1309 25.8009C13.1265 25.791 13.1242 25.7841 13.123 25.7799C13.1479 25.7245 13.207 25.6637 13.3062 25.5882C13.3444 25.5592 13.384 25.5311 13.4258 25.5015C13.4397 25.4917 13.4538 25.4817 13.4682 25.4714C13.4857 25.4589 13.5035 25.4461 13.5213 25.433C13.5362 25.4482 13.5512 25.4629 13.5658 25.4772C13.5815 25.4925 13.5966 25.5071 13.6113 25.5212C13.6443 25.5529 13.6749 25.5824 13.7043 25.6129C13.7462 25.6563 13.7773 25.6933 13.7975 25.7262C13.8176 25.7588 13.8214 25.7784 13.8214 25.7888Z" fill="#2563EB" stroke="#2563EB" stroke-width="0.3"/>
<path d="M25.601 25.7511C25.601 26.679 26.3066 27.4023 27.2182 27.4743V27.4951L27.3704 27.4929C28.3413 27.479 29.1246 26.7007 29.0972 25.7224C29.0828 24.7759 28.3042 24.0099 27.3693 24.0093C26.4077 23.996 25.601 24.7889 25.601 25.7511ZM27.029 25.7449C27.0434 25.7296 27.0575 25.7144 27.0711 25.6994C27.086 25.6831 27.1002 25.6674 27.1141 25.652C27.1454 25.6173 27.1748 25.5847 27.2055 25.5529C27.2943 25.461 27.3594 25.4148 27.415 25.4031C27.4185 25.4038 27.4294 25.4066 27.4506 25.419C27.4844 25.4389 27.5267 25.4727 27.5829 25.5234C27.6117 25.5494 27.6437 25.5795 27.6786 25.6124C27.7283 25.6592 27.7839 25.7115 27.8445 25.7654C27.7802 25.8089 27.7213 25.8511 27.6687 25.8889C27.632 25.9153 27.5984 25.9394 27.5681 25.9603C27.5084 26.0014 27.4626 26.0293 27.425 26.0458C27.3879 26.0621 27.3705 26.062 27.364 26.0611L27.3626 26.0609C27.3262 26.056 27.2697 26.0201 27.1828 25.9252C27.1486 25.8879 27.1151 25.8477 27.0792 25.8047C27.0729 25.7972 27.0666 25.7897 27.0603 25.782C27.05 25.7698 27.0396 25.7574 27.029 25.7449Z" fill="#2563EB" stroke="#2563EB" stroke-width="0.3"/>
</svg>
